<ttFont>
    <TTGlyph name=".notdef" xMin="32" yMin="0" xMax="440" yMax="780">
      <contour>
        <pt x="32" y="0" on="1"/>
        <pt x="32" y="780" on="1"/>
        <pt x="440" y="780" on="1"/>
        <pt x="440" y="0" on="1"/>
      </contour>
      <contour>
        <pt x="109" y="77" on="1"/>
        <pt x="363" y="77" on="1"/>
        <pt x="363" y="703" on="1"/>
        <pt x="109" y="703" on="1"/>
      </contour>
    </TTGlyph>
    <TTGlyph name="A" xMin="22" yMin="0" xMax="640" yMax="698">
      <contour>
        <pt x="522" y="0" on="1"/>
        <pt x="459" y="189" on="1"/>
        <pt x="198" y="189" on="1"/>
        <pt x="137" y="0" on="1"/>
        <pt x="22" y="0" on="1"/>
        <pt x="260" y="698" on="1"/>
        <pt x="402" y="698" on="1"/>
        <pt x="640" y="0" on="1"/>
      </contour>
      <contour>
        <pt x="331" y="594" on="1"/>
        <pt x="326" y="594" on="1"/>
        <pt x="225" y="286" on="1"/>
        <pt x="431" y="286" on="1"/>
      </contour>
    </TTGlyph>
    <TTGlyph name="AE" xMin="2" yMin="0" xMax="873" yMax="698">
      <contour>
        <pt x="426" y="188" on="1"/>
        <pt x="208" y="188" on="1"/>
        <pt x="116" y="0" on="1"/>
        <pt x="2" y="0" on="1"/>
        <pt x="352" y="698" on="1"/>
        <pt x="873" y="698" on="1"/>
        <pt x="873" y="598" on="1"/>
        <pt x="539" y="598" on="1"/>
        <pt x="539" y="404" on="1"/>
        <pt x="842" y="404" on="1"/>
        <pt x="842" y="304" on="1"/>
        <pt x="539" y="304" on="1"/>
        <pt x="539" y="100" on="1"/>
        <pt x="873" y="100" on="1"/>
        <pt x="873" y="0" on="1"/>
        <pt x="426" y="0" on="1"/>
      </contour>
      <contour>
        <pt x="409" y="598" on="1"/>
        <pt x="254" y="286" on="1"/>
        <pt x="426" y="286" on="1"/>
        <pt x="426" y="598" on="1"/>
      </contour>
    </TTGlyph>
    <TTGlyph name="Aacute" xMin="22" yMin="0" xMax="640" yMax="961">
      <component glyphName="A" x="0" y="0" flags="0x204"/>
      <component glyphName="acute.case" x="30" y="0" flags="0x4"/>
    </TTGlyph>
    <TTGlyph name="Acircumflex" xMin="22" yMin="0" xMax="640" yMax="944">
      <component glyphName="A" x="0" y="0" flags="0x204"/>
      <component glyphName="circumflex.case" x="30" y="0" flags="0x4"/>
    </TTGlyph>
    <TTGlyph name="Adieresis" xMin="22" yMin="0" xMax="640" yMax="902">
      <component glyphName="A" x="0" y="0" flags="0x204"/>
      <component glyphName="dieresis.case" x="30" y="0" flags="0x4"/>
    </TTGlyph>
    <TTGlyph name="Agrave" xMin="22" yMin="0" xMax="640" yMax="961">
      <component glyphName="A" x="0" y="0" flags="0x204"/>
      <component glyphName="grave.case" x="30" y="0" flags="0x4"/>
    </TTGlyph>
    <TTGlyph name="Aring" xMin="22" yMin="0" xMax="640" yMax="988">
      <component glyphName="A" x="0" y="0" flags="0x204"/>
      <component glyphName="ring.case" x="30" y="0" flags="0x4"/>
    </TTGlyph>
    <TTGlyph name="Atilde" xMin="22" yMin="0" xMax="640" yMax="904">
      <component glyphName="A" x="0" y="0" flags="0x204"/>
      <component glyphName="tilde.case" x="30" y="0" flags="0x4"/>
    </TTGlyph>
    <TTGlyph name="B" xMin="86" yMin="0" xMax="606" yMax="698">
      <contour>
        <pt x="86" y="698" on="1"/>
        <pt x="395" y="698" on="1"/>
        <pt x="482" y="698" on="0"/>
        <pt x="581" y="600" on="0"/>
        <pt x="581" y="518" on="1"/>
        <pt x="581" y="479" on="0"/>
        <pt x="559" y="424" on="0"/>
        <pt x="525" y="389" on="0"/>
        <pt x="481" y="372" on="0"/>
        <pt x="460" y="370" on="1"/>
        <pt x="460" y="364" on="1"/>
        <pt x="481" y="363" on="0"/>
        <pt x="532" y="345" on="0"/>
        <pt x="576" y="306" on="0"/>
        <pt x="606" y="245" on="0"/>
        <pt x="606" y="201" on="1"/>
        <pt x="606" y="159" on="0"/>
        <pt x="579" y="85" on="0"/>
        <pt x="531" y="31" on="0"/>
        <pt x="465" y="0" on="0"/>
        <pt x="426" y="0" on="1"/>
        <pt x="86" y="0" on="1"/>
      </contour>
      <contour>
        <pt x="199" y="97" on="1"/>
        <pt x="393" y="97" on="1"/>
        <pt x="437" y="97" on="0"/>
        <pt x="487" y="143" on="0"/>
        <pt x="487" y="186" on="1"/>
        <pt x="487" y="220" on="1"/>
        <pt x="487" y="263" on="0"/>
        <pt x="437" y="309" on="0"/>
        <pt x="393" y="309" on="1"/>
        <pt x="199" y="309" on="1"/>
      </contour>
      <contour>
        <pt x="199" y="403" on="1"/>
        <pt x="374" y="403" on="1"/>
        <pt x="416" y="403" on="0"/>
        <pt x="462" y="446" on="0"/>
        <pt x="462" y="486" on="1"/>
        <pt x="462" y="518" on="1"/>
        <pt x="462" y="558" on="0"/>
        <pt x="416" y="601" on="0"/>
        <pt x="374" y="601" on="1"/>
        <pt x="199" y="601" on="1"/>
      </contour>
    </TTGlyph>
    <TTGlyph name="C" xMin="55" yMin="-12" xMax="600" yMax="710">
      <contour>
        <pt x="348" y="-12" on="1"/>
        <pt x="211" y="-12" on="0"/>
        <pt x="55" y="173" on="0"/>
        <pt x="55" y="349" on="1"/>
        <pt x="55" y="437" on="0"/>
        <pt x="95" y="571" on="0"/>
        <pt x="171" y="663" on="0"/>
        <pt x="280" y="710" on="0"/>
        <pt x="348" y="710" on="1"/>
        <pt x="439" y="710" on="0"/>
        <pt x="562" y="630" on="0"/>
        <pt x="597" y="552" on="1"/>
        <pt x="502" y="500" on="1"/>
        <pt x="484" y="550" on="0"/>
        <pt x="409" y="609" on="0"/>
        <pt x="348" y="609" on="1"/>
        <pt x="267" y="609" on="0"/>
        <pt x="175" y="499" on="0"/>
        <pt x="175" y="402" on="1"/>
        <pt x="175" y="296" on="1"/>
        <pt x="175" y="199" on="0"/>
        <pt x="267" y="89" on="0"/>
        <pt x="348" y="89" on="1"/>
        <pt x="411" y="89" on="0"/>
        <pt x="490" y="154" on="0"/>
        <pt x="509" y="205" on="1"/>
        <pt x="600" y="150" on="1"/>
        <pt x="565" y="74" on="0"/>
        <pt x="439" y="-12" on="0"/>
      </contour>
    </TTGlyph>
    <TTGlyph name="Ccedilla" xMin="55" yMin="-209" xMax="600" yMax="710">
      <contour>
        <pt x="348" y="609" on="1"/>
        <pt x="267" y="609" on="0"/>
        <pt x="175" y="499" on="0"/>
        <pt x="175" y="402" on="1"/>
        <pt x="175" y="296" on="1"/>
        <pt x="175" y="199" on="0"/>
        <pt x="267" y="89" on="0"/>
        <pt x="348" y="89" on="1"/>
        <pt x="411" y="89" on="0"/>
        <pt x="490" y="154" on="0"/>
        <pt x="509" y="205" on="1"/>
        <pt x="600" y="150" on="1"/>
        <pt x="566" y="77" on="0"/>
        <pt x="448" y="-8" on="0"/>
        <pt x="362" y="-12" on="1"/>
        <pt x="353" y="-58" on="1"/>
        <pt x="356" y="-62" on="1"/>
        <pt x="367" y="-59" on="0"/>
        <pt x="388" y="-55" on="0"/>
        <pt x="399" y="-55" on="1"/>
        <pt x="428" y="-55" on="0"/>
        <pt x="469" y="-88" on="0"/>
        <pt x="469" y="-123" on="1"/>
        <pt x="469" y="-146" on="0"/>
        <pt x="449" y="-178" on="0"/>
        <pt x="416" y="-199" on="0"/>
        <pt x="373" y="-209" on="0"/>
        <pt x="349" y="-209" on="1"/>
        <pt x="304" y="-209" on="0"/>
        <pt x="251" y="-181" on="0"/>
        <pt x="239" y="-167" on="1"/>
        <pt x="281" y="-119" on="1"/>
        <pt x="290" y="-131" on="0"/>
        <pt x="321" y="-148" on="0"/>
        <pt x="344" y="-148" on="1"/>
        <pt x="363" y="-148" on="0"/>
        <pt x="388" y="-134" on="0"/>
        <pt x="388" y="-119" on="1"/>
        <pt x="388" y="-107" on="0"/>
        <pt x="361" y="-84" on="0"/>
        <pt x="317" y="-79" on="1"/>
        <pt x="292" y="-76" on="1"/>
        <pt x="305" y="-9" on="1"/>
        <pt x="187" y="5" on="0"/>
        <pt x="55" y="187" on="0"/>
        <pt x="55" y="349" on="1"/>
        <pt x="55" y="437" on="0"/>
        <pt x="95" y="571" on="0"/>
        <pt x="171" y="663" on="0"/>
        <pt x="280" y="710" on="0"/>
        <pt x="348" y="710" on="1"/>
        <pt x="439" y="710" on="0"/>
        <pt x="562" y="630" on="0"/>
        <pt x="597" y="552" on="1"/>
        <pt x="502" y="500" on="1"/>
        <pt x="484" y="550" on="0"/>
        <pt x="409" y="609" on="0"/>
      </contour>
    </TTGlyph>
    <TTGlyph name="D" xMin="86" yMin="0" xMax="628" yMax="698">
      <contour>
        <pt x="86" y="698" on="1"/>
        <pt x="333" y="698" on="1"/>
        <pt x="400" y="698" on="0"/>
        <pt x="509" y="654" on="0"/>
        <pt x="586" y="567" on="0"/>
        <pt x="628" y="436" on="0"/>
        <pt x="628" y="349" on="1"/>
        <pt x="628" y="262" on="0"/>
        <pt x="586" y="131" on="0"/>
        <pt x="509" y="44" on="0"/>
        <pt x="400" y="0" on="0"/>
        <pt x="333" y="0" on="1"/>
        <pt x="86" y="0" on="1"/>
      </contour>
      <contour>
        <pt x="333" y="100" on="1"/>
        <pt x="411" y="100" on="0"/>
        <pt x="507" y="198" on="0"/>
        <pt x="507" y="293" on="1"/>
        <pt x="507" y="405" on="1"/>
        <pt x="507" y="500" on="0"/>
        <pt x="411" y="598" on="0"/>
        <pt x="333" y="598" on="1"/>
        <pt x="199" y="598" on="1"/>
        <pt x="199" y="100" on="1"/>
      </contour>
    </TTGlyph>
    <TTGlyph name="Dcroat" xMin="13" yMin="0" xMax="632" yMax="698">
      <contour>
        <pt x="90" y="320" on="1"/>
        <pt x="13" y="320" on="1"/>
        <pt x="13" y="406" on="1"/>
        <pt x="90" y="406" on="1"/>
        <pt x="90" y="698" on="1"/>
        <pt x="337" y="698" on="1"/>
        <pt x="404" y="698" on="0"/>
        <pt x="513" y="654" on="0"/>
        <pt x="590" y="567" on="0"/>
        <pt x="632" y="436" on="0"/>
        <pt x="632" y="349" on="1"/>
        <pt x="632" y="262" on="0"/>
        <pt x="590" y="131" on="0"/>
        <pt x="513" y="44" on="0"/>
        <pt x="404" y="0" on="0"/>
        <pt x="337" y="0" on="1"/>
        <pt x="90" y="0" on="1"/>
      </contour>
      <contour>
        <pt x="337" y="100" on="1"/>
        <pt x="415" y="100" on="0"/>
        <pt x="511" y="198" on="0"/>
        <pt x="511" y="293" on="1"/>
        <pt x="511" y="405" on="1"/>
        <pt x="511" y="500" on="0"/>
        <pt x="415" y="598" on="0"/>
        <pt x="337" y="598" on="1"/>
        <pt x="203" y="598" on="1"/>
        <pt x="203" y="406" on="1"/>
        <pt x="333" y="406" on="1"/>
        <pt x="333" y="320" on="1"/>
        <pt x="203" y="320" on="1"/>
        <pt x="203" y="100" on="1"/>
      </contour>
    </TTGlyph>
    <TTGlyph name="Delta" xMin="46" yMin="0" xMax="614" yMax="698">
      <contour>
        <pt x="46" y="95" on="1"/>
        <pt x="259" y="698" on="1"/>
        <pt x="401" y="698" on="1"/>
        <pt x="614" y="95" on="1"/>
        <pt x="614" y="0" on="1"/>
        <pt x="46" y="0" on="1"/>
      </contour>
      <contour>
        <pt x="331" y="594" on="1"/>
        <pt x="326" y="594" on="1"/>
        <pt x="161" y="100" on="1"/>
        <pt x="495" y="100" on="1"/>
      </contour>
    </TTGlyph>
    <TTGlyph name="E" xMin="86" yMin="0" xMax="533" yMax="698">
      <contour>
        <pt x="86" y="0" on="1"/>
        <pt x="86" y="698" on="1"/>
        <pt x="533" y="698" on="1"/>
        <pt x="533" y="598" on="1"/>
        <pt x="199" y="598" on="1"/>
        <pt x="199" y="404" on="1"/>
        <pt x="502" y="404" on="1"/>
        <pt x="502" y="304" on="1"/>
        <pt x="199" y="304" on="1"/>
        <pt x="199" y="100" on="1"/>
        <pt x="533" y="100" on="1"/>
        <pt x="533" y="0" on="1"/>
      </contour>
    </TTGlyph>
    <TTGlyph name="Eacute" xMin="86" yMin="0" xMax="533" yMax="961">
      <component glyphName="E" x="0" y="0" flags="0x204"/>
      <component glyphName="acute.case" x="9" y="0" flags="0x4"/>
    </TTGlyph>
    <TTGlyph name="Ecircumflex" xMin="86" yMin="0" xMax="533" yMax="944">
      <component glyphName="E" x="0" y="0" flags="0x204"/>
      <component glyphName="circumflex.case" x="9" y="0" flags="0x4"/>
    </TTGlyph>
    <TTGlyph name="Edieresis" xMin="86" yMin="0" xMax="533" yMax="902">
      <component glyphName="E" x="0" y="0" flags="0x204"/>
      <component glyphName="dieresis.case" x="9" y="0" flags="0x4"/>
    </TTGlyph>
    <TTGlyph name="Egrave" xMin="86" yMin="0" xMax="533" yMax="961">
      <component glyphName="E" x="0" y="0" flags="0x204"/>
      <component glyphName="grave.case" x="9" y="0" flags="0x4"/>
    </TTGlyph>
    <TTGlyph name="Eth" xMin="13" yMin="0" xMax="632" yMax="698">
      <component glyphName="Dcroat" x="0" y="0" flags="0x204"/>
    </TTGlyph>
    <TTGlyph name="Euro" xMin="55" yMin="-12" xMax="589" yMax="710">
      <contour>
        <pt x="347" y="-12" on="1"/>
        <pt x="280" y="-12" on="0"/>
        <pt x="172" y="35" on="0"/>
        <pt x="96" y="128" on="0"/>
        <pt x="55" y="262" on="0"/>
        <pt x="55" y="349" on="1"/>
        <pt x="55" y="436" on="0"/>
        <pt x="96" y="570" on="0"/>
        <pt x="172" y="662" on="0"/>
        <pt x="280" y="710" on="0"/>
        <pt x="347" y="710" on="1"/>
        <pt x="439" y="710" on="0"/>
        <pt x="549" y="632" on="0"/>
        <pt x="582" y="571" on="1"/>
        <pt x="498" y="514" on="1"/>
        <pt x="477" y="562" on="0"/>
        <pt x="402" y="616" on="0"/>
        <pt x="347" y="616" on="1"/>
        <pt x="280" y="616" on="0"/>
        <pt x="193" y="536" on="0"/>
        <pt x="179" y="469" on="1"/>
        <pt x="423" y="469" on="1"/>
        <pt x="423" y="392" on="1"/>
        <pt x="174" y="392" on="1"/>
        <pt x="174" y="306" on="1"/>
        <pt x="423" y="306" on="1"/>
        <pt x="423" y="229" on="1"/>
        <pt x="179" y="229" on="1"/>
        <pt x="193" y="160" on="0"/>
        <pt x="280" y="82" on="0"/>
        <pt x="347" y="82" on="1"/>
        <pt x="404" y="82" on="0"/>
        <pt x="482" y="140" on="0"/>
        <pt x="505" y="191" on="1"/>
        <pt x="589" y="132" on="1"/>
        <pt x="574" y="103" on="0"/>
        <pt x="531" y="50" on="0"/>
        <pt x="472" y="11" on="0"/>
        <pt x="396" y="-12" on="0"/>
      </contour>
    </TTGlyph>
    <TTGlyph name="F" xMin="86" yMin="0" xMax="522" yMax="698">
      <contour>
        <pt x="86" y="0" on="1"/>
        <pt x="86" y="698" on="1"/>
        <pt x="522" y="698" on="1"/>
        <pt x="522" y="598" on="1"/>
        <pt x="199" y="598" on="1"/>
        <pt x="199" y="404" on="1"/>
        <pt x="486" y="404" on="1"/>
        <pt x="486" y="304" on="1"/>
        <pt x="199" y="304" on="1"/>
        <pt x="199" y="0" on="1"/>
      </contour>
    </TTGlyph>
    <TTGlyph name="G" xMin="55" yMin="-12" xMax="634" yMax="710">
      <contour>
        <pt x="535" y="106" on="1"/>
        <pt x="531" y="106" on="1"/>
        <pt x="520" y="55" on="0"/>
        <pt x="423" y="-12" on="0"/>
        <pt x="343" y="-12" on="1"/>
        <pt x="281" y="-12" on="0"/>
        <pt x="175" y="35" on="0"/>
        <pt x="98" y="126" on="0"/>
        <pt x="55" y="261" on="0"/>
        <pt x="55" y="349" on="1"/>
        <pt x="55" y="436" on="0"/>
        <pt x="99" y="571" on="0"/>
        <pt x="179" y="663" on="0"/>
        <pt x="291" y="710" on="0"/>
        <pt x="360" y="710" on="1"/>
        <pt x="454" y="710" on="0"/>
        <pt x="584" y="627" on="0"/>
        <pt x="620" y="553" on="1"/>
        <pt x="528" y="499" on="1"/>
        <pt x="508" y="548" on="0"/>
        <pt x="424" y="609" on="0"/>
        <pt x="360" y="609" on="1"/>
        <pt x="277" y="609" on="0"/>
        <pt x="176" y="503" on="0"/>
        <pt x="176" y="406" on="1"/>
        <pt x="176" y="292" on="1"/>
        <pt x="176" y="195" on="0"/>
        <pt x="277" y="89" on="0"/>
        <pt x="360" y="89" on="1"/>
        <pt x="393" y="89" on="0"/>
        <pt x="453" y="106" on="0"/>
        <pt x="498" y="139" on="0"/>
        <pt x="525" y="188" on="0"/>
        <pt x="525" y="221" on="1"/>
        <pt x="525" y="275" on="1"/>
        <pt x="381" y="275" on="1"/>
        <pt x="381" y="372" on="1"/>
        <pt x="634" y="372" on="1"/>
        <pt x="634" y="0" on="1"/>
        <pt x="535" y="0" on="1"/>
      </contour>
    </TTGlyph>
    <TTGlyph name="H" xMin="86" yMin="0" xMax="628" yMax="698">
      <contour>
        <pt x="515" y="304" on="1"/>
        <pt x="199" y="304" on="1"/>
        <pt x="199" y="0" on="1"/>
        <pt x="86" y="0" on="1"/>
        <pt x="86" y="698" on="1"/>
        <pt x="199" y="698" on="1"/>
        <pt x="199" y="404" on="1"/>
        <pt x="515" y="404" on="1"/>
        <pt x="515" y="698" on="1"/>
        <pt x="628" y="698" on="1"/>
        <pt x="628" y="0" on="1"/>
        <pt x="515" y="0" on="1"/>
      </contour>
    </TTGlyph>
    <TTGlyph name="I" xMin="56" yMin="0" xMax="360" yMax="698">
      <contour>
        <pt x="56" y="0" on="1"/>
        <pt x="56" y="92" on="1"/>
        <pt x="151" y="92" on="1"/>
        <pt x="151" y="606" on="1"/>
        <pt x="56" y="606" on="1"/>
        <pt x="56" y="698" on="1"/>
        <pt x="360" y="698" on="1"/>
        <pt x="360" y="606" on="1"/>
        <pt x="264" y="606" on="1"/>
        <pt x="264" y="92" on="1"/>
        <pt x="360" y="92" on="1"/>
        <pt x="360" y="0" on="1"/>
      </contour>
    </TTGlyph>
    <TTGlyph name="IJ" xMin="82" yMin="-12" xMax="568" yMax="698">
      <contour>
        <pt x="568" y="698" on="1"/>
        <pt x="568" y="219" on="1"/>
        <pt x="568" y="165" on="0"/>
        <pt x="534" y="80" on="0"/>
        <pt x="471" y="20" on="0"/>
        <pt x="381" y="-12" on="0"/>
        <pt x="325" y="-12" on="1"/>
        <pt x="272" y="-12" on="0"/>
        <pt x="191" y="15" on="0"/>
        <pt x="132" y="62" on="0"/>
        <pt x="95" y="128" on="0"/>
        <pt x="88" y="167" on="1"/>
        <pt x="192" y="190" on="1"/>
        <pt x="202" y="145" on="0"/>
        <pt x="267" y="89" on="0"/>
        <pt x="326" y="89" on="1"/>
        <pt x="383" y="89" on="0"/>
        <pt x="455" y="148" on="0"/>
        <pt x="455" y="213" on="1"/>
        <pt x="455" y="603" on="1"/>
        <pt x="331" y="603" on="1"/>
        <pt x="331" y="698" on="1"/>
      </contour>
      <contour>
        <pt x="82" y="698" on="1"/>
        <pt x="195" y="698" on="1"/>
        <pt x="195" y="298" on="1"/>
        <pt x="82" y="298" on="1"/>
      </contour>
    </TTGlyph>
    <TTGlyph name="Iacute" xMin="56" yMin="0" xMax="360" yMax="961">
      <component glyphName="I" x="0" y="0" flags="0x204"/>
      <component glyphName="acute.case" x="-92" y="0" flags="0x4"/>
    </TTGlyph>
    <TTGlyph name="Icircumflex" xMin="33" yMin="0" xMax="383" yMax="944">
      <component glyphName="I" x="0" y="0" flags="0x204"/>
      <component glyphName="circumflex.case" x="-92" y="0" flags="0x4"/>
    </TTGlyph>
    <TTGlyph name="Idieresis" xMin="45" yMin="0" xMax="371" yMax="902">
      <component glyphName="I" x="0" y="0" flags="0x204"/>
      <component glyphName="dieresis.case" x="-92" y="0" flags="0x4"/>
    </TTGlyph>
    <TTGlyph name="Igrave" xMin="56" yMin="0" xMax="360" yMax="961">
      <component glyphName="I" x="0" y="0" flags="0x204"/>
      <component glyphName="grave.case" x="-92" y="0" flags="0x4"/>
    </TTGlyph>
    <TTGlyph name="J" xMin="27" yMin="-12" xMax="449" yMax="698">
      <contour>
        <pt x="449" y="698" on="1"/>
        <pt x="449" y="190" on="1"/>
        <pt x="449" y="144" on="0"/>
        <pt x="419" y="70" on="0"/>
        <pt x="364" y="17" on="0"/>
        <pt x="285" y="-12" on="0"/>
        <pt x="237" y="-12" on="1"/>
        <pt x="146" y="-12" on="0"/>
        <pt x="41" y="85" on="0"/>
        <pt x="27" y="163" on="1"/>
        <pt x="131" y="186" on="1"/>
        <pt x="140" y="141" on="0"/>
        <pt x="191" y="89" on="0"/>
        <pt x="237" y="89" on="1"/>
        <pt x="282" y="89" on="0"/>
        <pt x="336" y="145" on="0"/>
        <pt x="336" y="202" on="1"/>
        <pt x="336" y="604" on="1"/>
        <pt x="108" y="604" on="1"/>
        <pt x="108" y="698" on="1"/>
      </contour>
    </TTGlyph>
    <TTGlyph name="K" xMin="86" yMin="0" xMax="643" yMax="698">
      <contour>
        <pt x="295" y="326" on="1"/>
        <pt x="199" y="216" on="1"/>
        <pt x="199" y="0" on="1"/>
        <pt x="86" y="0" on="1"/>
        <pt x="86" y="698" on="1"/>
        <pt x="199" y="698" on="1"/>
        <pt x="199" y="344" on="1"/>
        <pt x="203" y="344" on="1"/>
        <pt x="303" y="471" on="1"/>
        <pt x="491" y="698" on="1"/>
        <pt x="623" y="698" on="1"/>
        <pt x="374" y="404" on="1"/>
        <pt x="643" y="0" on="1"/>
        <pt x="507" y="0" on="1"/>
      </contour>
    </TTGlyph>
    <TTGlyph name="L" xMin="86" yMin="0" xMax="483" yMax="698">
      <contour>
        <pt x="86" y="0" on="1"/>
        <pt x="86" y="698" on="1"/>
        <pt x="199" y="698" on="1"/>
        <pt x="199" y="100" on="1"/>
        <pt x="483" y="100" on="1"/>
        <pt x="483" y="0" on="1"/>
      </contour>
    </TTGlyph>
    <TTGlyph name="Lslash" xMin="-7" yMin="0" xMax="487" yMax="698">
      <contour>
        <pt x="487" y="0" on="1"/>
        <pt x="90" y="0" on="1"/>
        <pt x="90" y="259" on="1"/>
        <pt x="-7" y="227" on="1"/>
        <pt x="-7" y="314" on="1"/>
        <pt x="90" y="346" on="1"/>
        <pt x="90" y="698" on="1"/>
        <pt x="203" y="698" on="1"/>
        <pt x="203" y="383" on="1"/>
        <pt x="374" y="440" on="1"/>
        <pt x="374" y="351" on="1"/>
        <pt x="203" y="295" on="1"/>
        <pt x="203" y="100" on="1"/>
        <pt x="487" y="100" on="1"/>
      </contour>
    </TTGlyph>
    <TTGlyph name="M" xMin="86" yMin="0" xMax="728" yMax="698">
      <contour>
        <pt x="620" y="534" on="1"/>
        <pt x="615" y="534" on="1"/>
        <pt x="560" y="421" on="1"/>
        <pt x="407" y="142" on="1"/>
        <pt x="254" y="421" on="1"/>
        <pt x="199" y="534" on="1"/>
        <pt x="194" y="534" on="1"/>
        <pt x="194" y="0" on="1"/>
        <pt x="86" y="0" on="1"/>
        <pt x="86" y="698" on="1"/>
        <pt x="220" y="698" on="1"/>
        <pt x="407" y="343" on="1"/>
        <pt x="413" y="343" on="1"/>
        <pt x="600" y="698" on="1"/>
        <pt x="728" y="698" on="1"/>
        <pt x="728" y="0" on="1"/>
        <pt x="620" y="0" on="1"/>
      </contour>
    </TTGlyph>
    <TTGlyph name="N" xMin="86" yMin="0" xMax="628" yMax="698">
      <contour>
        <pt x="274" y="386" on="1"/>
        <pt x="197" y="534" on="1"/>
        <pt x="194" y="534" on="1"/>
        <pt x="194" y="0" on="1"/>
        <pt x="86" y="0" on="1"/>
        <pt x="86" y="698" on="1"/>
        <pt x="212" y="698" on="1"/>
        <pt x="440" y="312" on="1"/>
        <pt x="517" y="164" on="1"/>
        <pt x="520" y="164" on="1"/>
        <pt x="520" y="698" on="1"/>
        <pt x="628" y="698" on="1"/>
        <pt x="628" y="0" on="1"/>
        <pt x="502" y="0" on="1"/>
      </contour>
    </TTGlyph>
    <TTGlyph name="Ntilde" xMin="86" yMin="0" xMax="628" yMax="904">
      <component glyphName="N" x="0" y="0" flags="0x204"/>
      <component glyphName="tilde.case" x="57" y="0" flags="0x4"/>
    </TTGlyph>
    <TTGlyph name="O" xMin="55" yMin="-12" xMax="657" yMax="710">
      <contour>
        <pt x="356" y="-12" on="1"/>
        <pt x="288" y="-12" on="0"/>
        <pt x="177" y="35" on="0"/>
        <pt x="98" y="126" on="0"/>
        <pt x="55" y="261" on="0"/>
        <pt x="55" y="349" on="1"/>
        <pt x="55" y="437" on="0"/>
        <pt x="98" y="572" on="0"/>
        <pt x="177" y="663" on="0"/>
        <pt x="288" y="710" on="0"/>
        <pt x="356" y="710" on="1"/>
        <pt x="424" y="710" on="0"/>
        <pt x="535" y="663" on="0"/>
        <pt x="614" y="572" on="0"/>
        <pt x="657" y="437" on="0"/>
        <pt x="657" y="349" on="1"/>
        <pt x="657" y="261" on="0"/>
        <pt x="614" y="126" on="0"/>
        <pt x="535" y="35" on="0"/>
        <pt x="424" y="-12" on="0"/>
      </contour>
      <contour>
        <pt x="356" y="89" on="1"/>
        <pt x="396" y="89" on="0"/>
        <pt x="463" y="117" on="0"/>
        <pt x="510" y="170" on="0"/>
        <pt x="536" y="246" on="0"/>
        <pt x="536" y="294" on="1"/>
        <pt x="536" y="404" on="1"/>
        <pt x="536" y="452" on="0"/>
        <pt x="510" y="528" on="0"/>
        <pt x="463" y="581" on="0"/>
        <pt x="396" y="609" on="0"/>
        <pt x="356" y="609" on="1"/>
        <pt x="315" y="609" on="0"/>
        <pt x="249" y="581" on="0"/>
        <pt x="202" y="528" on="0"/>
        <pt x="176" y="452" on="0"/>
        <pt x="176" y="404" on="1"/>
        <pt x="176" y="294" on="1"/>
        <pt x="176" y="246" on="0"/>
        <pt x="202" y="170" on="0"/>
        <pt x="249" y="117" on="0"/>
        <pt x="315" y="89" on="0"/>
      </contour>
    </TTGlyph>
    <TTGlyph name="OE" xMin="55" yMin="-12" xMax="930" yMax="710">
      <contour>
        <pt x="486" y="0" on="1"/>
        <pt x="460" y="-5" on="0"/>
        <pt x="395" y="-12" on="0"/>
        <pt x="363" y="-12" on="1"/>
        <pt x="292" y="-12" on="0"/>
        <pt x="178" y="34" on="0"/>
        <pt x="98" y="126" on="0"/>
        <pt x="55" y="260" on="0"/>
        <pt x="55" y="349" on="1"/>
        <pt x="55" y="437" on="0"/>
        <pt x="98" y="572" on="0"/>
        <pt x="178" y="664" on="0"/>
        <pt x="292" y="710" on="0"/>
        <pt x="363" y="710" on="1"/>
        <pt x="395" y="710" on="0"/>
        <pt x="461" y="703" on="0"/>
        <pt x="489" y="698" on="1"/>
        <pt x="930" y="698" on="1"/>
        <pt x="930" y="598" on="1"/>
        <pt x="596" y="598" on="1"/>
        <pt x="596" y="404" on="1"/>
        <pt x="899" y="404" on="1"/>
        <pt x="899" y="304" on="1"/>
        <pt x="596" y="304" on="1"/>
        <pt x="596" y="100" on="1"/>
        <pt x="930" y="100" on="1"/>
        <pt x="930" y="0" on="1"/>
      </contour>
      <contour>
        <pt x="369" y="89" on="1"/>
        <pt x="398" y="89" on="0"/>
        <pt x="457" y="95" on="0"/>
        <pt x="483" y="103" on="1"/>
        <pt x="483" y="595" on="1"/>
        <pt x="457" y="602" on="0"/>
        <pt x="398" y="609" on="0"/>
        <pt x="369" y="609" on="1"/>
        <pt x="272" y="609" on="0"/>
        <pt x="176" y="500" on="0"/>
        <pt x="176" y="404" on="1"/>
        <pt x="176" y="294" on="1"/>
        <pt x="176" y="198" on="0"/>
        <pt x="272" y="89" on="0"/>
      </contour>
    </TTGlyph>
    <TTGlyph name="Oacute" xMin="55" yMin="-12" xMax="657" yMax="961">
      <component glyphName="O" x="0" y="0" flags="0x204"/>
      <component glyphName="acute.case" x="56" y="0" flags="0x4"/>
    </TTGlyph>
    <TTGlyph name="Ocircumflex" xMin="55" yMin="-12" xMax="657" yMax="944">
      <component glyphName="O" x="0" y="0" flags="0x204"/>
      <component glyphName="circumflex.case" x="56" y="0" flags="0x4"/>
    </TTGlyph>
    <TTGlyph name="Odieresis" xMin="55" yMin="-12" xMax="657" yMax="902">
      <component glyphName="O" x="0" y="0" flags="0x204"/>
      <component glyphName="dieresis.case" x="56" y="0" flags="0x4"/>
    </TTGlyph>
    <TTGlyph name="Ograve" xMin="55" yMin="-12" xMax="657" yMax="961">
      <component glyphName="O" x="0" y="0" flags="0x204"/>
      <component glyphName="grave.case" x="56" y="0" flags="0x4"/>
    </TTGlyph>
    <TTGlyph name="Omega" xMin="55" yMin="0" xMax="665" yMax="710">
      <contour>
        <pt x="55" y="100" on="1"/>
        <pt x="214" y="100" on="1"/>
        <pt x="214" y="110" on="1"/>
        <pt x="146" y="144" on="0"/>
        <pt x="59" y="283" on="0"/>
        <pt x="59" y="387" on="1"/>
        <pt x="59" y="450" on="0"/>
        <pt x="96" y="567" on="0"/>
        <pt x="171" y="656" on="0"/>
        <pt x="284" y="710" on="0"/>
        <pt x="360" y="710" on="1"/>
        <pt x="436" y="710" on="0"/>
        <pt x="549" y="656" on="0"/>
        <pt x="624" y="567" on="0"/>
        <pt x="661" y="450" on="0"/>
        <pt x="661" y="387" on="1"/>
        <pt x="661" y="335" on="0"/>
        <pt x="638" y="248" on="0"/>
        <pt x="597" y="179" on="0"/>
        <pt x="540" y="127" on="0"/>
        <pt x="506" y="110" on="1"/>
        <pt x="506" y="100" on="1"/>
        <pt x="665" y="100" on="1"/>
        <pt x="665" y="0" on="1"/>
        <pt x="419" y="0" on="1"/>
        <pt x="419" y="151" on="1"/>
        <pt x="443" y="159" on="0"/>
        <pt x="487" y="197" on="0"/>
        <pt x="521" y="249" on="0"/>
        <pt x="541" y="312" on="0"/>
        <pt x="541" y="345" on="1"/>
        <pt x="541" y="431" on="1"/>
        <pt x="541" y="464" on="0"/>
        <pt x="516" y="528" on="0"/>
        <pt x="470" y="578" on="0"/>
        <pt x="403" y="609" on="0"/>
        <pt x="360" y="609" on="1"/>
        <pt x="317" y="609" on="0"/>
        <pt x="250" y="578" on="0"/>
        <pt x="203" y="528" on="0"/>
        <pt x="179" y="464" on="0"/>
        <pt x="179" y="431" on="1"/>
        <pt x="179" y="345" on="1"/>
        <pt x="179" y="312" on="0"/>
        <pt x="199" y="249" on="0"/>
        <pt x="233" y="197" on="0"/>
        <pt x="277" y="159" on="0"/>
        <pt x="301" y="151" on="1"/>
        <pt x="301" y="0" on="1"/>
        <pt x="55" y="0" on="1"/>
      </contour>
    </TTGlyph>
    <TTGlyph name="Oslash" xMin="55" yMin="-50" xMax="657" yMax="748">
      <contour>
        <pt x="356" y="-12" on="1"/>
        <pt x="261" y="-12" on="0"/>
        <pt x="193" y="32" on="1"/>
        <pt x="136" y="-50" on="1"/>
        <pt x="64" y="-3" on="1"/>
        <pt x="129" y="91" on="1"/>
        <pt x="94" y="136" on="0"/>
        <pt x="55" y="265" on="0"/>
        <pt x="55" y="349" on="1"/>
        <pt x="55" y="437" on="0"/>
        <pt x="98" y="572" on="0"/>
        <pt x="177" y="663" on="0"/>
        <pt x="288" y="710" on="0"/>
        <pt x="356" y="710" on="1"/>
        <pt x="451" y="710" on="0"/>
        <pt x="519" y="666" on="1"/>
        <pt x="576" y="748" on="1"/>
        <pt x="648" y="701" on="1"/>
        <pt x="583" y="607" on="1"/>
        <pt x="618" y="562" on="0"/>
        <pt x="657" y="433" on="0"/>
        <pt x="657" y="349" on="1"/>
        <pt x="657" y="261" on="0"/>
        <pt x="614" y="126" on="0"/>
        <pt x="535" y="35" on="0"/>
        <pt x="424" y="-12" on="0"/>
      </contour>
      <contour>
        <pt x="173" y="292" on="1"/>
        <pt x="173" y="229" on="0"/>
        <pt x="196" y="181" on="1"/>
        <pt x="464" y="580" on="1"/>
        <pt x="419" y="614" on="0"/>
        <pt x="356" y="614" on="1"/>
        <pt x="315" y="614" on="0"/>
        <pt x="247" y="585" on="0"/>
        <pt x="199" y="531" on="0"/>
        <pt x="173" y="454" on="0"/>
        <pt x="173" y="406" on="1"/>
      </contour>
      <contour>
        <pt x="539" y="406" on="1"/>
        <pt x="539" y="469" on="0"/>
        <pt x="516" y="517" on="1"/>
        <pt x="248" y="118" on="1"/>
        <pt x="293" y="84" on="0"/>
        <pt x="356" y="84" on="1"/>
        <pt x="397" y="84" on="0"/>
        <pt x="465" y="113" on="0"/>
        <pt x="513" y="167" on="0"/>
        <pt x="539" y="244" on="0"/>
        <pt x="539" y="292" on="1"/>
      </contour>
    </TTGlyph>
    <TTGlyph name="Otilde" xMin="55" yMin="-12" xMax="657" yMax="904">
      <component glyphName="O" x="0" y="0" flags="0x204"/>
      <component glyphName="tilde.case" x="56" y="0" flags="0x4"/>
    </TTGlyph>
    <TTGlyph name="P" xMin="86" yMin="0" xMax="589" yMax="698">
      <contour>
        <pt x="86" y="0" on="1"/>
        <pt x="86" y="698" on="1"/>
        <pt x="386" y="698" on="1"/>
        <pt x="483" y="698" on="0"/>
        <pt x="589" y="584" on="0"/>
        <pt x="589" y="488" on="1"/>
        <pt x="589" y="392" on="0"/>
        <pt x="483" y="278" on="0"/>
        <pt x="386" y="278" on="1"/>
        <pt x="199" y="278" on="1"/>
        <pt x="199" y="0" on="1"/>
      </contour>
      <contour>
        <pt x="199" y="377" on="1"/>
        <pt x="379" y="377" on="1"/>
        <pt x="422" y="377" on="0"/>
        <pt x="470" y="422" on="0"/>
        <pt x="470" y="464" on="1"/>
        <pt x="470" y="512" on="1"/>
        <pt x="470" y="554" on="0"/>
        <pt x="422" y="599" on="0"/>
        <pt x="379" y="599" on="1"/>
        <pt x="199" y="599" on="1"/>
      </contour>
    </TTGlyph>
    <TTGlyph name="Q" xMin="55" yMin="-173" xMax="657" yMax="710">
      <contour>
        <pt x="523" y="-173" on="1"/>
        <pt x="424" y="-173" on="1"/>
        <pt x="365" y="-173" on="0"/>
        <pt x="310" y="-113" on="0"/>
        <pt x="310" y="-62" on="1"/>
        <pt x="310" y="-9" on="1"/>
        <pt x="251" y="-2" on="0"/>
        <pt x="157" y="52" on="0"/>
        <pt x="91" y="142" on="0"/>
        <pt x="55" y="269" on="0"/>
        <pt x="55" y="349" on="1"/>
        <pt x="55" y="437" on="0"/>
        <pt x="98" y="572" on="0"/>
        <pt x="177" y="663" on="0"/>
        <pt x="288" y="710" on="0"/>
        <pt x="356" y="710" on="1"/>
        <pt x="424" y="710" on="0"/>
        <pt x="535" y="663" on="0"/>
        <pt x="614" y="572" on="0"/>
        <pt x="657" y="437" on="0"/>
        <pt x="657" y="349" on="1"/>
        <pt x="657" y="193" on="0"/>
        <pt x="527" y="12" on="0"/>
        <pt x="416" y="-7" on="1"/>
        <pt x="416" y="-79" on="1"/>
        <pt x="523" y="-79" on="1"/>
      </contour>
      <contour>
        <pt x="356" y="89" on="1"/>
        <pt x="396" y="89" on="0"/>
        <pt x="463" y="117" on="0"/>
        <pt x="510" y="170" on="0"/>
        <pt x="536" y="246" on="0"/>
        <pt x="536" y="294" on="1"/>
        <pt x="536" y="404" on="1"/>
        <pt x="536" y="452" on="0"/>
        <pt x="510" y="528" on="0"/>
        <pt x="463" y="581" on="0"/>
        <pt x="396" y="609" on="0"/>
        <pt x="356" y="609" on="1"/>
        <pt x="315" y="609" on="0"/>
        <pt x="249" y="581" on="0"/>
        <pt x="202" y="528" on="0"/>
        <pt x="176" y="452" on="0"/>
        <pt x="176" y="404" on="1"/>
        <pt x="176" y="294" on="1"/>
        <pt x="176" y="246" on="0"/>
        <pt x="202" y="170" on="0"/>
        <pt x="249" y="117" on="0"/>
        <pt x="315" y="89" on="0"/>
      </contour>
    </TTGlyph>
    <TTGlyph name="R" xMin="86" yMin="0" xMax="604" yMax="698">
      <contour>
        <pt x="199" y="0" on="1"/>
        <pt x="86" y="0" on="1"/>
        <pt x="86" y="698" on="1"/>
        <pt x="387" y="698" on="1"/>
        <pt x="481" y="698" on="0"/>
        <pt x="589" y="585" on="0"/>
        <pt x="589" y="488" on="1"/>
        <pt x="589" y="413" on="0"/>
        <pt x="520" y="314" on="0"/>
        <pt x="453" y="294" on="1"/>
        <pt x="604" y="0" on="1"/>
        <pt x="478" y="0" on="1"/>
        <pt x="338" y="282" on="1"/>
        <pt x="199" y="282" on="1"/>
      </contour>
      <contour>
        <pt x="379" y="377" on="1"/>
        <pt x="422" y="377" on="0"/>
        <pt x="470" y="422" on="0"/>
        <pt x="470" y="464" on="1"/>
        <pt x="470" y="512" on="1"/>
        <pt x="470" y="554" on="0"/>
        <pt x="422" y="599" on="0"/>
        <pt x="379" y="599" on="1"/>
        <pt x="199" y="599" on="1"/>
        <pt x="199" y="377" on="1"/>
      </contour>
    </TTGlyph>
    <TTGlyph name="S" xMin="40" yMin="-12" xMax="548" yMax="710">
      <contour>
        <pt x="295" y="-12" on="1"/>
        <pt x="207" y="-12" on="0"/>
        <pt x="84" y="52" on="0"/>
        <pt x="40" y="106" on="1"/>
        <pt x="118" y="179" on="1"/>
        <pt x="155" y="134" on="0"/>
        <pt x="244" y="88" on="0"/>
        <pt x="301" y="88" on="1"/>
        <pt x="368" y="88" on="0"/>
        <pt x="436" y="148" on="0"/>
        <pt x="436" y="199" on="1"/>
        <pt x="436" y="240" on="0"/>
        <pt x="388" y="288" on="0"/>
        <pt x="327" y="300" on="1"/>
        <pt x="265" y="311" on="1"/>
        <pt x="163" y="330" on="0"/>
        <pt x="61" y="426" on="0"/>
        <pt x="61" y="510" on="1"/>
        <pt x="61" y="556" on="0"/>
        <pt x="96" y="631" on="0"/>
        <pt x="159" y="682" on="0"/>
        <pt x="249" y="710" on="0"/>
        <pt x="305" y="710" on="1"/>
        <pt x="384" y="710" on="0"/>
        <pt x="500" y="655" on="0"/>
        <pt x="541" y="603" on="1"/>
        <pt x="462" y="533" on="1"/>
        <pt x="435" y="568" on="0"/>
        <pt x="357" y="610" on="0"/>
        <pt x="299" y="610" on="1"/>
        <pt x="239" y="610" on="0"/>
        <pt x="173" y="562" on="0"/>
        <pt x="173" y="516" on="1"/>
        <pt x="173" y="472" on="0"/>
        <pt x="227" y="429" on="0"/>
        <pt x="284" y="418" on="1"/>
        <pt x="346" y="405" on="1"/>
        <pt x="451" y="385" on="0"/>
        <pt x="548" y="289" on="0"/>
        <pt x="548" y="205" on="1"/>
        <pt x="548" y="156" on="0"/>
        <pt x="514" y="76" on="0"/>
        <pt x="449" y="19" on="0"/>
        <pt x="355" y="-12" on="0"/>
      </contour>
    </TTGlyph>
    <TTGlyph name="Scaron" xMin="40" yMin="-12" xMax="548" yMax="952">
      <component glyphName="S" x="0" y="0" flags="0x204"/>
      <component glyphName="caron.case" x="-4" y="0" flags="0x4"/>
    </TTGlyph>
    <TTGlyph name="T" xMin="24" yMin="0" xMax="553" yMax="698">
      <contour>
        <pt x="345" y="598" on="1"/>
        <pt x="345" y="0" on="1"/>
        <pt x="232" y="0" on="1"/>
        <pt x="232" y="598" on="1"/>
        <pt x="24" y="598" on="1"/>
        <pt x="24" y="698" on="1"/>
        <pt x="553" y="698" on="1"/>
        <pt x="553" y="598" on="1"/>
      </contour>
    </TTGlyph>
    <TTGlyph name="Thorn" xMin="86" yMin="0" xMax="589" yMax="698">
      <contour>
        <pt x="86" y="0" on="1"/>
        <pt x="86" y="698" on="1"/>
        <pt x="199" y="698" on="1"/>
        <pt x="199" y="564" on="1"/>
        <pt x="386" y="564" on="1"/>
        <pt x="434" y="564" on="0"/>
        <pt x="509" y="534" on="0"/>
        <pt x="562" y="479" on="0"/>
        <pt x="589" y="401" on="0"/>
        <pt x="589" y="354" on="1"/>
        <pt x="589" y="307" on="0"/>
        <pt x="562" y="229" on="0"/>
        <pt x="509" y="174" on="0"/>
        <pt x="434" y="144" on="0"/>
        <pt x="386" y="144" on="1"/>
        <pt x="199" y="144" on="1"/>
        <pt x="199" y="0" on="1"/>
      </contour>
      <contour>
        <pt x="199" y="243" on="1"/>
        <pt x="379" y="243" on="1"/>
        <pt x="422" y="243" on="0"/>
        <pt x="470" y="288" on="0"/>
        <pt x="470" y="330" on="1"/>
        <pt x="470" y="378" on="1"/>
        <pt x="470" y="420" on="0"/>
        <pt x="422" y="465" on="0"/>
        <pt x="379" y="465" on="1"/>
        <pt x="199" y="465" on="1"/>
      </contour>
    </TTGlyph>
    <TTGlyph name="U" xMin="82" yMin="-12" xMax="604" yMax="698">
      <contour>
        <pt x="193" y="698" on="1"/>
        <pt x="193" y="268" on="1"/>
        <pt x="193" y="179" on="0"/>
        <pt x="261" y="89" on="0"/>
        <pt x="343" y="89" on="1"/>
        <pt x="425" y="89" on="0"/>
        <pt x="493" y="179" on="0"/>
        <pt x="493" y="268" on="1"/>
        <pt x="493" y="698" on="1"/>
        <pt x="604" y="698" on="1"/>
        <pt x="604" y="286" on="1"/>
        <pt x="604" y="209" on="0"/>
        <pt x="576" y="97" on="0"/>
        <pt x="514" y="24" on="0"/>
        <pt x="415" y="-12" on="0"/>
        <pt x="343" y="-12" on="1"/>
        <pt x="271" y="-12" on="0"/>
        <pt x="172" y="24" on="0"/>
        <pt x="110" y="97" on="0"/>
        <pt x="82" y="209" on="0"/>
        <pt x="82" y="286" on="1"/>
        <pt x="82" y="698" on="1"/>
      </contour>
    </TTGlyph>
    <TTGlyph name="Uacute" xMin="82" yMin="-12" xMax="604" yMax="961">
      <component glyphName="U" x="0" y="0" flags="0x204"/>
      <component glyphName="acute.case" x="43" y="0" flags="0x4"/>
    </TTGlyph>
    <TTGlyph name="Ucircumflex" xMin="82" yMin="-12" xMax="604" yMax="944">
      <component glyphName="U" x="0" y="0" flags="0x204"/>
      <component glyphName="circumflex.case" x="43" y="0" flags="0x4"/>
    </TTGlyph>
    <TTGlyph name="Udieresis" xMin="82" yMin="-12" xMax="604" yMax="902">
      <component glyphName="U" x="0" y="0" flags="0x204"/>
      <component glyphName="dieresis.case" x="43" y="0" flags="0x4"/>
    </TTGlyph>
    <TTGlyph name="Ugrave" xMin="82" yMin="-12" xMax="604" yMax="961">
      <component glyphName="U" x="0" y="0" flags="0x204"/>
      <component glyphName="grave.case" x="43" y="0" flags="0x4"/>
    </TTGlyph>
    <TTGlyph name="V" xMin="18" yMin="0" xMax="610" yMax="698">
      <contour>
        <pt x="247" y="0" on="1"/>
        <pt x="18" y="698" on="1"/>
        <pt x="135" y="698" on="1"/>
        <pt x="246" y="353" on="1"/>
        <pt x="313" y="110" on="1"/>
        <pt x="317" y="110" on="1"/>
        <pt x="385" y="353" on="1"/>
        <pt x="496" y="698" on="1"/>
        <pt x="610" y="698" on="1"/>
        <pt x="378" y="0" on="1"/>
      </contour>
    </TTGlyph>
    <TTGlyph name="W" xMin="24" yMin="0" xMax="902" yMax="698">
      <contour>
        <pt x="189" y="0" on="1"/>
        <pt x="24" y="698" on="1"/>
        <pt x="139" y="698" on="1"/>
        <pt x="210" y="362" on="1"/>
        <pt x="259" y="130" on="1"/>
        <pt x="262" y="130" on="1"/>
        <pt x="318" y="362" on="1"/>
        <pt x="401" y="698" on="1"/>
        <pt x="527" y="698" on="1"/>
        <pt x="609" y="362" on="1"/>
        <pt x="664" y="131" on="1"/>
        <pt x="667" y="131" on="1"/>
        <pt x="718" y="362" on="1"/>
        <pt x="791" y="698" on="1"/>
        <pt x="902" y="698" on="1"/>
        <pt x="730" y="0" on="1"/>
        <pt x="603" y="0" on="1"/>
        <pt x="514" y="361" on="1"/>
        <pt x="462" y="573" on="1"/>
        <pt x="460" y="573" on="1"/>
        <pt x="407" y="361" on="1"/>
        <pt x="316" y="0" on="1"/>
      </contour>
    </TTGlyph>
    <TTGlyph name="X" xMin="21" yMin="0" xMax="618" yMax="698">
      <contour>
        <pt x="618" y="0" on="1"/>
        <pt x="485" y="0" on="1"/>
        <pt x="316" y="278" on="1"/>
        <pt x="313" y="278" on="1"/>
        <pt x="146" y="0" on="1"/>
        <pt x="21" y="0" on="1"/>
        <pt x="247" y="357" on="1"/>
        <pt x="29" y="698" on="1"/>
        <pt x="162" y="698" on="1"/>
        <pt x="321" y="438" on="1"/>
        <pt x="323" y="438" on="1"/>
        <pt x="484" y="698" on="1"/>
        <pt x="609" y="698" on="1"/>
        <pt x="389" y="358" on="1"/>
      </contour>
    </TTGlyph>
    <TTGlyph name="Y" xMin="11" yMin="0" xMax="606" yMax="698">
      <contour>
        <pt x="251" y="0" on="1"/>
        <pt x="251" y="275" on="1"/>
        <pt x="11" y="698" on="1"/>
        <pt x="140" y="698" on="1"/>
        <pt x="310" y="387" on="1"/>
        <pt x="313" y="387" on="1"/>
        <pt x="482" y="698" on="1"/>
        <pt x="606" y="698" on="1"/>
        <pt x="364" y="277" on="1"/>
        <pt x="364" y="0" on="1"/>
      </contour>
    </TTGlyph>
    <TTGlyph name="Yacute" xMin="11" yMin="0" xMax="606" yMax="961">
      <component glyphName="Y" x="0" y="0" flags="0x204"/>
      <component glyphName="acute.case" x="9" y="0" flags="0x4"/>
    </TTGlyph>
    <TTGlyph name="Ydieresis" xMin="11" yMin="0" xMax="606" yMax="902">
      <component glyphName="Y" x="0" y="0" flags="0x204"/>
      <component glyphName="dieresis.case" x="9" y="0" flags="0x4"/>
    </TTGlyph>
    <TTGlyph name="Z" xMin="37" yMin="0" xMax="554" yMax="698">
      <contour>
        <pt x="554" y="0" on="1"/>
        <pt x="37" y="0" on="1"/>
        <pt x="37" y="101" on="1"/>
        <pt x="416" y="598" on="1"/>
        <pt x="57" y="598" on="1"/>
        <pt x="57" y="698" on="1"/>
        <pt x="543" y="698" on="1"/>
        <pt x="543" y="597" on="1"/>
        <pt x="164" y="100" on="1"/>
        <pt x="554" y="100" on="1"/>
      </contour>
    </TTGlyph>
    <TTGlyph name="Zcaron" xMin="37" yMin="0" xMax="554" yMax="952">
      <component glyphName="Z" x="0" y="0" flags="0x204"/>
      <component glyphName="caron.case" x="0" y="0" flags="0x4"/>
    </TTGlyph>
    <TTGlyph name="a" xMin="40" yMin="-12" xMax="520" yMax="532">
      <contour>
        <pt x="459" y="0" on="1"/>
        <pt x="416" y="0" on="0"/>
        <pt x="370" y="49" on="0"/>
        <pt x="365" y="87" on="1"/>
        <pt x="360" y="87" on="1"/>
        <pt x="345" y="38" on="0"/>
        <pt x="265" y="-12" on="0"/>
        <pt x="208" y="-12" on="1"/>
        <pt x="127" y="-12" on="0"/>
        <pt x="40" y="72" on="0"/>
        <pt x="40" y="143" on="1"/>
        <pt x="40" y="221" on="0"/>
        <pt x="153" y="299" on="0"/>
        <pt x="262" y="299" on="1"/>
        <pt x="356" y="299" on="1"/>
        <pt x="356" y="343" on="1"/>
        <pt x="356" y="391" on="0"/>
        <pt x="304" y="443" on="0"/>
        <pt x="249" y="443" on="1"/>
        <pt x="203" y="443" on="0"/>
        <pt x="145" y="403" on="0"/>
        <pt x="125" y="372" on="1"/>
        <pt x="60" y="431" on="1"/>
        <pt x="86" y="475" on="0"/>
        <pt x="180" y="532" on="0"/>
        <pt x="256" y="532" on="1"/>
        <pt x="357" y="532" on="0"/>
        <pt x="465" y="438" on="0"/>
        <pt x="465" y="350" on="1"/>
        <pt x="465" y="89" on="1"/>
        <pt x="520" y="89" on="1"/>
        <pt x="520" y="0" on="1"/>
      </contour>
      <contour>
        <pt x="239" y="71" on="1"/>
        <pt x="290" y="71" on="0"/>
        <pt x="356" y="116" on="0"/>
        <pt x="356" y="154" on="1"/>
        <pt x="356" y="229" on="1"/>
        <pt x="264" y="229" on="1"/>
        <pt x="151" y="229" on="0"/>
        <pt x="151" y="159" on="1"/>
        <pt x="151" y="141" on="1"/>
        <pt x="151" y="106" on="0"/>
        <pt x="198" y="71" on="0"/>
      </contour>
    </TTGlyph>
    <TTGlyph name="a.alt01" xMin="47" yMin="-12" xMax="514" yMax="532">
      <contour>
        <pt x="405" y="86" on="1"/>
        <pt x="400" y="86" on="1"/>
        <pt x="383" y="40" on="0"/>
        <pt x="306" y="-12" on="0"/>
        <pt x="254" y="-12" on="1"/>
        <pt x="155" y="-12" on="0"/>
        <pt x="47" y="131" on="0"/>
        <pt x="47" y="260" on="1"/>
        <pt x="47" y="389" on="0"/>
        <pt x="155" y="532" on="0"/>
        <pt x="254" y="532" on="1"/>
        <pt x="306" y="532" on="0"/>
        <pt x="383" y="481" on="0"/>
        <pt x="400" y="434" on="1"/>
        <pt x="405" y="434" on="1"/>
        <pt x="405" y="520" on="1"/>
        <pt x="514" y="520" on="1"/>
        <pt x="514" y="0" on="1"/>
        <pt x="405" y="0" on="1"/>
      </contour>
      <contour>
        <pt x="287" y="82" on="1"/>
        <pt x="337" y="82" on="0"/>
        <pt x="405" y="131" on="0"/>
        <pt x="405" y="171" on="1"/>
        <pt x="405" y="349" on="1"/>
        <pt x="405" y="389" on="0"/>
        <pt x="337" y="438" on="0"/>
        <pt x="287" y="438" on="1"/>
        <pt x="230" y="438" on="0"/>
        <pt x="162" y="365" on="0"/>
        <pt x="162" y="305" on="1"/>
        <pt x="162" y="215" on="1"/>
        <pt x="162" y="155" on="0"/>
        <pt x="230" y="82" on="0"/>
      </contour>
    </TTGlyph>
    <TTGlyph name="aacute" xMin="40" yMin="-12" xMax="520" yMax="795">
      <component glyphName="a" x="0" y="0" flags="0x204"/>
      <component glyphName="acute" x="-40" y="0" flags="0x4"/>
    </TTGlyph>
    <TTGlyph name="aacute.alt01" xMin="47" yMin="-12" xMax="514" yMax="795">
      <component glyphName="a.alt01" x="0" y="0" flags="0x204"/>
      <component glyphName="acute" x="-5" y="0" flags="0x4"/>
    </TTGlyph>
    <TTGlyph name="acircumflex" xMin="40" yMin="-12" xMax="520" yMax="778">
      <component glyphName="a" x="0" y="0" flags="0x204"/>
      <component glyphName="circumflex" x="-40" y="0" flags="0x4"/>
    </TTGlyph>
    <TTGlyph name="acircumflex.alt01" xMin="47" yMin="-12" xMax="514" yMax="778">
      <component glyphName="a.alt01" x="0" y="0" flags="0x204"/>
      <component glyphName="circumflex" x="-5" y="0" flags="0x4"/>
    </TTGlyph>
    <TTGlyph name="acute" xMin="243" yMin="582" xMax="429" yMax="795">
      <contour>
        <pt x="311" y="582" on="1"/>
        <pt x="243" y="615" on="1"/>
        <pt x="334" y="795" on="1"/>
        <pt x="429" y="749" on="1"/>
      </contour>
    </TTGlyph>
    <TTGlyph name="acute.case" xMin="243" yMin="749" xMax="429" yMax="961">
      <contour>
        <pt x="311" y="749" on="1"/>
        <pt x="243" y="781" on="1"/>
        <pt x="334" y="961" on="1"/>
        <pt x="429" y="915" on="1"/>
      </contour>
    </TTGlyph>
    <TTGlyph name="adieresis" xMin="40" yMin="-12" xMax="520" yMax="734">
      <component glyphName="a" x="0" y="0" flags="0x204"/>
      <component glyphName="dieresis" x="-40" y="0" flags="0x4"/>
    </TTGlyph>
    <TTGlyph name="adieresis.alt01" xMin="47" yMin="-12" xMax="514" yMax="734">
      <component glyphName="a.alt01" x="0" y="0" flags="0x204"/>
      <component glyphName="dieresis" x="-5" y="0" flags="0x4"/>
    </TTGlyph>
    <TTGlyph name="ae" xMin="40" yMin="-12" xMax="822" yMax="532">
      <contour>
        <pt x="264" y="232" on="1"/>
        <pt x="151" y="230" on="0"/>
        <pt x="151" y="161" on="1"/>
        <pt x="151" y="143" on="1"/>
        <pt x="151" y="108" on="0"/>
        <pt x="198" y="71" on="0"/>
        <pt x="241" y="71" on="1"/>
        <pt x="289" y="71" on="0"/>
        <pt x="356" y="116" on="0"/>
        <pt x="356" y="154" on="1"/>
        <pt x="356" y="232" on="1"/>
      </contour>
      <contour>
        <pt x="707" y="304" on="1"/>
        <pt x="707" y="314" on="1"/>
        <pt x="707" y="374" on="0"/>
        <pt x="645" y="447" on="0"/>
        <pt x="591" y="447" on="1"/>
        <pt x="563" y="447" on="0"/>
        <pt x="516" y="427" on="0"/>
        <pt x="483" y="391" on="0"/>
        <pt x="465" y="341" on="0"/>
        <pt x="465" y="311" on="1"/>
        <pt x="465" y="304" on="1"/>
      </contour>
      <contour>
        <pt x="604" y="78" on="1"/>
        <pt x="652" y="78" on="0"/>
        <pt x="719" y="120" on="0"/>
        <pt x="740" y="155" on="1"/>
        <pt x="804" y="93" on="1"/>
        <pt x="775" y="45" on="0"/>
        <pt x="668" y="-12" on="0"/>
        <pt x="599" y="-12" on="1"/>
        <pt x="560" y="-12" on="0"/>
        <pt x="493" y="8" on="0"/>
        <pt x="442" y="40" on="0"/>
        <pt x="409" y="79" on="0"/>
        <pt x="402" y="98" on="1"/>
        <pt x="396" y="98" on="1"/>
        <pt x="391" y="80" on="0"/>
        <pt x="362" y="41" on="0"/>
        <pt x="316" y="9" on="0"/>
        <pt x="250" y="-12" on="0"/>
        <pt x="208" y="-12" on="1"/>
        <pt x="129" y="-12" on="0"/>
        <pt x="40" y="74" on="0"/>
        <pt x="40" y="143" on="1"/>
        <pt x="40" y="222" on="0"/>
        <pt x="156" y="304" on="0"/>
        <pt x="262" y="304" on="1"/>
        <pt x="356" y="304" on="1"/>
        <pt x="356" y="343" on="1"/>
        <pt x="356" y="391" on="0"/>
        <pt x="304" y="443" on="0"/>
        <pt x="250" y="443" on="1"/>
        <pt x="202" y="443" on="0"/>
        <pt x="145" y="404" on="0"/>
        <pt x="125" y="373" on="1"/>
        <pt x="60" y="431" on="1"/>
        <pt x="86" y="475" on="0"/>
        <pt x="180" y="532" on="0"/>
        <pt x="256" y="532" on="1"/>
        <pt x="292" y="532" on="0"/>
        <pt x="344" y="514" on="0"/>
        <pt x="381" y="486" on="0"/>
        <pt x="404" y="451" on="0"/>
        <pt x="412" y="434" on="1"/>
        <pt x="418" y="434" on="1"/>
        <pt x="426" y="452" on="0"/>
        <pt x="458" y="487" on="0"/>
        <pt x="503" y="515" on="0"/>
        <pt x="562" y="532" on="0"/>
        <pt x="597" y="532" on="1"/>
        <pt x="653" y="532" on="0"/>
        <pt x="737" y="492" on="0"/>
        <pt x="794" y="421" on="0"/>
        <pt x="822" y="327" on="0"/>
        <pt x="822" y="273" on="1"/>
        <pt x="822" y="232" on="1"/>
        <pt x="465" y="232" on="1"/>
        <pt x="465" y="215" on="1"/>
        <pt x="465" y="155" on="0"/>
        <pt x="538" y="78" on="0"/>
      </contour>
    </TTGlyph>
    <TTGlyph name="agrave" xMin="40" yMin="-12" xMax="520" yMax="795">
      <component glyphName="a" x="0" y="0" flags="0x204"/>
      <component glyphName="grave" x="-40" y="0" flags="0x4"/>
    </TTGlyph>
    <TTGlyph name="agrave.alt01" xMin="47" yMin="-12" xMax="514" yMax="795">
      <component glyphName="a.alt01" x="0" y="0" flags="0x204"/>
      <component glyphName="grave" x="-5" y="0" flags="0x4"/>
    </TTGlyph>
    <TTGlyph name="ampersand" xMin="63" yMin="-12" xMax="690" yMax="710">
      <contour>
        <pt x="489" y="71" on="1"/>
        <pt x="476" y="58" on="0"/>
        <pt x="439" y="29" on="0"/>
        <pt x="390" y="4" on="0"/>
        <pt x="327" y="-12" on="0"/>
        <pt x="287" y="-12" on="1"/>
        <pt x="233" y="-12" on="0"/>
        <pt x="149" y="18" on="0"/>
        <pt x="92" y="70" on="0"/>
        <pt x="63" y="141" on="0"/>
        <pt x="63" y="182" on="1"/>
        <pt x="63" y="219" on="0"/>
        <pt x="86" y="278" on="0"/>
        <pt x="125" y="325" on="0"/>
        <pt x="176" y="362" on="0"/>
        <pt x="205" y="378" on="1"/>
        <pt x="172" y="413" on="0"/>
        <pt x="126" y="495" on="0"/>
        <pt x="126" y="542" on="1"/>
        <pt x="126" y="577" on="0"/>
        <pt x="153" y="639" on="0"/>
        <pt x="203" y="684" on="0"/>
        <pt x="274" y="710" on="0"/>
        <pt x="317" y="710" on="1"/>
        <pt x="357" y="710" on="0"/>
        <pt x="425" y="688" on="0"/>
        <pt x="475" y="648" on="0"/>
        <pt x="502" y="591" on="0"/>
        <pt x="502" y="556" on="1"/>
        <pt x="502" y="522" on="0"/>
        <pt x="478" y="467" on="0"/>
        <pt x="436" y="422" on="0"/>
        <pt x="381" y="383" on="0"/>
        <pt x="350" y="365" on="1"/>
        <pt x="486" y="218" on="1"/>
        <pt x="500" y="254" on="0"/>
        <pt x="516" y="334" on="0"/>
        <pt x="518" y="375" on="1"/>
        <pt x="667" y="375" on="1"/>
        <pt x="667" y="283" on="1"/>
        <pt x="599" y="283" on="1"/>
        <pt x="584" y="207" on="0"/>
        <pt x="553" y="148" on="1"/>
        <pt x="690" y="0" on="1"/>
        <pt x="554" y="0" on="1"/>
      </contour>
      <contour>
        <pt x="317" y="623" on="1"/>
        <pt x="281" y="623" on="0"/>
        <pt x="231" y="580" on="0"/>
        <pt x="231" y="545" on="1"/>
        <pt x="231" y="537" on="1"/>
        <pt x="231" y="511" on="0"/>
        <pt x="264" y="459" on="0"/>
        <pt x="295" y="425" on="1"/>
        <pt x="337" y="448" on="0"/>
        <pt x="397" y="505" on="0"/>
        <pt x="397" y="542" on="1"/>
        <pt x="397" y="550" on="1"/>
        <pt x="397" y="585" on="0"/>
        <pt x="353" y="623" on="0"/>
      </contour>
      <contour>
        <pt x="300" y="81" on="1"/>
        <pt x="342" y="81" on="0"/>
        <pt x="406" y="109" on="0"/>
        <pt x="430" y="134" on="1"/>
        <pt x="260" y="317" on="1"/>
        <pt x="222" y="296" on="0"/>
        <pt x="175" y="244" on="0"/>
        <pt x="175" y="199" on="1"/>
        <pt x="175" y="186" on="1"/>
        <pt x="175" y="138" on="0"/>
        <pt x="241" y="81" on="0"/>
      </contour>
    </TTGlyph>
    <TTGlyph name="approxequal" xMin="58" yMin="120" xMax="542" yMax="492">
      <component glyphName="asciitilde" x="0" y="107" flags="0x204"/>
      <component glyphName="asciitilde" x="0" y="-106" flags="0x4"/>
    </TTGlyph>
    <TTGlyph name="aring" xMin="40" yMin="-12" xMax="520" yMax="822">
      <component glyphName="a" x="0" y="0" flags="0x204"/>
      <component glyphName="ring" x="-40" y="0" flags="0x4"/>
    </TTGlyph>
    <TTGlyph name="aring.alt01" xMin="47" yMin="-12" xMax="514" yMax="822">
      <component glyphName="a.alt01" x="0" y="0" flags="0x204"/>
      <component glyphName="ring" x="-5" y="0" flags="0x4"/>
    </TTGlyph>
    <TTGlyph name="asciicircum" xMin="47" yMin="288" xMax="553" yMax="698">
      <contour>
        <pt x="467" y="288" on="1"/>
        <pt x="300" y="587" on="1"/>
        <pt x="295" y="587" on="1"/>
        <pt x="129" y="288" on="1"/>
        <pt x="47" y="331" on="1"/>
        <pt x="250" y="698" on="1"/>
        <pt x="350" y="698" on="1"/>
        <pt x="553" y="331" on="1"/>
      </contour>
    </TTGlyph>
    <TTGlyph name="asciitilde" xMin="58" yMin="226" xMax="542" yMax="385">
      <contour>
        <pt x="418" y="226" on="1"/>
        <pt x="381" y="226" on="0"/>
        <pt x="324" y="245" on="0"/>
        <pt x="290" y="262" on="1"/>
        <pt x="262" y="276" on="0"/>
        <pt x="209" y="296" on="0"/>
        <pt x="178" y="296" on="1"/>
        <pt x="155" y="296" on="0"/>
        <pt x="120" y="282" on="0"/>
        <pt x="97" y="266" on="1"/>
        <pt x="58" y="327" on="1"/>
        <pt x="77" y="353" on="0"/>
        <pt x="135" y="385" on="0"/>
        <pt x="182" y="385" on="1"/>
        <pt x="219" y="385" on="0"/>
        <pt x="276" y="366" on="0"/>
        <pt x="310" y="349" on="1"/>
        <pt x="338" y="335" on="0"/>
        <pt x="391" y="315" on="0"/>
        <pt x="422" y="315" on="1"/>
        <pt x="445" y="315" on="0"/>
        <pt x="480" y="329" on="0"/>
        <pt x="503" y="345" on="1"/>
        <pt x="542" y="284" on="1"/>
        <pt x="523" y="258" on="0"/>
        <pt x="465" y="226" on="0"/>
      </contour>
    </TTGlyph>
    <TTGlyph name="asterisk" xMin="34" yMin="324" xMax="480" yMax="747">
      <contour>
        <pt x="163" y="324" on="1"/>
        <pt x="87" y="377" on="1"/>
        <pt x="193" y="509" on="1"/>
        <pt x="34" y="555" on="1"/>
        <pt x="63" y="642" on="1"/>
        <pt x="216" y="582" on="1"/>
        <pt x="209" y="747" on="1"/>
        <pt x="304" y="747" on="1"/>
        <pt x="297" y="582" on="1"/>
        <pt x="450" y="642" on="1"/>
        <pt x="480" y="555" on="1"/>
        <pt x="320" y="509" on="1"/>
        <pt x="426" y="377" on="1"/>
        <pt x="350" y="324" on="1"/>
        <pt x="256" y="464" on="1"/>
      </contour>
    </TTGlyph>
    <TTGlyph name="at" xMin="63" yMin="-121" xMax="835" yMax="708">
      <contour>
        <pt x="676" y="-121" on="1"/>
        <pt x="453" y="-121" on="1"/>
        <pt x="363" y="-121" on="0"/>
        <pt x="219" y="-62" on="0"/>
        <pt x="118" y="46" on="0"/>
        <pt x="63" y="197" on="0"/>
        <pt x="63" y="289" on="1"/>
        <pt x="63" y="381" on="0"/>
        <pt x="119" y="535" on="0"/>
        <pt x="222" y="646" on="0"/>
        <pt x="369" y="708" on="0"/>
        <pt x="459" y="708" on="1"/>
        <pt x="536" y="708" on="0"/>
        <pt x="673" y="661" on="0"/>
        <pt x="775" y="566" on="0"/>
        <pt x="835" y="424" on="0"/>
        <pt x="835" y="328" on="1"/>
        <pt x="835" y="273" on="0"/>
        <pt x="813" y="180" on="0"/>
        <pt x="768" y="112" on="0"/>
        <pt x="700" y="74" on="0"/>
        <pt x="655" y="74" on="1"/>
        <pt x="604" y="74" on="0"/>
        <pt x="548" y="123" on="0"/>
        <pt x="544" y="163" on="1"/>
        <pt x="539" y="163" on="1"/>
        <pt x="524" y="122" on="0"/>
        <pt x="465" y="74" on="0"/>
        <pt x="419" y="74" on="1"/>
        <pt x="385" y="74" on="0"/>
        <pt x="325" y="101" on="0"/>
        <pt x="280" y="154" on="0"/>
        <pt x="254" y="235" on="0"/>
        <pt x="254" y="289" on="1"/>
        <pt x="254" y="343" on="0"/>
        <pt x="280" y="424" on="0"/>
        <pt x="325" y="477" on="0"/>
        <pt x="385" y="504" on="0"/>
        <pt x="419" y="504" on="1"/>
        <pt x="465" y="504" on="0"/>
        <pt x="517" y="459" on="0"/>
        <pt x="528" y="427" on="1"/>
        <pt x="533" y="427" on="1"/>
        <pt x="533" y="495" on="1"/>
        <pt x="620" y="495" on="1"/>
        <pt x="620" y="205" on="1"/>
        <pt x="620" y="172" on="0"/>
        <pt x="645" y="146" on="0"/>
        <pt x="670" y="146" on="1"/>
        <pt x="712" y="146" on="0"/>
        <pt x="757" y="233" on="0"/>
        <pt x="757" y="314" on="1"/>
        <pt x="757" y="353" on="1"/>
        <pt x="757" y="418" on="0"/>
        <pt x="712" y="523" on="0"/>
        <pt x="632" y="596" on="0"/>
        <pt x="522" y="636" on="0"/>
        <pt x="458" y="636" on="1"/>
        <pt x="387" y="636" on="0"/>
        <pt x="270" y="587" on="0"/>
        <pt x="187" y="502" on="0"/>
        <pt x="141" y="385" on="0"/>
        <pt x="141" y="316" on="1"/>
        <pt x="141" y="266" on="1"/>
        <pt x="141" y="196" on="0"/>
        <pt x="186" y="81" on="0"/>
        <pt x="268" y="-2" on="0"/>
        <pt x="383" y="-48" on="0"/>
        <pt x="454" y="-48" on="1"/>
        <pt x="676" y="-48" on="1"/>
      </contour>
      <contour>
        <pt x="445" y="151" on="1"/>
        <pt x="487" y="151" on="0"/>
        <pt x="533" y="197" on="0"/>
        <pt x="533" y="233" on="1"/>
        <pt x="533" y="353" on="1"/>
        <pt x="533" y="385" on="0"/>
        <pt x="487" y="428" on="0"/>
        <pt x="445" y="428" on="1"/>
        <pt x="399" y="428" on="0"/>
        <pt x="351" y="373" on="0"/>
        <pt x="351" y="328" on="1"/>
        <pt x="351" y="251" on="1"/>
        <pt x="351" y="206" on="0"/>
        <pt x="399" y="151" on="0"/>
      </contour>
    </TTGlyph>
    <TTGlyph name="atilde" xMin="40" yMin="-12" xMax="520" yMax="738">
      <component glyphName="a" x="0" y="0" flags="0x204"/>
      <component glyphName="tilde" x="-40" y="0" flags="0x4"/>
    </TTGlyph>
    <TTGlyph name="atilde.alt01" xMin="47" yMin="-12" xMax="514" yMax="738">
      <component glyphName="a.alt01" x="0" y="0" flags="0x204"/>
      <component glyphName="tilde" x="-5" y="0" flags="0x4"/>
    </TTGlyph>
    <TTGlyph name="b" xMin="78" yMin="-12" xMax="545" yMax="740">
      <contour>
        <pt x="78" y="740" on="1"/>
        <pt x="187" y="740" on="1"/>
        <pt x="187" y="434" on="1"/>
        <pt x="192" y="434" on="1"/>
        <pt x="209" y="481" on="0"/>
        <pt x="286" y="532" on="0"/>
        <pt x="338" y="532" on="1"/>
        <pt x="437" y="532" on="0"/>
        <pt x="545" y="389" on="0"/>
        <pt x="545" y="260" on="1"/>
        <pt x="545" y="131" on="0"/>
        <pt x="437" y="-12" on="0"/>
        <pt x="338" y="-12" on="1"/>
        <pt x="286" y="-12" on="0"/>
        <pt x="209" y="40" on="0"/>
        <pt x="192" y="86" on="1"/>
        <pt x="187" y="86" on="1"/>
        <pt x="187" y="0" on="1"/>
        <pt x="78" y="0" on="1"/>
      </contour>
      <contour>
        <pt x="305" y="82" on="1"/>
        <pt x="362" y="82" on="0"/>
        <pt x="430" y="155" on="0"/>
        <pt x="430" y="215" on="1"/>
        <pt x="430" y="305" on="1"/>
        <pt x="430" y="365" on="0"/>
        <pt x="362" y="438" on="0"/>
        <pt x="305" y="438" on="1"/>
        <pt x="255" y="438" on="0"/>
        <pt x="187" y="389" on="0"/>
        <pt x="187" y="349" on="1"/>
        <pt x="187" y="171" on="1"/>
        <pt x="187" y="131" on="0"/>
        <pt x="255" y="82" on="0"/>
      </contour>
    </TTGlyph>
    <TTGlyph name="backslash" xMin="39" yMin="-151" xMax="410" yMax="740">
      <contour>
        <pt x="316" y="-151" on="1"/>
        <pt x="39" y="740" on="1"/>
        <pt x="133" y="740" on="1"/>
        <pt x="410" y="-151" on="1"/>
      </contour>
    </TTGlyph>
    <TTGlyph name="bar" xMin="130" yMin="-138" xMax="223" yMax="760">
      <contour>
        <pt x="130" y="-138" on="1"/>
        <pt x="130" y="760" on="1"/>
        <pt x="223" y="760" on="1"/>
        <pt x="223" y="-138" on="1"/>
      </contour>
    </TTGlyph>
    <TTGlyph name="braceleft" xMin="20" yMin="-138" xMax="298" yMax="760">
      <contour>
        <pt x="204" y="-138" on="1"/>
        <pt x="164" y="-138" on="0"/>
        <pt x="117" y="-89" on="0"/>
        <pt x="117" y="-48" on="1"/>
        <pt x="117" y="176" on="1"/>
        <pt x="117" y="220" on="0"/>
        <pt x="62" y="265" on="0"/>
        <pt x="20" y="265" on="1"/>
        <pt x="20" y="358" on="1"/>
        <pt x="62" y="358" on="0"/>
        <pt x="117" y="403" on="0"/>
        <pt x="117" y="446" on="1"/>
        <pt x="117" y="670" on="1"/>
        <pt x="117" y="711" on="0"/>
        <pt x="164" y="760" on="0"/>
        <pt x="204" y="760" on="1"/>
        <pt x="298" y="760" on="1"/>
        <pt x="298" y="679" on="1"/>
        <pt x="215" y="679" on="1"/>
        <pt x="215" y="444" on="1"/>
        <pt x="215" y="420" on="0"/>
        <pt x="200" y="378" on="0"/>
        <pt x="173" y="343" on="0"/>
        <pt x="137" y="320" on="0"/>
        <pt x="116" y="316" on="1"/>
        <pt x="116" y="306" on="1"/>
        <pt x="137" y="302" on="0"/>
        <pt x="173" y="279" on="0"/>
        <pt x="200" y="244" on="0"/>
        <pt x="215" y="202" on="0"/>
        <pt x="215" y="178" on="1"/>
        <pt x="215" y="-57" on="1"/>
        <pt x="298" y="-57" on="1"/>
        <pt x="298" y="-138" on="1"/>
      </contour>
    </TTGlyph>
    <TTGlyph name="braceright" xMin="56" yMin="-138" xMax="336" yMax="760">
      <contour>
        <pt x="150" y="760" on="1"/>
        <pt x="190" y="760" on="0"/>
        <pt x="239" y="711" on="0"/>
        <pt x="239" y="670" on="1"/>
        <pt x="239" y="446" on="1"/>
        <pt x="239" y="403" on="0"/>
        <pt x="294" y="358" on="0"/>
        <pt x="336" y="358" on="1"/>
        <pt x="336" y="265" on="1"/>
        <pt x="294" y="265" on="0"/>
        <pt x="239" y="220" on="0"/>
        <pt x="239" y="176" on="1"/>
        <pt x="239" y="-48" on="1"/>
        <pt x="239" y="-89" on="0"/>
        <pt x="190" y="-138" on="0"/>
        <pt x="150" y="-138" on="1"/>
        <pt x="56" y="-138" on="1"/>
        <pt x="56" y="-57" on="1"/>
        <pt x="141" y="-57" on="1"/>
        <pt x="141" y="178" on="1"/>
        <pt x="141" y="202" on="0"/>
        <pt x="156" y="244" on="0"/>
        <pt x="182" y="279" on="0"/>
        <pt x="218" y="302" on="0"/>
        <pt x="240" y="306" on="1"/>
        <pt x="240" y="316" on="1"/>
        <pt x="218" y="320" on="0"/>
        <pt x="182" y="343" on="0"/>
        <pt x="156" y="378" on="0"/>
        <pt x="141" y="420" on="0"/>
        <pt x="141" y="444" on="1"/>
        <pt x="141" y="679" on="1"/>
        <pt x="56" y="679" on="1"/>
        <pt x="56" y="760" on="1"/>
      </contour>
    </TTGlyph>
    <TTGlyph name="bracketleft" xMin="86" yMin="-138" xMax="269" yMax="760">
      <contour>
        <pt x="86" y="-138" on="1"/>
        <pt x="86" y="760" on="1"/>
        <pt x="269" y="760" on="1"/>
        <pt x="269" y="679" on="1"/>
        <pt x="184" y="679" on="1"/>
        <pt x="184" y="-57" on="1"/>
        <pt x="269" y="-57" on="1"/>
        <pt x="269" y="-138" on="1"/>
      </contour>
    </TTGlyph>
    <TTGlyph name="bracketright" xMin="56" yMin="-138" xMax="239" yMax="760">
      <contour>
        <pt x="239" y="760" on="1"/>
        <pt x="239" y="-138" on="1"/>
        <pt x="56" y="-138" on="1"/>
        <pt x="56" y="-57" on="1"/>
        <pt x="141" y="-57" on="1"/>
        <pt x="141" y="679" on="1"/>
        <pt x="56" y="679" on="1"/>
        <pt x="56" y="760" on="1"/>
      </contour>
    </TTGlyph>
    <TTGlyph name="breve" xMin="132" yMin="589" xMax="468" yMax="763">
      <contour>
        <pt x="300" y="589" on="1"/>
        <pt x="258" y="589" on="0"/>
        <pt x="201" y="617" on="0"/>
        <pt x="163" y="659" on="0"/>
        <pt x="140" y="710" on="0"/>
        <pt x="132" y="733" on="1"/>
        <pt x="192" y="763" on="1"/>
        <pt x="213" y="730" on="1"/>
        <pt x="230" y="702" on="0"/>
        <pt x="267" y="669" on="0"/>
        <pt x="300" y="669" on="1"/>
        <pt x="333" y="669" on="0"/>
        <pt x="370" y="702" on="0"/>
        <pt x="387" y="730" on="1"/>
        <pt x="408" y="763" on="1"/>
        <pt x="468" y="733" on="1"/>
        <pt x="460" y="710" on="0"/>
        <pt x="437" y="659" on="0"/>
        <pt x="399" y="617" on="0"/>
        <pt x="342" y="589" on="0"/>
      </contour>
    </TTGlyph>
    <TTGlyph name="breve.case" xMin="132" yMin="755" xMax="468" yMax="930">
      <contour>
        <pt x="300" y="755" on="1"/>
        <pt x="258" y="755" on="0"/>
        <pt x="201" y="783" on="0"/>
        <pt x="163" y="825" on="0"/>
        <pt x="139" y="876" on="0"/>
        <pt x="132" y="899" on="1"/>
        <pt x="192" y="930" on="1"/>
        <pt x="212" y="897" on="1"/>
        <pt x="229" y="868" on="0"/>
        <pt x="266" y="835" on="0"/>
        <pt x="300" y="835" on="1"/>
        <pt x="334" y="835" on="0"/>
        <pt x="371" y="868" on="0"/>
        <pt x="388" y="897" on="1"/>
        <pt x="408" y="930" on="1"/>
        <pt x="468" y="899" on="1"/>
        <pt x="460" y="876" on="0"/>
        <pt x="437" y="825" on="0"/>
        <pt x="399" y="783" on="0"/>
        <pt x="342" y="755" on="0"/>
      </contour>
    </TTGlyph>
    <TTGlyph name="brokenbar" xMin="130" yMin="-138" xMax="223" yMax="760">
      <contour>
        <pt x="130" y="404" on="1"/>
        <pt x="130" y="760" on="1"/>
        <pt x="223" y="760" on="1"/>
        <pt x="223" y="404" on="1"/>
      </contour>
      <contour>
        <pt x="130" y="-138" on="1"/>
        <pt x="130" y="218" on="1"/>
        <pt x="223" y="218" on="1"/>
        <pt x="223" y="-138" on="1"/>
      </contour>
    </TTGlyph>
    <TTGlyph name="bullet" xMin="70" yMin="165" xMax="340" yMax="428">
      <contour>
        <pt x="205" y="165" on="1"/>
        <pt x="168" y="165" on="0"/>
        <pt x="117" y="183" on="0"/>
        <pt x="85" y="214" on="0"/>
        <pt x="70" y="256" on="0"/>
        <pt x="70" y="281" on="1"/>
        <pt x="70" y="312" on="1"/>
        <pt x="70" y="337" on="0"/>
        <pt x="85" y="379" on="0"/>
        <pt x="117" y="410" on="0"/>
        <pt x="168" y="428" on="0"/>
        <pt x="205" y="428" on="1"/>
        <pt x="242" y="428" on="0"/>
        <pt x="293" y="410" on="0"/>
        <pt x="325" y="379" on="0"/>
        <pt x="340" y="337" on="0"/>
        <pt x="340" y="312" on="1"/>
        <pt x="340" y="281" on="1"/>
        <pt x="340" y="231" on="0"/>
        <pt x="278" y="165" on="0"/>
      </contour>
    </TTGlyph>
    <TTGlyph name="c" xMin="43" yMin="-12" xMax="484" yMax="532">
      <contour>
        <pt x="279" y="-12" on="1"/>
        <pt x="223" y="-12" on="0"/>
        <pt x="135" y="26" on="0"/>
        <pt x="75" y="97" on="0"/>
        <pt x="43" y="198" on="0"/>
        <pt x="43" y="260" on="1"/>
        <pt x="43" y="322" on="0"/>
        <pt x="75" y="423" on="0"/>
        <pt x="135" y="494" on="0"/>
        <pt x="223" y="532" on="0"/>
        <pt x="279" y="532" on="1"/>
        <pt x="357" y="532" on="0"/>
        <pt x="457" y="462" on="0"/>
        <pt x="480" y="404" on="1"/>
        <pt x="390" y="362" on="1"/>
        <pt x="379" y="398" on="0"/>
        <pt x="324" y="441" on="0"/>
        <pt x="279" y="441" on="1"/>
        <pt x="219" y="441" on="0"/>
        <pt x="158" y="366" on="0"/>
        <pt x="158" y="306" on="1"/>
        <pt x="158" y="213" on="1"/>
        <pt x="158" y="153" on="0"/>
        <pt x="219" y="78" on="0"/>
        <pt x="279" y="78" on="1"/>
        <pt x="327" y="78" on="0"/>
        <pt x="384" y="125" on="0"/>
        <pt x="401" y="164" on="1"/>
        <pt x="484" y="120" on="1"/>
        <pt x="458" y="56" on="0"/>
        <pt x="354" y="-12" on="0"/>
      </contour>
    </TTGlyph>
    <TTGlyph name="caron" xMin="125" yMin="594" xMax="475" yMax="786">
      <contour>
        <pt x="245" y="594" on="1"/>
        <pt x="125" y="744" on="1"/>
        <pt x="181" y="786" on="1"/>
        <pt x="300" y="670" on="1"/>
        <pt x="419" y="786" on="1"/>
        <pt x="475" y="744" on="1"/>
        <pt x="355" y="594" on="1"/>
      </contour>
    </TTGlyph>
    <TTGlyph name="caron.case" xMin="125" yMin="760" xMax="475" yMax="952">
      <contour>
        <pt x="245" y="760" on="1"/>
        <pt x="125" y="910" on="1"/>
        <pt x="181" y="952" on="1"/>
        <pt x="300" y="836" on="1"/>
        <pt x="419" y="952" on="1"/>
        <pt x="475" y="910" on="1"/>
        <pt x="355" y="760" on="1"/>
      </contour>
    </TTGlyph>
    <TTGlyph name="ccedilla" xMin="43" yMin="-209" xMax="484" yMax="532">
      <contour>
        <pt x="279" y="532" on="1"/>
        <pt x="357" y="532" on="0"/>
        <pt x="457" y="462" on="0"/>
        <pt x="480" y="404" on="1"/>
        <pt x="390" y="362" on="1"/>
        <pt x="379" y="398" on="0"/>
        <pt x="324" y="441" on="0"/>
        <pt x="279" y="441" on="1"/>
        <pt x="219" y="441" on="0"/>
        <pt x="158" y="366" on="0"/>
        <pt x="158" y="306" on="1"/>
        <pt x="158" y="213" on="1"/>
        <pt x="158" y="153" on="0"/>
        <pt x="219" y="78" on="0"/>
        <pt x="279" y="78" on="1"/>
        <pt x="327" y="78" on="0"/>
        <pt x="384" y="125" on="0"/>
        <pt x="401" y="164" on="1"/>
        <pt x="484" y="120" on="1"/>
        <pt x="460" y="60" on="0"/>
        <pt x="365" y="-7" on="0"/>
        <pt x="296" y="-12" on="1"/>
        <pt x="287" y="-58" on="1"/>
        <pt x="290" y="-62" on="1"/>
        <pt x="301" y="-59" on="0"/>
        <pt x="322" y="-55" on="0"/>
        <pt x="333" y="-55" on="1"/>
        <pt x="362" y="-55" on="0"/>
        <pt x="403" y="-88" on="0"/>
        <pt x="403" y="-123" on="1"/>
        <pt x="403" y="-146" on="0"/>
        <pt x="383" y="-178" on="0"/>
        <pt x="350" y="-199" on="0"/>
        <pt x="307" y="-209" on="0"/>
        <pt x="283" y="-209" on="1"/>
        <pt x="238" y="-209" on="0"/>
        <pt x="185" y="-181" on="0"/>
        <pt x="173" y="-167" on="1"/>
        <pt x="215" y="-119" on="1"/>
        <pt x="224" y="-131" on="0"/>
        <pt x="255" y="-148" on="0"/>
        <pt x="278" y="-148" on="1"/>
        <pt x="297" y="-148" on="0"/>
        <pt x="322" y="-134" on="0"/>
        <pt x="322" y="-119" on="1"/>
        <pt x="322" y="-107" on="0"/>
        <pt x="294" y="-84" on="0"/>
        <pt x="251" y="-79" on="1"/>
        <pt x="226" y="-76" on="1"/>
        <pt x="239" y="-9" on="1"/>
        <pt x="145" y="4" on="0"/>
        <pt x="43" y="146" on="0"/>
        <pt x="43" y="260" on="1"/>
        <pt x="43" y="322" on="0"/>
        <pt x="75" y="423" on="0"/>
        <pt x="135" y="494" on="0"/>
        <pt x="223" y="532" on="0"/>
      </contour>
    </TTGlyph>
    <TTGlyph name="cedilla" xMin="203" yMin="-209" xMax="433" yMax="24">
      <contour>
        <pt x="313" y="-209" on="1"/>
        <pt x="267" y="-209" on="0"/>
        <pt x="214" y="-181" on="0"/>
        <pt x="203" y="-167" on="1"/>
        <pt x="245" y="-119" on="1"/>
        <pt x="254" y="-131" on="0"/>
        <pt x="285" y="-148" on="0"/>
        <pt x="308" y="-148" on="1"/>
        <pt x="327" y="-148" on="0"/>
        <pt x="352" y="-134" on="0"/>
        <pt x="352" y="-119" on="1"/>
        <pt x="352" y="-107" on="0"/>
        <pt x="324" y="-84" on="0"/>
        <pt x="281" y="-79" on="1"/>
        <pt x="256" y="-76" on="1"/>
        <pt x="276" y="24" on="1"/>
        <pt x="333" y="24" on="1"/>
        <pt x="316" y="-58" on="1"/>
        <pt x="320" y="-62" on="1"/>
        <pt x="331" y="-59" on="0"/>
        <pt x="352" y="-55" on="0"/>
        <pt x="363" y="-55" on="1"/>
        <pt x="392" y="-55" on="0"/>
        <pt x="433" y="-88" on="0"/>
        <pt x="433" y="-123" on="1"/>
        <pt x="433" y="-146" on="0"/>
        <pt x="413" y="-178" on="0"/>
        <pt x="380" y="-199" on="0"/>
        <pt x="337" y="-209" on="0"/>
      </contour>
    </TTGlyph>
    <TTGlyph name="cent" xMin="44" yMin="-114" xMax="492" yMax="630">
      <contour>
        <pt x="235" y="-114" on="1"/>
        <pt x="235" y="-8" on="1"/>
        <pt x="144" y="7" on="0"/>
        <pt x="44" y="147" on="0"/>
        <pt x="44" y="258" on="1"/>
        <pt x="44" y="370" on="0"/>
        <pt x="144" y="510" on="0"/>
        <pt x="235" y="524" on="1"/>
        <pt x="235" y="630" on="1"/>
        <pt x="322" y="630" on="1"/>
        <pt x="322" y="526" on="1"/>
        <pt x="384" y="518" on="0"/>
        <pt x="464" y="454" on="0"/>
        <pt x="485" y="406" on="1"/>
        <pt x="403" y="361" on="1"/>
        <pt x="391" y="390" on="0"/>
        <pt x="348" y="430" on="0"/>
        <pt x="317" y="437" on="1"/>
        <pt x="317" y="79" on="1"/>
        <pt x="350" y="85" on="0"/>
        <pt x="399" y="127" on="0"/>
        <pt x="414" y="159" on="1"/>
        <pt x="492" y="111" on="1"/>
        <pt x="470" y="62" on="0"/>
        <pt x="385" y="-3" on="0"/>
        <pt x="322" y="-10" on="1"/>
        <pt x="322" y="-114" on="1"/>
      </contour>
      <contour>
        <pt x="153" y="215" on="1"/>
        <pt x="153" y="165" on="0"/>
        <pt x="196" y="93" on="0"/>
        <pt x="240" y="81" on="1"/>
        <pt x="240" y="435" on="1"/>
        <pt x="197" y="423" on="0"/>
        <pt x="153" y="352" on="0"/>
        <pt x="153" y="301" on="1"/>
      </contour>
    </TTGlyph>
    <TTGlyph name="circumflex" xMin="125" yMin="585" xMax="475" yMax="778">
      <contour>
        <pt x="355" y="778" on="1"/>
        <pt x="475" y="628" on="1"/>
        <pt x="419" y="585" on="1"/>
        <pt x="300" y="702" on="1"/>
        <pt x="181" y="585" on="1"/>
        <pt x="125" y="628" on="1"/>
        <pt x="245" y="778" on="1"/>
      </contour>
    </TTGlyph>
    <TTGlyph name="circumflex.case" xMin="125" yMin="752" xMax="475" yMax="944">
      <contour>
        <pt x="355" y="944" on="1"/>
        <pt x="475" y="794" on="1"/>
        <pt x="419" y="752" on="1"/>
        <pt x="300" y="868" on="1"/>
        <pt x="181" y="752" on="1"/>
        <pt x="125" y="794" on="1"/>
        <pt x="245" y="944" on="1"/>
      </contour>
    </TTGlyph>
    <TTGlyph name="colon" xMin="82" yMin="-12" xMax="228" yMax="532">
      <component glyphName="period" x="10" y="0" flags="0x4"/>
      <component glyphName="period" x="10" y="393" flags="0x4"/>
    </TTGlyph>
    <TTGlyph name="comma" xMin="39" yMin="-138" xMax="218" yMax="139">
      <contour>
        <pt x="145" y="139" on="1"/>
        <pt x="182" y="139" on="0"/>
        <pt x="218" y="101" on="0"/>
        <pt x="218" y="71" on="1"/>
        <pt x="218" y="55" on="1"/>
        <pt x="218" y="6" on="0"/>
        <pt x="165" y="-101" on="0"/>
        <pt x="120" y="-138" on="1"/>
        <pt x="39" y="-138" on="1"/>
        <pt x="71" y="-106" on="0"/>
        <pt x="113" y="-46" on="0"/>
        <pt x="124" y="-9" on="1"/>
        <pt x="98" y="-4" on="0"/>
        <pt x="72" y="31" on="0"/>
        <pt x="72" y="55" on="1"/>
        <pt x="72" y="71" on="1"/>
        <pt x="72" y="101" on="0"/>
        <pt x="108" y="139" on="0"/>
      </contour>
    </TTGlyph>
    <TTGlyph name="copyright" xMin="51" yMin="-11" xMax="731" yMax="709">
      <contour>
        <pt x="391" y="-11" on="1"/>
        <pt x="319" y="-11" on="0"/>
        <pt x="194" y="39" on="0"/>
        <pt x="103" y="132" on="0"/>
        <pt x="51" y="266" on="0"/>
        <pt x="51" y="349" on="1"/>
        <pt x="51" y="432" on="0"/>
        <pt x="103" y="566" on="0"/>
        <pt x="194" y="659" on="0"/>
        <pt x="319" y="709" on="0"/>
        <pt x="391" y="709" on="1"/>
        <pt x="463" y="709" on="0"/>
        <pt x="588" y="659" on="0"/>
        <pt x="679" y="566" on="0"/>
        <pt x="731" y="432" on="0"/>
        <pt x="731" y="349" on="1"/>
        <pt x="731" y="266" on="0"/>
        <pt x="679" y="132" on="0"/>
        <pt x="588" y="39" on="0"/>
        <pt x="463" y="-11" on="0"/>
      </contour>
      <contour>
        <pt x="391" y="50" on="1"/>
        <pt x="450" y="50" on="0"/>
        <pt x="549" y="91" on="0"/>
        <pt x="620" y="162" on="0"/>
        <pt x="660" y="260" on="0"/>
        <pt x="660" y="317" on="1"/>
        <pt x="660" y="381" on="1"/>
        <pt x="660" y="438" on="0"/>
        <pt x="620" y="536" on="0"/>
        <pt x="549" y="607" on="0"/>
        <pt x="450" y="648" on="0"/>
        <pt x="391" y="648" on="1"/>
        <pt x="332" y="648" on="0"/>
        <pt x="233" y="607" on="0"/>
        <pt x="162" y="536" on="0"/>
        <pt x="122" y="438" on="0"/>
        <pt x="122" y="381" on="1"/>
        <pt x="122" y="317" on="1"/>
        <pt x="122" y="260" on="0"/>
        <pt x="162" y="162" on="0"/>
        <pt x="233" y="91" on="0"/>
        <pt x="332" y="50" on="0"/>
      </contour>
      <contour>
        <pt x="399" y="146" on="1"/>
        <pt x="312" y="146" on="0"/>
        <pt x="216" y="256" on="0"/>
        <pt x="216" y="349" on="1"/>
        <pt x="216" y="442" on="0"/>
        <pt x="312" y="552" on="0"/>
        <pt x="399" y="552" on="1"/>
        <pt x="459" y="552" on="0"/>
        <pt x="533" y="498" on="0"/>
        <pt x="552" y="454" on="1"/>
        <pt x="477" y="415" on="1"/>
        <pt x="466" y="441" on="0"/>
        <pt x="430" y="472" on="0"/>
        <pt x="399" y="472" on="1"/>
        <pt x="360" y="472" on="0"/>
        <pt x="318" y="423" on="0"/>
        <pt x="318" y="384" on="1"/>
        <pt x="318" y="313" on="1"/>
        <pt x="318" y="274" on="0"/>
        <pt x="360" y="225" on="0"/>
        <pt x="399" y="225" on="1"/>
        <pt x="431" y="225" on="0"/>
        <pt x="471" y="258" on="0"/>
        <pt x="485" y="284" on="1"/>
        <pt x="559" y="245" on="1"/>
        <pt x="540" y="203" on="0"/>
        <pt x="463" y="146" on="0"/>
      </contour>
    </TTGlyph>
    <TTGlyph name="currency" xMin="15" yMin="55" xMax="605" yMax="643">
      <contour>
        <pt x="310" y="114" on="1"/>
        <pt x="269" y="114" on="0"/>
        <pt x="200" y="134" on="0"/>
        <pt x="174" y="152" on="1"/>
        <pt x="77" y="55" on="1"/>
        <pt x="15" y="116" on="1"/>
        <pt x="114" y="215" on="1"/>
        <pt x="82" y="271" on="0"/>
        <pt x="82" y="349" on="1"/>
        <pt x="82" y="427" on="0"/>
        <pt x="114" y="483" on="1"/>
        <pt x="15" y="582" on="1"/>
        <pt x="77" y="643" on="1"/>
        <pt x="174" y="546" on="1"/>
        <pt x="200" y="564" on="0"/>
        <pt x="269" y="584" on="0"/>
        <pt x="310" y="584" on="1"/>
        <pt x="351" y="584" on="0"/>
        <pt x="420" y="564" on="0"/>
        <pt x="446" y="546" on="1"/>
        <pt x="543" y="643" on="1"/>
        <pt x="605" y="582" on="1"/>
        <pt x="506" y="483" on="1"/>
        <pt x="538" y="427" on="0"/>
        <pt x="538" y="349" on="1"/>
        <pt x="538" y="271" on="0"/>
        <pt x="506" y="215" on="1"/>
        <pt x="605" y="116" on="1"/>
        <pt x="543" y="55" on="1"/>
        <pt x="446" y="152" on="1"/>
        <pt x="420" y="134" on="0"/>
        <pt x="351" y="114" on="0"/>
      </contour>
      <contour>
        <pt x="310" y="198" on="1"/>
        <pt x="364" y="198" on="0"/>
        <pt x="426" y="259" on="0"/>
        <pt x="426" y="319" on="1"/>
        <pt x="426" y="379" on="1"/>
        <pt x="426" y="439" on="0"/>
        <pt x="364" y="500" on="0"/>
        <pt x="310" y="500" on="1"/>
        <pt x="256" y="500" on="0"/>
        <pt x="194" y="439" on="0"/>
        <pt x="194" y="379" on="1"/>
        <pt x="194" y="319" on="1"/>
        <pt x="194" y="259" on="0"/>
        <pt x="256" y="198" on="0"/>
      </contour>
    </TTGlyph>
    <TTGlyph name="d" xMin="47" yMin="-12" xMax="514" yMax="740">
      <contour>
        <pt x="405" y="86" on="1"/>
        <pt x="400" y="86" on="1"/>
        <pt x="383" y="40" on="0"/>
        <pt x="306" y="-12" on="0"/>
        <pt x="254" y="-12" on="1"/>
        <pt x="155" y="-12" on="0"/>
        <pt x="47" y="131" on="0"/>
        <pt x="47" y="260" on="1"/>
        <pt x="47" y="389" on="0"/>
        <pt x="155" y="532" on="0"/>
        <pt x="254" y="532" on="1"/>
        <pt x="306" y="532" on="0"/>
        <pt x="383" y="481" on="0"/>
        <pt x="400" y="434" on="1"/>
        <pt x="405" y="434" on="1"/>
        <pt x="405" y="740" on="1"/>
        <pt x="514" y="740" on="1"/>
        <pt x="514" y="0" on="1"/>
        <pt x="405" y="0" on="1"/>
      </contour>
      <contour>
        <pt x="287" y="82" on="1"/>
        <pt x="337" y="82" on="0"/>
        <pt x="405" y="131" on="0"/>
        <pt x="405" y="171" on="1"/>
        <pt x="405" y="349" on="1"/>
        <pt x="405" y="389" on="0"/>
        <pt x="337" y="438" on="0"/>
        <pt x="287" y="438" on="1"/>
        <pt x="230" y="438" on="0"/>
        <pt x="162" y="365" on="0"/>
        <pt x="162" y="305" on="1"/>
        <pt x="162" y="215" on="1"/>
        <pt x="162" y="155" on="0"/>
        <pt x="230" y="82" on="0"/>
      </contour>
    </TTGlyph>
    <TTGlyph name="dagger" xMin="40" yMin="-200" xMax="500" yMax="740">
      <contour>
        <pt x="223" y="-200" on="1"/>
        <pt x="223" y="433" on="1"/>
        <pt x="40" y="433" on="1"/>
        <pt x="40" y="516" on="1"/>
        <pt x="223" y="516" on="1"/>
        <pt x="223" y="740" on="1"/>
        <pt x="317" y="740" on="1"/>
        <pt x="317" y="516" on="1"/>
        <pt x="500" y="516" on="1"/>
        <pt x="500" y="433" on="1"/>
        <pt x="317" y="433" on="1"/>
        <pt x="317" y="-200" on="1"/>
      </contour>
    </TTGlyph>
    <TTGlyph name="daggerdbl" xMin="44" yMin="-200" xMax="504" yMax="740">
      <contour>
        <pt x="227" y="-200" on="1"/>
        <pt x="227" y="24" on="1"/>
        <pt x="44" y="24" on="1"/>
        <pt x="44" y="107" on="1"/>
        <pt x="227" y="107" on="1"/>
        <pt x="227" y="433" on="1"/>
        <pt x="44" y="433" on="1"/>
        <pt x="44" y="516" on="1"/>
        <pt x="227" y="516" on="1"/>
        <pt x="227" y="740" on="1"/>
        <pt x="321" y="740" on="1"/>
        <pt x="321" y="516" on="1"/>
        <pt x="504" y="516" on="1"/>
        <pt x="504" y="433" on="1"/>
        <pt x="321" y="433" on="1"/>
        <pt x="321" y="107" on="1"/>
        <pt x="504" y="107" on="1"/>
        <pt x="504" y="24" on="1"/>
        <pt x="321" y="24" on="1"/>
        <pt x="321" y="-200" on="1"/>
      </contour>
    </TTGlyph>
    <TTGlyph name="degree" xMin="59" yMin="352" xMax="411" yMax="710">
      <contour>
        <pt x="235" y="352" on="1"/>
        <pt x="197" y="352" on="0"/>
        <pt x="133" y="379" on="0"/>
        <pt x="86" y="427" on="0"/>
        <pt x="59" y="493" on="0"/>
        <pt x="59" y="531" on="1"/>
        <pt x="59" y="569" on="0"/>
        <pt x="86" y="635" on="0"/>
        <pt x="133" y="683" on="0"/>
        <pt x="197" y="710" on="0"/>
        <pt x="235" y="710" on="1"/>
        <pt x="272" y="710" on="0"/>
        <pt x="337" y="683" on="0"/>
        <pt x="384" y="635" on="0"/>
        <pt x="411" y="569" on="0"/>
        <pt x="411" y="531" on="1"/>
        <pt x="411" y="493" on="0"/>
        <pt x="384" y="427" on="0"/>
        <pt x="337" y="379" on="0"/>
        <pt x="272" y="352" on="0"/>
      </contour>
      <contour>
        <pt x="235" y="430" on="1"/>
        <pt x="278" y="430" on="0"/>
        <pt x="327" y="488" on="0"/>
        <pt x="327" y="531" on="1"/>
        <pt x="327" y="574" on="0"/>
        <pt x="278" y="632" on="0"/>
        <pt x="235" y="632" on="1"/>
        <pt x="192" y="632" on="0"/>
        <pt x="143" y="574" on="0"/>
        <pt x="143" y="531" on="1"/>
        <pt x="143" y="488" on="0"/>
        <pt x="192" y="430" on="0"/>
      </contour>
    </TTGlyph>
    <TTGlyph name="dieresis" xMin="138" yMin="610" xMax="462" yMax="734">
      <contour>
        <pt x="200" y="610" on="1"/>
        <pt x="166" y="610" on="0"/>
        <pt x="138" y="640" on="0"/>
        <pt x="138" y="663" on="1"/>
        <pt x="138" y="681" on="1"/>
        <pt x="138" y="704" on="0"/>
        <pt x="166" y="734" on="0"/>
        <pt x="200" y="734" on="1"/>
        <pt x="234" y="734" on="0"/>
        <pt x="262" y="704" on="0"/>
        <pt x="262" y="681" on="1"/>
        <pt x="262" y="663" on="1"/>
        <pt x="262" y="640" on="0"/>
        <pt x="234" y="610" on="0"/>
      </contour>
      <contour>
        <pt x="400" y="610" on="1"/>
        <pt x="366" y="610" on="0"/>
        <pt x="338" y="640" on="0"/>
        <pt x="338" y="663" on="1"/>
        <pt x="338" y="681" on="1"/>
        <pt x="338" y="704" on="0"/>
        <pt x="366" y="734" on="0"/>
        <pt x="400" y="734" on="1"/>
        <pt x="434" y="734" on="0"/>
        <pt x="462" y="704" on="0"/>
        <pt x="462" y="681" on="1"/>
        <pt x="462" y="663" on="1"/>
        <pt x="462" y="640" on="0"/>
        <pt x="434" y="610" on="0"/>
      </contour>
    </TTGlyph>
    <TTGlyph name="dieresis.case" xMin="137" yMin="776" xMax="463" yMax="902">
      <contour>
        <pt x="200" y="776" on="1"/>
        <pt x="166" y="776" on="0"/>
        <pt x="137" y="807" on="0"/>
        <pt x="137" y="830" on="1"/>
        <pt x="137" y="848" on="1"/>
        <pt x="137" y="871" on="0"/>
        <pt x="166" y="902" on="0"/>
        <pt x="200" y="902" on="1"/>
        <pt x="234" y="902" on="0"/>
        <pt x="263" y="871" on="0"/>
        <pt x="263" y="848" on="1"/>
        <pt x="263" y="830" on="1"/>
        <pt x="263" y="807" on="0"/>
        <pt x="234" y="776" on="0"/>
      </contour>
      <contour>
        <pt x="400" y="776" on="1"/>
        <pt x="366" y="776" on="0"/>
        <pt x="337" y="807" on="0"/>
        <pt x="337" y="830" on="1"/>
        <pt x="337" y="848" on="1"/>
        <pt x="337" y="871" on="0"/>
        <pt x="366" y="902" on="0"/>
        <pt x="400" y="902" on="1"/>
        <pt x="434" y="902" on="0"/>
        <pt x="463" y="871" on="0"/>
        <pt x="463" y="848" on="1"/>
        <pt x="463" y="830" on="1"/>
        <pt x="463" y="807" on="0"/>
        <pt x="434" y="776" on="0"/>
      </contour>
    </TTGlyph>
    <TTGlyph name="divide" xMin="67" yMin="42" xMax="533" yMax="568">
      <contour>
        <pt x="67" y="261" on="1"/>
        <pt x="67" y="350" on="1"/>
        <pt x="533" y="350" on="1"/>
        <pt x="533" y="261" on="1"/>
      </contour>
      <contour>
        <pt x="300" y="42" on="1"/>
        <pt x="260" y="42" on="0"/>
        <pt x="227" y="76" on="0"/>
        <pt x="227" y="99" on="1"/>
        <pt x="227" y="122" on="1"/>
        <pt x="227" y="145" on="0"/>
        <pt x="260" y="179" on="0"/>
        <pt x="300" y="179" on="1"/>
        <pt x="340" y="179" on="0"/>
        <pt x="373" y="145" on="0"/>
        <pt x="373" y="122" on="1"/>
        <pt x="373" y="99" on="1"/>
        <pt x="373" y="76" on="0"/>
        <pt x="340" y="42" on="0"/>
      </contour>
      <contour>
        <pt x="300" y="431" on="1"/>
        <pt x="260" y="431" on="0"/>
        <pt x="227" y="465" on="0"/>
        <pt x="227" y="488" on="1"/>
        <pt x="227" y="511" on="1"/>
        <pt x="227" y="534" on="0"/>
        <pt x="260" y="568" on="0"/>
        <pt x="300" y="568" on="1"/>
        <pt x="340" y="568" on="0"/>
        <pt x="373" y="534" on="0"/>
        <pt x="373" y="511" on="1"/>
        <pt x="373" y="488" on="1"/>
        <pt x="373" y="465" on="0"/>
        <pt x="340" y="431" on="0"/>
      </contour>
    </TTGlyph>
    <TTGlyph name="dollar" xMin="43" yMin="-82" xMax="548" yMax="780">
      <contour>
        <pt x="261" y="-82" on="1"/>
        <pt x="261" y="4" on="1"/>
        <pt x="185" y="10" on="0"/>
        <pt x="81" y="72" on="0"/>
        <pt x="43" y="117" on="1"/>
        <pt x="116" y="183" on="1"/>
        <pt x="147" y="145" on="0"/>
        <pt x="220" y="99" on="0"/>
        <pt x="268" y="93" on="1"/>
        <pt x="268" y="317" on="1"/>
        <pt x="160" y="340" on="0"/>
        <pt x="64" y="433" on="0"/>
        <pt x="64" y="509" on="1"/>
        <pt x="64" y="589" on="0"/>
        <pt x="170" y="683" on="0"/>
        <pt x="261" y="693" on="1"/>
        <pt x="261" y="780" on="1"/>
        <pt x="346" y="780" on="1"/>
        <pt x="346" y="693" on="1"/>
        <pt x="410" y="687" on="0"/>
        <pt x="505" y="635" on="0"/>
        <pt x="540" y="590" on="1"/>
        <pt x="466" y="529" on="1"/>
        <pt x="444" y="558" on="0"/>
        <pt x="383" y="597" on="0"/>
        <pt x="340" y="604" on="1"/>
        <pt x="340" y="399" on="1"/>
        <pt x="399" y="386" on="0"/>
        <pt x="477" y="350" on="0"/>
        <pt x="526" y="305" on="0"/>
        <pt x="548" y="246" on="0"/>
        <pt x="548" y="207" on="1"/>
        <pt x="548" y="126" on="0"/>
        <pt x="443" y="18" on="0"/>
        <pt x="346" y="6" on="1"/>
        <pt x="346" y="-82" on="1"/>
      </contour>
      <contour>
        <pt x="443" y="200" on="1"/>
        <pt x="443" y="238" on="0"/>
        <pt x="399" y="287" on="0"/>
        <pt x="340" y="302" on="1"/>
        <pt x="340" y="94" on="1"/>
        <pt x="389" y="102" on="0"/>
        <pt x="443" y="158" on="0"/>
      </contour>
      <contour>
        <pt x="168" y="514" on="1"/>
        <pt x="168" y="472" on="0"/>
        <pt x="217" y="429" on="0"/>
        <pt x="268" y="415" on="1"/>
        <pt x="268" y="605" on="1"/>
        <pt x="220" y="598" on="0"/>
        <pt x="168" y="552" on="0"/>
      </contour>
    </TTGlyph>
    <TTGlyph name="dotaccent" xMin="233" yMin="605" xMax="367" yMax="737">
      <contour>
        <pt x="300" y="605" on="1"/>
        <pt x="264" y="605" on="0"/>
        <pt x="233" y="637" on="0"/>
        <pt x="233" y="662" on="1"/>
        <pt x="233" y="680" on="1"/>
        <pt x="233" y="705" on="0"/>
        <pt x="264" y="737" on="0"/>
        <pt x="300" y="737" on="1"/>
        <pt x="336" y="737" on="0"/>
        <pt x="367" y="705" on="0"/>
        <pt x="367" y="680" on="1"/>
        <pt x="367" y="662" on="1"/>
        <pt x="367" y="637" on="0"/>
        <pt x="336" y="605" on="0"/>
      </contour>
    </TTGlyph>
    <TTGlyph name="dotaccent.case" xMin="230" yMin="768" xMax="370" yMax="909">
      <contour>
        <pt x="300" y="768" on="1"/>
        <pt x="262" y="768" on="0"/>
        <pt x="230" y="802" on="0"/>
        <pt x="230" y="828" on="1"/>
        <pt x="230" y="849" on="1"/>
        <pt x="230" y="875" on="0"/>
        <pt x="262" y="909" on="0"/>
        <pt x="300" y="909" on="1"/>
        <pt x="338" y="909" on="0"/>
        <pt x="370" y="875" on="0"/>
        <pt x="370" y="849" on="1"/>
        <pt x="370" y="828" on="1"/>
        <pt x="370" y="802" on="0"/>
        <pt x="338" y="768" on="0"/>
      </contour>
    </TTGlyph>
    <TTGlyph name="dotlessi" xMin="78" yMin="0" xMax="187" yMax="520">
      <contour>
        <pt x="78" y="0" on="1"/>
        <pt x="78" y="520" on="1"/>
        <pt x="187" y="520" on="1"/>
        <pt x="187" y="0" on="1"/>
      </contour>
    </TTGlyph>
    <TTGlyph name="e" xMin="43" yMin="-12" xMax="513" yMax="532">
      <contour>
        <pt x="282" y="-12" on="1"/>
        <pt x="226" y="-12" on="0"/>
        <pt x="138" y="26" on="0"/>
        <pt x="76" y="97" on="0"/>
        <pt x="43" y="198" on="0"/>
        <pt x="43" y="260" on="1"/>
        <pt x="43" y="322" on="0"/>
        <pt x="76" y="423" on="0"/>
        <pt x="138" y="494" on="0"/>
        <pt x="226" y="532" on="0"/>
        <pt x="282" y="532" on="1"/>
        <pt x="339" y="532" on="0"/>
        <pt x="426" y="492" on="0"/>
        <pt x="484" y="421" on="0"/>
        <pt x="513" y="327" on="0"/>
        <pt x="513" y="273" on="1"/>
        <pt x="513" y="232" on="1"/>
        <pt x="156" y="232" on="1"/>
        <pt x="156" y="215" on="1"/>
        <pt x="156" y="155" on="0"/>
        <pt x="227" y="78" on="0"/>
        <pt x="293" y="78" on="1"/>
        <pt x="341" y="78" on="0"/>
        <pt x="407" y="120" on="0"/>
        <pt x="430" y="156" on="1"/>
        <pt x="494" y="93" on="1"/>
        <pt x="465" y="45" on="0"/>
        <pt x="355" y="-12" on="0"/>
      </contour>
      <contour>
        <pt x="282" y="447" on="1"/>
        <pt x="254" y="447" on="0"/>
        <pt x="207" y="427" on="0"/>
        <pt x="174" y="391" on="0"/>
        <pt x="156" y="341" on="0"/>
        <pt x="156" y="311" on="1"/>
        <pt x="156" y="304" on="1"/>
        <pt x="398" y="304" on="1"/>
        <pt x="398" y="314" on="1"/>
        <pt x="398" y="374" on="0"/>
        <pt x="336" y="447" on="0"/>
      </contour>
    </TTGlyph>
    <TTGlyph name="eacute" xMin="43" yMin="-12" xMax="513" yMax="795">
      <component glyphName="e" x="0" y="0" flags="0x204"/>
      <component glyphName="acute" x="-16" y="0" flags="0x4"/>
    </TTGlyph>
    <TTGlyph name="ecircumflex" xMin="43" yMin="-12" xMax="513" yMax="778">
      <component glyphName="e" x="0" y="0" flags="0x204"/>
      <component glyphName="circumflex" x="-16" y="0" flags="0x4"/>
    </TTGlyph>
    <TTGlyph name="edieresis" xMin="43" yMin="-12" xMax="513" yMax="734">
      <component glyphName="e" x="0" y="0" flags="0x204"/>
      <component glyphName="dieresis" x="-16" y="0" flags="0x4"/>
    </TTGlyph>
    <TTGlyph name="egrave" xMin="43" yMin="-12" xMax="513" yMax="795">
      <component glyphName="e" x="0" y="0" flags="0x204"/>
      <component glyphName="grave" x="-16" y="0" flags="0x4"/>
    </TTGlyph>
    <TTGlyph name="eight" xMin="50" yMin="-12" xMax="550" yMax="710">
      <contour>
        <pt x="300" y="-12" on="1"/>
        <pt x="239" y="-12" on="0"/>
        <pt x="146" y="19" on="0"/>
        <pt x="83" y="73" on="0"/>
        <pt x="50" y="147" on="0"/>
        <pt x="50" y="190" on="1"/>
        <pt x="50" y="260" on="0"/>
        <pt x="127" y="345" on="0"/>
        <pt x="190" y="362" on="1"/>
        <pt x="190" y="370" on="1"/>
        <pt x="136" y="389" on="0"/>
        <pt x="71" y="471" on="0"/>
        <pt x="71" y="531" on="1"/>
        <pt x="71" y="571" on="0"/>
        <pt x="102" y="637" on="0"/>
        <pt x="160" y="684" on="0"/>
        <pt x="246" y="710" on="0"/>
        <pt x="300" y="710" on="1"/>
        <pt x="354" y="710" on="0"/>
        <pt x="440" y="684" on="0"/>
        <pt x="498" y="637" on="0"/>
        <pt x="529" y="571" on="0"/>
        <pt x="529" y="531" on="1"/>
        <pt x="529" y="471" on="0"/>
        <pt x="464" y="389" on="0"/>
        <pt x="410" y="370" on="1"/>
        <pt x="410" y="362" on="1"/>
        <pt x="473" y="345" on="0"/>
        <pt x="550" y="260" on="0"/>
        <pt x="550" y="190" on="1"/>
        <pt x="550" y="147" on="0"/>
        <pt x="517" y="73" on="0"/>
        <pt x="454" y="19" on="0"/>
        <pt x="361" y="-12" on="0"/>
      </contour>
      <contour>
        <pt x="300" y="79" on="1"/>
        <pt x="363" y="79" on="0"/>
        <pt x="432" y="137" on="0"/>
        <pt x="432" y="189" on="1"/>
        <pt x="432" y="209" on="1"/>
        <pt x="432" y="261" on="0"/>
        <pt x="363" y="319" on="0"/>
        <pt x="300" y="319" on="1"/>
        <pt x="237" y="319" on="0"/>
        <pt x="168" y="261" on="0"/>
        <pt x="168" y="209" on="1"/>
        <pt x="168" y="189" on="1"/>
        <pt x="168" y="137" on="0"/>
        <pt x="237" y="79" on="0"/>
      </contour>
      <contour>
        <pt x="300" y="406" on="1"/>
        <pt x="358" y="406" on="0"/>
        <pt x="419" y="456" on="0"/>
        <pt x="419" y="504" on="1"/>
        <pt x="419" y="521" on="1"/>
        <pt x="419" y="569" on="0"/>
        <pt x="358" y="619" on="0"/>
        <pt x="300" y="619" on="1"/>
        <pt x="242" y="619" on="0"/>
        <pt x="181" y="569" on="0"/>
        <pt x="181" y="521" on="1"/>
        <pt x="181" y="504" on="1"/>
        <pt x="181" y="456" on="0"/>
        <pt x="242" y="406" on="0"/>
      </contour>
    </TTGlyph>
    <TTGlyph name="ellipsis" xMin="72" yMin="-12" xMax="774" yMax="139">
      <component glyphName="period" x="0" y="0" flags="0x4"/>
      <component glyphName="period" x="277" y="0" flags="0x4"/>
      <component glyphName="period" x="556" y="0" flags="0x4"/>
    </TTGlyph>
    <TTGlyph name="emdash" xMin="36" yMin="257" xMax="744" yMax="351">
      <contour>
        <pt x="36" y="257" on="1"/>
        <pt x="36" y="351" on="1"/>
        <pt x="744" y="351" on="1"/>
        <pt x="744" y="257" on="1"/>
      </contour>
    </TTGlyph>
    <TTGlyph name="endash" xMin="36" yMin="257" xMax="552" yMax="351">
      <contour>
        <pt x="36" y="257" on="1"/>
        <pt x="36" y="351" on="1"/>
        <pt x="552" y="351" on="1"/>
        <pt x="552" y="257" on="1"/>
      </contour>
    </TTGlyph>
    <TTGlyph name="equal" xMin="67" yMin="154" xMax="533" yMax="457">
      <contour>
        <pt x="67" y="368" on="1"/>
        <pt x="67" y="457" on="1"/>
        <pt x="533" y="457" on="1"/>
        <pt x="533" y="368" on="1"/>
      </contour>
      <contour>
        <pt x="67" y="154" on="1"/>
        <pt x="67" y="243" on="1"/>
        <pt x="533" y="243" on="1"/>
        <pt x="533" y="154" on="1"/>
      </contour>
    </TTGlyph>
    <TTGlyph name="eth" xMin="44" yMin="-12" xMax="525" yMax="753">
      <contour>
        <pt x="443" y="704" on="1"/>
        <pt x="367" y="653" on="1"/>
        <pt x="400" y="619" on="0"/>
        <pt x="458" y="538" on="0"/>
        <pt x="501" y="443" on="0"/>
        <pt x="525" y="335" on="0"/>
        <pt x="525" y="274" on="1"/>
        <pt x="525" y="201" on="0"/>
        <pt x="490" y="94" on="0"/>
        <pt x="427" y="23" on="0"/>
        <pt x="339" y="-12" on="0"/>
        <pt x="286" y="-12" on="1"/>
        <pt x="229" y="-12" on="0"/>
        <pt x="140" y="25" on="0"/>
        <pt x="77" y="94" on="0"/>
        <pt x="44" y="190" on="0"/>
        <pt x="44" y="249" on="1"/>
        <pt x="44" y="306" on="0"/>
        <pt x="74" y="399" on="0"/>
        <pt x="130" y="465" on="0"/>
        <pt x="210" y="502" on="0"/>
        <pt x="259" y="502" on="1"/>
        <pt x="311" y="502" on="0"/>
        <pt x="381" y="450" on="0"/>
        <pt x="400" y="404" on="1"/>
        <pt x="406" y="407" on="1"/>
        <pt x="394" y="460" on="0"/>
        <pt x="330" y="557" on="0"/>
        <pt x="285" y="600" on="1"/>
        <pt x="201" y="546" on="1"/>
        <pt x="162" y="595" on="1"/>
        <pt x="236" y="644" on="1"/>
        <pt x="202" y="671" on="0"/>
        <pt x="130" y="719" on="0"/>
        <pt x="93" y="740" on="1"/>
        <pt x="260" y="740" on="1"/>
        <pt x="274" y="731" on="0"/>
        <pt x="304" y="710" on="0"/>
        <pt x="319" y="697" on="1"/>
        <pt x="403" y="753" on="1"/>
      </contour>
      <contour>
        <pt x="285" y="75" on="1"/>
        <pt x="342" y="75" on="0"/>
        <pt x="411" y="148" on="0"/>
        <pt x="411" y="214" on="1"/>
        <pt x="411" y="276" on="1"/>
        <pt x="411" y="342" on="0"/>
        <pt x="342" y="415" on="0"/>
        <pt x="285" y="415" on="1"/>
        <pt x="228" y="415" on="0"/>
        <pt x="159" y="342" on="0"/>
        <pt x="159" y="276" on="1"/>
        <pt x="159" y="214" on="1"/>
        <pt x="159" y="148" on="0"/>
        <pt x="228" y="75" on="0"/>
      </contour>
    </TTGlyph>
    <TTGlyph name="exclam" xMin="76" yMin="-12" xMax="222" yMax="698">
      <contour>
        <pt x="124" y="200" on="1"/>
        <pt x="89" y="499" on="1"/>
        <pt x="89" y="698" on="1"/>
        <pt x="207" y="698" on="1"/>
        <pt x="207" y="499" on="1"/>
        <pt x="174" y="200" on="1"/>
      </contour>
      <contour>
        <pt x="149" y="-12" on="1"/>
        <pt x="111" y="-12" on="0"/>
        <pt x="76" y="25" on="0"/>
        <pt x="76" y="54" on="1"/>
        <pt x="76" y="71" on="1"/>
        <pt x="76" y="100" on="0"/>
        <pt x="111" y="137" on="0"/>
        <pt x="149" y="137" on="1"/>
        <pt x="187" y="137" on="0"/>
        <pt x="222" y="100" on="0"/>
        <pt x="222" y="71" on="1"/>
        <pt x="222" y="54" on="1"/>
        <pt x="222" y="25" on="0"/>
        <pt x="187" y="-12" on="0"/>
      </contour>
    </TTGlyph>
    <TTGlyph name="exclamdown" xMin="76" yMin="-178" xMax="222" yMax="532">
      <contour>
        <pt x="91" y="-178" on="1"/>
        <pt x="91" y="21" on="1"/>
        <pt x="124" y="320" on="1"/>
        <pt x="174" y="320" on="1"/>
        <pt x="209" y="21" on="1"/>
        <pt x="209" y="-178" on="1"/>
      </contour>
      <contour>
        <pt x="149" y="383" on="1"/>
        <pt x="111" y="383" on="0"/>
        <pt x="76" y="420" on="0"/>
        <pt x="76" y="449" on="1"/>
        <pt x="76" y="466" on="1"/>
        <pt x="76" y="495" on="0"/>
        <pt x="111" y="532" on="0"/>
        <pt x="149" y="532" on="1"/>
        <pt x="187" y="532" on="0"/>
        <pt x="222" y="495" on="0"/>
        <pt x="222" y="466" on="1"/>
        <pt x="222" y="449" on="1"/>
        <pt x="222" y="420" on="0"/>
        <pt x="187" y="383" on="0"/>
      </contour>
    </TTGlyph>
    <TTGlyph name="f" xMin="26" yMin="0" xMax="323" yMax="740">
      <contour>
        <pt x="105" y="431" on="1"/>
        <pt x="26" y="431" on="1"/>
        <pt x="26" y="520" on="1"/>
        <pt x="105" y="520" on="1"/>
        <pt x="105" y="606" on="1"/>
        <pt x="105" y="669" on="0"/>
        <pt x="171" y="740" on="0"/>
        <pt x="237" y="740" on="1"/>
        <pt x="323" y="740" on="1"/>
        <pt x="323" y="651" on="1"/>
        <pt x="214" y="651" on="1"/>
        <pt x="214" y="520" on="1"/>
        <pt x="323" y="520" on="1"/>
        <pt x="323" y="431" on="1"/>
        <pt x="214" y="431" on="1"/>
        <pt x="214" y="0" on="1"/>
        <pt x="105" y="0" on="1"/>
      </contour>
    </TTGlyph>
    <TTGlyph name="fi" xMin="26" yMin="0" xMax="533" yMax="744">
      <contour>
        <pt x="105" y="431" on="1"/>
        <pt x="26" y="431" on="1"/>
        <pt x="26" y="520" on="1"/>
        <pt x="105" y="520" on="1"/>
        <pt x="105" y="606" on="1"/>
        <pt x="105" y="669" on="0"/>
        <pt x="171" y="740" on="0"/>
        <pt x="237" y="740" on="1"/>
        <pt x="323" y="740" on="1"/>
        <pt x="323" y="651" on="1"/>
        <pt x="214" y="651" on="1"/>
        <pt x="214" y="520" on="1"/>
        <pt x="523" y="520" on="1"/>
        <pt x="523" y="0" on="1"/>
        <pt x="414" y="0" on="1"/>
        <pt x="414" y="431" on="1"/>
        <pt x="214" y="431" on="1"/>
        <pt x="214" y="0" on="1"/>
        <pt x="105" y="0" on="1"/>
      </contour>
      <contour>
        <pt x="469" y="613" on="1"/>
        <pt x="435" y="613" on="0"/>
        <pt x="404" y="645" on="0"/>
        <pt x="404" y="670" on="1"/>
        <pt x="404" y="687" on="1"/>
        <pt x="404" y="712" on="0"/>
        <pt x="435" y="744" on="0"/>
        <pt x="469" y="744" on="1"/>
        <pt x="503" y="744" on="0"/>
        <pt x="533" y="712" on="0"/>
        <pt x="533" y="687" on="1"/>
        <pt x="533" y="670" on="1"/>
        <pt x="533" y="645" on="0"/>
        <pt x="503" y="613" on="0"/>
      </contour>
    </TTGlyph>
    <TTGlyph name="five" xMin="64" yMin="-12" xMax="544" yMax="698">
      <contour>
        <pt x="508" y="600" on="1"/>
        <pt x="198" y="600" on="1"/>
        <pt x="180" y="353" on="1"/>
        <pt x="187" y="353" on="1"/>
        <pt x="199" y="374" on="0"/>
        <pt x="225" y="407" on="0"/>
        <pt x="259" y="431" on="0"/>
        <pt x="303" y="444" on="0"/>
        <pt x="333" y="444" on="1"/>
        <pt x="378" y="444" on="0"/>
        <pt x="455" y="414" on="0"/>
        <pt x="512" y="358" on="0"/>
        <pt x="544" y="277" on="0"/>
        <pt x="544" y="226" on="1"/>
        <pt x="544" y="174" on="0"/>
        <pt x="511" y="86" on="0"/>
        <pt x="447" y="23" on="0"/>
        <pt x="354" y="-12" on="0"/>
        <pt x="295" y="-12" on="1"/>
        <pt x="248" y="-12" on="0"/>
        <pt x="176" y="9" on="0"/>
        <pt x="121" y="44" on="0"/>
        <pt x="80" y="89" on="0"/>
        <pt x="64" y="113" on="1"/>
        <pt x="146" y="178" on="1"/>
        <pt x="159" y="157" on="0"/>
        <pt x="187" y="123" on="0"/>
        <pt x="223" y="97" on="0"/>
        <pt x="268" y="83" on="0"/>
        <pt x="297" y="83" on="1"/>
        <pt x="359" y="83" on="0"/>
        <pt x="426" y="151" on="0"/>
        <pt x="426" y="211" on="1"/>
        <pt x="426" y="223" on="1"/>
        <pt x="426" y="283" on="0"/>
        <pt x="359" y="351" on="0"/>
        <pt x="297" y="351" on="1"/>
        <pt x="252" y="351" on="0"/>
        <pt x="198" y="317" on="0"/>
        <pt x="179" y="296" on="1"/>
        <pt x="86" y="309" on="1"/>
        <pt x="112" y="698" on="1"/>
        <pt x="508" y="698" on="1"/>
      </contour>
    </TTGlyph>
    <TTGlyph name="fl" xMin="26" yMin="0" xMax="599" yMax="740">
      <component glyphName="f" x="0" y="0" flags="0x4"/>
      <component glyphName="l" x="340" y="0" flags="0x4"/>
    </TTGlyph>
    <TTGlyph name="florin" xMin="0" yMin="-134" xMax="465" yMax="698">
      <contour>
        <pt x="9" y="-45" on="1"/>
        <pt x="141" y="-45" on="1"/>
        <pt x="174" y="280" on="1"/>
        <pt x="47" y="280" on="1"/>
        <pt x="57" y="373" on="1"/>
        <pt x="183" y="373" on="1"/>
        <pt x="203" y="565" on="1"/>
        <pt x="209" y="624" on="0"/>
        <pt x="281" y="698" on="0"/>
        <pt x="349" y="698" on="1"/>
        <pt x="465" y="698" on="1"/>
        <pt x="455" y="609" on="1"/>
        <pt x="317" y="609" on="1"/>
        <pt x="292" y="373" on="1"/>
        <pt x="443" y="373" on="1"/>
        <pt x="434" y="280" on="1"/>
        <pt x="283" y="280" on="1"/>
        <pt x="255" y="-2" on="1"/>
        <pt x="249" y="-60" on="0"/>
        <pt x="177" y="-134" on="0"/>
        <pt x="109" y="-134" on="1"/>
        <pt x="0" y="-134" on="1"/>
      </contour>
    </TTGlyph>
    <TTGlyph name="four" xMin="35" yMin="0" xMax="561" yMax="698">
      <contour>
        <pt x="359" y="0" on="1"/>
        <pt x="359" y="136" on="1"/>
        <pt x="35" y="136" on="1"/>
        <pt x="35" y="233" on="1"/>
        <pt x="318" y="698" on="1"/>
        <pt x="466" y="698" on="1"/>
        <pt x="466" y="225" on="1"/>
        <pt x="561" y="225" on="1"/>
        <pt x="561" y="136" on="1"/>
        <pt x="466" y="136" on="1"/>
        <pt x="466" y="0" on="1"/>
      </contour>
      <contour>
        <pt x="131" y="225" on="1"/>
        <pt x="359" y="225" on="1"/>
        <pt x="359" y="595" on="1"/>
        <pt x="352" y="595" on="1"/>
      </contour>
    </TTGlyph>
    <TTGlyph name="fraction" xMin="-221" yMin="0" xMax="372" yMax="698">
      <contour>
        <pt x="-221" y="0" on="1"/>
        <pt x="284" y="698" on="1"/>
        <pt x="372" y="698" on="1"/>
        <pt x="-132" y="0" on="1"/>
      </contour>
    </TTGlyph>
    <TTGlyph name="g" xMin="34" yMin="-212" xMax="534" yMax="604">
      <contour>
        <pt x="534" y="-49" on="1"/>
        <pt x="534" y="-130" on="0"/>
        <pt x="410" y="-212" on="0"/>
        <pt x="270" y="-212" on="1"/>
        <pt x="206" y="-212" on="0"/>
        <pt x="117" y="-195" on="0"/>
        <pt x="60" y="-163" on="0"/>
        <pt x="34" y="-117" on="0"/>
        <pt x="34" y="-87" on="1"/>
        <pt x="34" y="-44" on="0"/>
        <pt x="81" y="4" on="0"/>
        <pt x="123" y="13" on="1"/>
        <pt x="123" y="24" on="1"/>
        <pt x="64" y="43" on="0"/>
        <pt x="64" y="104" on="1"/>
        <pt x="64" y="144" on="0"/>
        <pt x="118" y="187" on="0"/>
        <pt x="156" y="196" on="1"/>
        <pt x="156" y="200" on="1"/>
        <pt x="110" y="222" on="0"/>
        <pt x="61" y="301" on="0"/>
        <pt x="61" y="354" on="1"/>
        <pt x="61" y="434" on="0"/>
        <pt x="168" y="532" on="0"/>
        <pt x="268" y="532" on="1"/>
        <pt x="323" y="532" on="0"/>
        <pt x="362" y="516" on="1"/>
        <pt x="362" y="530" on="1"/>
        <pt x="362" y="565" on="0"/>
        <pt x="395" y="604" on="0"/>
        <pt x="430" y="604" on="1"/>
        <pt x="510" y="604" on="1"/>
        <pt x="510" y="516" on="1"/>
        <pt x="404" y="516" on="1"/>
        <pt x="404" y="495" on="1"/>
        <pt x="439" y="472" on="0"/>
        <pt x="477" y="399" on="0"/>
        <pt x="477" y="354" on="1"/>
        <pt x="477" y="275" on="0"/>
        <pt x="369" y="178" on="0"/>
        <pt x="269" y="178" on="1"/>
        <pt x="231" y="178" on="0"/>
        <pt x="201" y="186" on="1"/>
        <pt x="181" y="179" on="0"/>
        <pt x="151" y="154" on="0"/>
        <pt x="151" y="134" on="1"/>
        <pt x="151" y="113" on="0"/>
        <pt x="189" y="95" on="0"/>
        <pt x="224" y="95" on="1"/>
        <pt x="352" y="95" on="1"/>
        <pt x="448" y="95" on="0"/>
        <pt x="534" y="18" on="0"/>
      </contour>
      <contour>
        <pt x="432" y="-61" on="1"/>
        <pt x="432" y="-34" on="0"/>
        <pt x="391" y="-2" on="0"/>
        <pt x="337" y="-2" on="1"/>
        <pt x="161" y="-2" on="1"/>
        <pt x="125" y="-23" on="0"/>
        <pt x="125" y="-62" on="1"/>
        <pt x="125" y="-94" on="0"/>
        <pt x="176" y="-133" on="0"/>
        <pt x="237" y="-133" on="1"/>
        <pt x="305" y="-133" on="1"/>
        <pt x="432" y="-133" on="0"/>
      </contour>
      <contour>
        <pt x="269" y="257" on="1"/>
        <pt x="317" y="257" on="0"/>
        <pt x="370" y="300" on="0"/>
        <pt x="370" y="345" on="1"/>
        <pt x="370" y="365" on="1"/>
        <pt x="370" y="410" on="0"/>
        <pt x="317" y="453" on="0"/>
        <pt x="269" y="453" on="1"/>
        <pt x="221" y="453" on="0"/>
        <pt x="168" y="410" on="0"/>
        <pt x="168" y="365" on="1"/>
        <pt x="168" y="345" on="1"/>
        <pt x="168" y="300" on="0"/>
        <pt x="221" y="257" on="0"/>
      </contour>
    </TTGlyph>
    <TTGlyph name="g.alt01" xMin="47" yMin="-212" xMax="514" yMax="532">
      <contour>
        <pt x="514" y="23" on="1"/>
        <pt x="514" y="-88" on="0"/>
        <pt x="391" y="-212" on="0"/>
        <pt x="273" y="-212" on="1"/>
        <pt x="204" y="-212" on="0"/>
        <pt x="109" y="-171" on="0"/>
        <pt x="79" y="-139" on="1"/>
        <pt x="140" y="-68" on="1"/>
        <pt x="191" y="-122" on="0"/>
        <pt x="272" y="-122" on="1"/>
        <pt x="337" y="-122" on="0"/>
        <pt x="405" y="-51" on="0"/>
        <pt x="405" y="15" on="1"/>
        <pt x="405" y="90" on="1"/>
        <pt x="400" y="90" on="1"/>
        <pt x="383" y="44" on="0"/>
        <pt x="306" y="-8" on="0"/>
        <pt x="254" y="-8" on="1"/>
        <pt x="155" y="-8" on="0"/>
        <pt x="47" y="134" on="0"/>
        <pt x="47" y="262" on="1"/>
        <pt x="47" y="390" on="0"/>
        <pt x="155" y="532" on="0"/>
        <pt x="254" y="532" on="1"/>
        <pt x="306" y="532" on="0"/>
        <pt x="383" y="481" on="0"/>
        <pt x="400" y="434" on="1"/>
        <pt x="405" y="434" on="1"/>
        <pt x="405" y="520" on="1"/>
        <pt x="514" y="520" on="1"/>
      </contour>
      <contour>
        <pt x="287" y="86" on="1"/>
        <pt x="337" y="86" on="0"/>
        <pt x="405" y="135" on="0"/>
        <pt x="405" y="175" on="1"/>
        <pt x="405" y="349" on="1"/>
        <pt x="405" y="389" on="0"/>
        <pt x="337" y="438" on="0"/>
        <pt x="287" y="438" on="1"/>
        <pt x="230" y="438" on="0"/>
        <pt x="162" y="365" on="0"/>
        <pt x="162" y="305" on="1"/>
        <pt x="162" y="219" on="1"/>
        <pt x="162" y="159" on="0"/>
        <pt x="230" y="86" on="0"/>
      </contour>
    </TTGlyph>
    <TTGlyph name="g.alt02" xMin="34" yMin="-212" xMax="534" yMax="532">
      <contour>
        <pt x="534" y="-49" on="1"/>
        <pt x="534" y="-130" on="0"/>
        <pt x="410" y="-212" on="0"/>
        <pt x="270" y="-212" on="1"/>
        <pt x="206" y="-212" on="0"/>
        <pt x="117" y="-195" on="0"/>
        <pt x="60" y="-163" on="0"/>
        <pt x="34" y="-117" on="0"/>
        <pt x="34" y="-87" on="1"/>
        <pt x="34" y="-44" on="0"/>
        <pt x="81" y="4" on="0"/>
        <pt x="123" y="13" on="1"/>
        <pt x="123" y="24" on="1"/>
        <pt x="64" y="43" on="0"/>
        <pt x="64" y="104" on="1"/>
        <pt x="64" y="145" on="0"/>
        <pt x="119" y="187" on="0"/>
        <pt x="157" y="196" on="1"/>
        <pt x="157" y="200" on="1"/>
        <pt x="110" y="222" on="0"/>
        <pt x="61" y="301" on="0"/>
        <pt x="61" y="354" on="1"/>
        <pt x="61" y="434" on="0"/>
        <pt x="169" y="532" on="0"/>
        <pt x="268" y="532" on="1"/>
        <pt x="316" y="532" on="0"/>
        <pt x="355" y="520" on="1"/>
        <pt x="522" y="520" on="1"/>
        <pt x="522" y="441" on="1"/>
        <pt x="449" y="441" on="1"/>
        <pt x="477" y="405" on="0"/>
        <pt x="477" y="354" on="1"/>
        <pt x="477" y="275" on="0"/>
        <pt x="369" y="178" on="0"/>
        <pt x="269" y="178" on="1"/>
        <pt x="233" y="178" on="0"/>
        <pt x="201" y="186" on="1"/>
        <pt x="181" y="179" on="0"/>
        <pt x="151" y="154" on="0"/>
        <pt x="151" y="134" on="1"/>
        <pt x="151" y="113" on="0"/>
        <pt x="189" y="95" on="0"/>
        <pt x="224" y="95" on="1"/>
        <pt x="352" y="95" on="1"/>
        <pt x="448" y="95" on="0"/>
        <pt x="534" y="18" on="0"/>
      </contour>
      <contour>
        <pt x="269" y="257" on="1"/>
        <pt x="317" y="257" on="0"/>
        <pt x="370" y="300" on="0"/>
        <pt x="370" y="345" on="1"/>
        <pt x="370" y="365" on="1"/>
        <pt x="370" y="410" on="0"/>
        <pt x="317" y="453" on="0"/>
        <pt x="269" y="453" on="1"/>
        <pt x="221" y="453" on="0"/>
        <pt x="168" y="410" on="0"/>
        <pt x="168" y="365" on="1"/>
        <pt x="168" y="345" on="1"/>
        <pt x="168" y="300" on="0"/>
        <pt x="221" y="257" on="0"/>
      </contour>
      <contour>
        <pt x="432" y="-61" on="1"/>
        <pt x="432" y="-34" on="0"/>
        <pt x="391" y="-2" on="0"/>
        <pt x="337" y="-2" on="1"/>
        <pt x="161" y="-2" on="1"/>
        <pt x="125" y="-23" on="0"/>
        <pt x="125" y="-62" on="1"/>
        <pt x="125" y="-94" on="0"/>
        <pt x="176" y="-133" on="0"/>
        <pt x="237" y="-133" on="1"/>
        <pt x="305" y="-133" on="1"/>
        <pt x="432" y="-133" on="0"/>
      </contour>
    </TTGlyph>
    <TTGlyph name="germandbls" xMin="26" yMin="-12" xMax="636" yMax="752">
      <contour>
        <pt x="636" y="159" on="1"/>
        <pt x="636" y="119" on="0"/>
        <pt x="609" y="56" on="0"/>
        <pt x="561" y="12" on="0"/>
        <pt x="492" y="-12" on="0"/>
        <pt x="450" y="-12" on="1"/>
        <pt x="388" y="-12" on="0"/>
        <pt x="299" y="29" on="0"/>
        <pt x="269" y="68" on="1"/>
        <pt x="335" y="132" on="1"/>
        <pt x="383" y="74" on="0"/>
        <pt x="452" y="74" on="1"/>
        <pt x="490" y="74" on="0"/>
        <pt x="534" y="111" on="0"/>
        <pt x="534" y="146" on="1"/>
        <pt x="534" y="175" on="0"/>
        <pt x="504" y="210" on="0"/>
        <pt x="466" y="220" on="1"/>
        <pt x="435" y="228" on="1"/>
        <pt x="406" y="236" on="0"/>
        <pt x="358" y="259" on="0"/>
        <pt x="323" y="293" on="0"/>
        <pt x="303" y="342" on="0"/>
        <pt x="303" y="375" on="1"/>
        <pt x="303" y="440" on="0"/>
        <pt x="390" y="517" on="0"/>
        <pt x="465" y="525" on="1"/>
        <pt x="465" y="529" on="1"/>
        <pt x="465" y="666" on="0"/>
        <pt x="339" y="666" on="1"/>
        <pt x="214" y="666" on="0"/>
        <pt x="214" y="529" on="1"/>
        <pt x="214" y="0" on="1"/>
        <pt x="105" y="0" on="1"/>
        <pt x="105" y="431" on="1"/>
        <pt x="26" y="431" on="1"/>
        <pt x="26" y="520" on="1"/>
        <pt x="105" y="520" on="1"/>
        <pt x="105" y="524" on="1"/>
        <pt x="105" y="630" on="0"/>
        <pt x="229" y="752" on="0"/>
        <pt x="338" y="752" on="1"/>
        <pt x="391" y="752" on="0"/>
        <pt x="476" y="720" on="0"/>
        <pt x="536" y="662" on="0"/>
        <pt x="568" y="577" on="0"/>
        <pt x="568" y="525" on="1"/>
        <pt x="568" y="449" on="1"/>
        <pt x="517" y="449" on="1"/>
        <pt x="461" y="449" on="0"/>
        <pt x="405" y="419" on="0"/>
        <pt x="405" y="383" on="1"/>
        <pt x="405" y="351" on="0"/>
        <pt x="442" y="323" on="0"/>
        <pt x="477" y="313" on="1"/>
        <pt x="507" y="304" on="1"/>
        <pt x="573" y="287" on="0"/>
        <pt x="636" y="219" on="0"/>
      </contour>
    </TTGlyph>
    <TTGlyph name="germandbls.alt01" xMin="78" yMin="-200" xMax="556" yMax="740">
      <contour>
        <pt x="78" y="0" on="1"/>
        <pt x="78" y="608" on="1"/>
        <pt x="78" y="666" on="0"/>
        <pt x="142" y="740" on="0"/>
        <pt x="209" y="740" on="1"/>
        <pt x="335" y="740" on="1"/>
        <pt x="335" y="651" on="1"/>
        <pt x="184" y="651" on="1"/>
        <pt x="184" y="520" on="1"/>
        <pt x="522" y="520" on="1"/>
        <pt x="522" y="437" on="1"/>
        <pt x="365" y="219" on="1"/>
        <pt x="455" y="208" on="0"/>
        <pt x="556" y="110" on="0"/>
        <pt x="556" y="19" on="1"/>
        <pt x="556" y="-90" on="0"/>
        <pt x="419" y="-200" on="0"/>
        <pt x="302" y="-200" on="1"/>
        <pt x="239" y="-200" on="1"/>
        <pt x="239" y="-111" on="1"/>
        <pt x="296" y="-111" on="1"/>
        <pt x="372" y="-113" on="0"/>
        <pt x="443" y="-55" on="0"/>
        <pt x="443" y="8" on="1"/>
        <pt x="443" y="27" on="1"/>
        <pt x="443" y="89" on="0"/>
        <pt x="369" y="141" on="0"/>
        <pt x="287" y="141" on="1"/>
        <pt x="268" y="141" on="1"/>
        <pt x="268" y="229" on="1"/>
        <pt x="412" y="431" on="1"/>
        <pt x="184" y="431" on="1"/>
        <pt x="184" y="0" on="1"/>
      </contour>
    </TTGlyph>
    <TTGlyph name="grave" xMin="171" yMin="582" xMax="357" yMax="795">
      <contour>
        <pt x="171" y="749" on="1"/>
        <pt x="266" y="795" on="1"/>
        <pt x="357" y="615" on="1"/>
        <pt x="289" y="582" on="1"/>
      </contour>
    </TTGlyph>
    <TTGlyph name="grave.case" xMin="171" yMin="749" xMax="357" yMax="961">
      <contour>
        <pt x="171" y="915" on="1"/>
        <pt x="266" y="961" on="1"/>
        <pt x="357" y="781" on="1"/>
        <pt x="289" y="749" on="1"/>
      </contour>
    </TTGlyph>
    <TTGlyph name="greater" xMin="96" yMin="-8" xMax="504" yMax="582">
      <contour>
        <pt x="96" y="104" on="1"/>
        <pt x="395" y="284" on="1"/>
        <pt x="395" y="291" on="1"/>
        <pt x="96" y="470" on="1"/>
        <pt x="96" y="582" on="1"/>
        <pt x="504" y="328" on="1"/>
        <pt x="504" y="246" on="1"/>
        <pt x="96" y="-8" on="1"/>
      </contour>
    </TTGlyph>
    <TTGlyph name="greaterequal" xMin="96" yMin="0" xMax="504" yMax="599">
      <contour>
        <pt x="96" y="236" on="1"/>
        <pt x="386" y="361" on="1"/>
        <pt x="386" y="367" on="1"/>
        <pt x="96" y="494" on="1"/>
        <pt x="96" y="599" on="1"/>
        <pt x="504" y="408" on="1"/>
        <pt x="504" y="320" on="1"/>
        <pt x="96" y="131" on="1"/>
      </contour>
      <contour>
        <pt x="96" y="89" on="1"/>
        <pt x="504" y="89" on="1"/>
        <pt x="504" y="0" on="1"/>
        <pt x="96" y="0" on="1"/>
      </contour>
    </TTGlyph>
    <TTGlyph name="guillemotleft" xMin="37" yMin="67" xMax="481" yMax="491">
      <component glyphName="guilsinglleft" x="0" y="0" flags="0x4"/>
      <component glyphName="guilsinglleft" x="223" y="0" flags="0x4"/>
    </TTGlyph>
    <TTGlyph name="guillemotright" xMin="51" yMin="67" xMax="495" yMax="491">
      <component glyphName="guilsinglright" x="0" y="0" flags="0x4"/>
      <component glyphName="guilsinglright" x="223" y="0" flags="0x4"/>
    </TTGlyph>
    <TTGlyph name="guilsinglleft" xMin="37" yMin="67" xMax="258" yMax="491">
      <contour>
        <pt x="226" y="67" on="1"/>
        <pt x="37" y="230" on="1"/>
        <pt x="37" y="328" on="1"/>
        <pt x="226" y="491" on="1"/>
        <pt x="258" y="421" on="1"/>
        <pt x="129" y="279" on="1"/>
        <pt x="258" y="137" on="1"/>
      </contour>
    </TTGlyph>
    <TTGlyph name="guilsinglright" xMin="51" yMin="67" xMax="272" yMax="491">
      <contour>
        <pt x="51" y="137" on="1"/>
        <pt x="180" y="279" on="1"/>
        <pt x="51" y="421" on="1"/>
        <pt x="83" y="491" on="1"/>
        <pt x="272" y="328" on="1"/>
        <pt x="272" y="230" on="1"/>
        <pt x="83" y="67" on="1"/>
      </contour>
    </TTGlyph>
    <TTGlyph name="h" xMin="78" yMin="0" xMax="507" yMax="740">
      <contour>
        <pt x="78" y="740" on="1"/>
        <pt x="187" y="740" on="1"/>
        <pt x="187" y="434" on="1"/>
        <pt x="192" y="434" on="1"/>
        <pt x="209" y="476" on="0"/>
        <pt x="278" y="532" on="0"/>
        <pt x="338" y="532" on="1"/>
        <pt x="418" y="532" on="0"/>
        <pt x="507" y="427" on="0"/>
        <pt x="507" y="330" on="1"/>
        <pt x="507" y="0" on="1"/>
        <pt x="398" y="0" on="1"/>
        <pt x="398" y="317" on="1"/>
        <pt x="398" y="438" on="0"/>
        <pt x="300" y="438" on="1"/>
        <pt x="279" y="438" on="0"/>
        <pt x="238" y="427" on="0"/>
        <pt x="206" y="405" on="0"/>
        <pt x="187" y="371" on="0"/>
        <pt x="187" y="349" on="1"/>
        <pt x="187" y="0" on="1"/>
        <pt x="78" y="0" on="1"/>
      </contour>
    </TTGlyph>
    <TTGlyph name="hungarumlaut" xMin="158" yMin="583" xMax="517" yMax="793">
      <contour>
        <pt x="220" y="583" on="1"/>
        <pt x="158" y="612" on="1"/>
        <pt x="249" y="793" on="1"/>
        <pt x="338" y="749" on="1"/>
      </contour>
      <contour>
        <pt x="399" y="583" on="1"/>
        <pt x="337" y="612" on="1"/>
        <pt x="428" y="793" on="1"/>
        <pt x="517" y="749" on="1"/>
      </contour>
    </TTGlyph>
    <TTGlyph name="hyphen" xMin="62" yMin="249" xMax="339" yMax="360">
      <contour>
        <pt x="62" y="249" on="1"/>
        <pt x="62" y="360" on="1"/>
        <pt x="339" y="360" on="1"/>
        <pt x="339" y="249" on="1"/>
      </contour>
    </TTGlyph>
    <TTGlyph name="i" xMin="68" yMin="0" xMax="197" yMax="744">
      <contour>
        <pt x="133" y="613" on="1"/>
        <pt x="99" y="613" on="0"/>
        <pt x="68" y="645" on="0"/>
        <pt x="68" y="670" on="1"/>
        <pt x="68" y="687" on="1"/>
        <pt x="68" y="712" on="0"/>
        <pt x="99" y="744" on="0"/>
        <pt x="133" y="744" on="1"/>
        <pt x="167" y="744" on="0"/>
        <pt x="197" y="712" on="0"/>
        <pt x="197" y="687" on="1"/>
        <pt x="197" y="670" on="1"/>
        <pt x="197" y="645" on="0"/>
        <pt x="167" y="613" on="0"/>
      </contour>
      <contour>
        <pt x="78" y="520" on="1"/>
        <pt x="187" y="520" on="1"/>
        <pt x="187" y="0" on="1"/>
        <pt x="78" y="0" on="1"/>
      </contour>
    </TTGlyph>
    <TTGlyph name="iacute" xMin="77" yMin="0" xMax="263" yMax="795">
      <component glyphName="dotlessi" x="0" y="0" flags="0x204"/>
      <component glyphName="acute" x="-166" y="0" flags="0x4"/>
    </TTGlyph>
    <TTGlyph name="icircumflex" xMin="-41" yMin="0" xMax="309" yMax="778">
      <component glyphName="dotlessi" x="0" y="0" flags="0x204"/>
      <component glyphName="circumflex" x="-166" y="0" flags="0x4"/>
    </TTGlyph>
    <TTGlyph name="idieresis" xMin="-28" yMin="0" xMax="296" yMax="734">
      <component glyphName="dotlessi" x="0" y="0" flags="0x204"/>
      <component glyphName="dieresis" x="-166" y="0" flags="0x4"/>
    </TTGlyph>
    <TTGlyph name="igrave" xMin="5" yMin="0" xMax="191" yMax="795">
      <component glyphName="dotlessi" x="0" y="0" flags="0x204"/>
      <component glyphName="grave" x="-166" y="0" flags="0x4"/>
    </TTGlyph>
    <TTGlyph name="ij" xMin="68" yMin="-200" xMax="458" yMax="744">
      <component glyphName="i" x="0" y="0" flags="0x4"/>
      <component glyphName="j" x="261" y="0" flags="0x4"/>
    </TTGlyph>
    <TTGlyph name="infinity" xMin="18" yMin="102" xMax="744" yMax="496">
      <contour>
        <pt x="206" y="102" on="1"/>
        <pt x="162" y="102" on="0"/>
        <pt x="93" y="130" on="0"/>
        <pt x="44" y="182" on="0"/>
        <pt x="18" y="255" on="0"/>
        <pt x="18" y="299" on="1"/>
        <pt x="18" y="343" on="0"/>
        <pt x="44" y="416" on="0"/>
        <pt x="93" y="468" on="0"/>
        <pt x="162" y="496" on="0"/>
        <pt x="206" y="496" on="1"/>
        <pt x="280" y="496" on="0"/>
        <pt x="375" y="430" on="0"/>
        <pt x="400" y="358" on="1"/>
        <pt x="405" y="358" on="1"/>
        <pt x="416" y="426" on="0"/>
        <pt x="502" y="496" on="0"/>
        <pt x="556" y="496" on="1"/>
        <pt x="599" y="496" on="0"/>
        <pt x="669" y="468" on="0"/>
        <pt x="718" y="416" on="0"/>
        <pt x="744" y="343" on="0"/>
        <pt x="744" y="299" on="1"/>
        <pt x="744" y="255" on="0"/>
        <pt x="718" y="182" on="0"/>
        <pt x="669" y="130" on="0"/>
        <pt x="599" y="102" on="0"/>
        <pt x="556" y="102" on="1"/>
        <pt x="482" y="102" on="0"/>
        <pt x="387" y="168" on="0"/>
        <pt x="362" y="240" on="1"/>
        <pt x="357" y="240" on="1"/>
        <pt x="346" y="172" on="0"/>
        <pt x="260" y="102" on="0"/>
      </contour>
      <contour>
        <pt x="206" y="189" on="1"/>
        <pt x="253" y="189" on="0"/>
        <pt x="319" y="242" on="0"/>
        <pt x="334" y="293" on="1"/>
        <pt x="317" y="348" on="0"/>
        <pt x="253" y="409" on="0"/>
        <pt x="206" y="409" on="1"/>
        <pt x="167" y="409" on="0"/>
        <pt x="120" y="360" on="0"/>
        <pt x="120" y="318" on="1"/>
        <pt x="120" y="280" on="1"/>
        <pt x="120" y="238" on="0"/>
        <pt x="167" y="189" on="0"/>
      </contour>
      <contour>
        <pt x="556" y="189" on="1"/>
        <pt x="595" y="189" on="0"/>
        <pt x="642" y="238" on="0"/>
        <pt x="642" y="280" on="1"/>
        <pt x="642" y="318" on="1"/>
        <pt x="642" y="360" on="0"/>
        <pt x="595" y="409" on="0"/>
        <pt x="556" y="409" on="1"/>
        <pt x="509" y="409" on="0"/>
        <pt x="443" y="356" on="0"/>
        <pt x="428" y="305" on="1"/>
        <pt x="445" y="250" on="0"/>
        <pt x="509" y="189" on="0"/>
      </contour>
    </TTGlyph>
    <TTGlyph name="integral" xMin="44" yMin="-200" xMax="393" yMax="740">
      <contour>
        <pt x="44" y="-111" on="1"/>
        <pt x="164" y="-111" on="1"/>
        <pt x="164" y="609" on="1"/>
        <pt x="164" y="668" on="0"/>
        <pt x="228" y="740" on="0"/>
        <pt x="296" y="740" on="1"/>
        <pt x="393" y="740" on="1"/>
        <pt x="393" y="651" on="1"/>
        <pt x="273" y="651" on="1"/>
        <pt x="273" y="-69" on="1"/>
        <pt x="273" y="-128" on="0"/>
        <pt x="209" y="-200" on="0"/>
        <pt x="141" y="-200" on="1"/>
        <pt x="44" y="-200" on="1"/>
      </contour>
    </TTGlyph>
    <TTGlyph name="j" xMin="-3" yMin="-200" xMax="197" yMax="744">
      <contour>
        <pt x="78" y="520" on="1"/>
        <pt x="187" y="520" on="1"/>
        <pt x="187" y="-70" on="1"/>
        <pt x="187" y="-130" on="0"/>
        <pt x="126" y="-200" on="0"/>
        <pt x="60" y="-200" on="1"/>
        <pt x="-3" y="-200" on="1"/>
        <pt x="-3" y="-111" on="1"/>
        <pt x="78" y="-111" on="1"/>
      </contour>
      <contour>
        <pt x="133" y="613" on="1"/>
        <pt x="99" y="613" on="0"/>
        <pt x="68" y="645" on="0"/>
        <pt x="68" y="670" on="1"/>
        <pt x="68" y="687" on="1"/>
        <pt x="68" y="712" on="0"/>
        <pt x="99" y="744" on="0"/>
        <pt x="133" y="744" on="1"/>
        <pt x="167" y="744" on="0"/>
        <pt x="197" y="712" on="0"/>
        <pt x="197" y="687" on="1"/>
        <pt x="197" y="670" on="1"/>
        <pt x="197" y="645" on="0"/>
        <pt x="167" y="613" on="0"/>
      </contour>
    </TTGlyph>
    <TTGlyph name="jacute" xMin="-3" yMin="-200" xMax="263" yMax="795">
      <component glyphName="uni0237" x="0" y="0" flags="0x204"/>
      <component glyphName="acute" x="-166" y="0" flags="0x4"/>
    </TTGlyph>
    <TTGlyph name="jcircumflex" xMin="-41" yMin="-200" xMax="309" yMax="778">
      <component glyphName="uni0237" x="0" y="0" flags="0x204"/>
      <component glyphName="circumflex" x="-166" y="0" flags="0x4"/>
    </TTGlyph>
    <TTGlyph name="k" xMin="78" yMin="0" xMax="538" yMax="740">
      <contour>
        <pt x="78" y="740" on="1"/>
        <pt x="187" y="740" on="1"/>
        <pt x="187" y="286" on="1"/>
        <pt x="192" y="286" on="1"/>
        <pt x="264" y="379" on="1"/>
        <pt x="389" y="520" on="1"/>
        <pt x="516" y="520" on="1"/>
        <pt x="334" y="319" on="1"/>
        <pt x="538" y="0" on="1"/>
        <pt x="408" y="0" on="1"/>
        <pt x="259" y="248" on="1"/>
        <pt x="187" y="170" on="1"/>
        <pt x="187" y="0" on="1"/>
        <pt x="78" y="0" on="1"/>
      </contour>
    </TTGlyph>
    <TTGlyph name="l" xMin="78" yMin="0" xMax="259" yMax="740">
      <contour>
        <pt x="189" y="0" on="1"/>
        <pt x="133" y="0" on="0"/>
        <pt x="78" y="57" on="0"/>
        <pt x="78" y="108" on="1"/>
        <pt x="78" y="740" on="1"/>
        <pt x="187" y="740" on="1"/>
        <pt x="187" y="89" on="1"/>
        <pt x="259" y="89" on="1"/>
        <pt x="259" y="0" on="1"/>
      </contour>
    </TTGlyph>
    <TTGlyph name="ldot" xMin="78" yMin="0" xMax="397" yMax="740">
      <component glyphName="l" x="0" y="0" flags="0x4"/>
      <component glyphName="dotaccent" x="30" y="-342" flags="0x4"/>
    </TTGlyph>
    <TTGlyph name="less" xMin="96" yMin="-8" xMax="504" yMax="582">
      <contour>
        <pt x="96" y="246" on="1"/>
        <pt x="96" y="328" on="1"/>
        <pt x="504" y="582" on="1"/>
        <pt x="504" y="470" on="1"/>
        <pt x="205" y="291" on="1"/>
        <pt x="205" y="284" on="1"/>
        <pt x="504" y="104" on="1"/>
        <pt x="504" y="-8" on="1"/>
      </contour>
    </TTGlyph>
    <TTGlyph name="lessequal" xMin="96" yMin="0" xMax="504" yMax="599">
      <contour>
        <pt x="96" y="0" on="1"/>
        <pt x="96" y="89" on="1"/>
        <pt x="504" y="89" on="1"/>
        <pt x="504" y="0" on="1"/>
      </contour>
      <contour>
        <pt x="504" y="494" on="1"/>
        <pt x="214" y="367" on="1"/>
        <pt x="214" y="361" on="1"/>
        <pt x="504" y="236" on="1"/>
        <pt x="504" y="131" on="1"/>
        <pt x="96" y="320" on="1"/>
        <pt x="96" y="408" on="1"/>
        <pt x="504" y="599" on="1"/>
      </contour>
    </TTGlyph>
    <TTGlyph name="logicalnot" xMin="61" yMin="78" xMax="549" yMax="350">
      <contour>
        <pt x="458" y="78" on="1"/>
        <pt x="458" y="261" on="1"/>
        <pt x="61" y="261" on="1"/>
        <pt x="61" y="350" on="1"/>
        <pt x="549" y="350" on="1"/>
        <pt x="549" y="78" on="1"/>
      </contour>
    </TTGlyph>
    <TTGlyph name="lozenge" xMin="50" yMin="0" xMax="550" yMax="698">
      <contour>
        <pt x="260" y="0" on="1"/>
        <pt x="50" y="349" on="1"/>
        <pt x="260" y="698" on="1"/>
        <pt x="340" y="698" on="1"/>
        <pt x="550" y="349" on="1"/>
        <pt x="340" y="0" on="1"/>
      </contour>
      <contour>
        <pt x="303" y="104" on="1"/>
        <pt x="446" y="349" on="1"/>
        <pt x="303" y="594" on="1"/>
        <pt x="297" y="594" on="1"/>
        <pt x="154" y="349" on="1"/>
        <pt x="297" y="104" on="1"/>
      </contour>
    </TTGlyph>
    <TTGlyph name="lslash" xMin="9" yMin="0" xMax="294" yMax="740">
      <contour>
        <pt x="263" y="0" on="1"/>
        <pt x="193" y="0" on="1"/>
        <pt x="137" y="0" on="0"/>
        <pt x="82" y="57" on="0"/>
        <pt x="82" y="108" on="1"/>
        <pt x="82" y="312" on="1"/>
        <pt x="9" y="288" on="1"/>
        <pt x="9" y="374" on="1"/>
        <pt x="82" y="398" on="1"/>
        <pt x="82" y="740" on="1"/>
        <pt x="191" y="740" on="1"/>
        <pt x="191" y="434" on="1"/>
        <pt x="294" y="468" on="1"/>
        <pt x="294" y="382" on="1"/>
        <pt x="191" y="348" on="1"/>
        <pt x="191" y="89" on="1"/>
        <pt x="263" y="89" on="1"/>
      </contour>
    </TTGlyph>
    <TTGlyph name="m" xMin="78" yMin="0" xMax="809" yMax="532">
      <contour>
        <pt x="78" y="0" on="1"/>
        <pt x="78" y="520" on="1"/>
        <pt x="187" y="520" on="1"/>
        <pt x="187" y="434" on="1"/>
        <pt x="192" y="434" on="1"/>
        <pt x="200" y="454" on="0"/>
        <pt x="223" y="490" on="0"/>
        <pt x="256" y="517" on="0"/>
        <pt x="301" y="532" on="0"/>
        <pt x="331" y="532" on="1"/>
        <pt x="384" y="532" on="0"/>
        <pt x="466" y="480" on="0"/>
        <pt x="485" y="426" on="1"/>
        <pt x="488" y="426" on="1"/>
        <pt x="502" y="470" on="0"/>
        <pt x="582" y="532" on="0"/>
        <pt x="645" y="532" on="1"/>
        <pt x="723" y="532" on="0"/>
        <pt x="809" y="427" on="0"/>
        <pt x="809" y="330" on="1"/>
        <pt x="809" y="0" on="1"/>
        <pt x="700" y="0" on="1"/>
        <pt x="700" y="317" on="1"/>
        <pt x="700" y="377" on="0"/>
        <pt x="654" y="438" on="0"/>
        <pt x="604" y="438" on="1"/>
        <pt x="583" y="438" on="0"/>
        <pt x="545" y="427" on="0"/>
        <pt x="516" y="405" on="0"/>
        <pt x="498" y="371" on="0"/>
        <pt x="498" y="349" on="1"/>
        <pt x="498" y="0" on="1"/>
        <pt x="389" y="0" on="1"/>
        <pt x="389" y="317" on="1"/>
        <pt x="389" y="438" on="0"/>
        <pt x="294" y="438" on="1"/>
        <pt x="274" y="438" on="0"/>
        <pt x="235" y="427" on="0"/>
        <pt x="205" y="405" on="0"/>
        <pt x="187" y="371" on="0"/>
        <pt x="187" y="349" on="1"/>
        <pt x="187" y="0" on="1"/>
      </contour>
    </TTGlyph>
    <TTGlyph name="macron" xMin="154" yMin="631" xMax="446" yMax="714">
      <contour>
        <pt x="154" y="714" on="1"/>
        <pt x="446" y="714" on="1"/>
        <pt x="446" y="631" on="1"/>
        <pt x="154" y="631" on="1"/>
      </contour>
    </TTGlyph>
    <TTGlyph name="macron.case" xMin="154" yMin="798" xMax="446" yMax="881">
      <contour>
        <pt x="154" y="881" on="1"/>
        <pt x="446" y="881" on="1"/>
        <pt x="446" y="798" on="1"/>
        <pt x="154" y="798" on="1"/>
      </contour>
    </TTGlyph>
    <TTGlyph name="minus" xMin="67" yMin="261" xMax="533" yMax="350">
      <contour>
        <pt x="67" y="261" on="1"/>
        <pt x="67" y="350" on="1"/>
        <pt x="533" y="350" on="1"/>
        <pt x="533" y="261" on="1"/>
      </contour>
    </TTGlyph>
    <TTGlyph name="mu" xMin="78" yMin="-200" xMax="507" yMax="520">
      <contour>
        <pt x="78" y="-200" on="1"/>
        <pt x="78" y="520" on="1"/>
        <pt x="187" y="520" on="1"/>
        <pt x="187" y="203" on="1"/>
        <pt x="187" y="82" on="0"/>
        <pt x="287" y="82" on="1"/>
        <pt x="308" y="82" on="0"/>
        <pt x="348" y="93" on="0"/>
        <pt x="379" y="115" on="0"/>
        <pt x="398" y="149" on="0"/>
        <pt x="398" y="172" on="1"/>
        <pt x="398" y="520" on="1"/>
        <pt x="507" y="520" on="1"/>
        <pt x="507" y="0" on="1"/>
        <pt x="398" y="0" on="1"/>
        <pt x="398" y="86" on="1"/>
        <pt x="394" y="86" on="1"/>
        <pt x="387" y="67" on="0"/>
        <pt x="365" y="31" on="0"/>
        <pt x="333" y="4" on="0"/>
        <pt x="290" y="-12" on="0"/>
        <pt x="263" y="-12" on="1"/>
        <pt x="198" y="-12" on="0"/>
        <pt x="175" y="36" on="1"/>
        <pt x="171" y="36" on="1"/>
        <pt x="187" y="-71" on="1"/>
        <pt x="187" y="-200" on="1"/>
      </contour>
    </TTGlyph>
    <TTGlyph name="multiply" xMin="86" yMin="83" xMax="514" yMax="521">
      <contour>
        <pt x="300" y="238" on="1"/>
        <pt x="150" y="83" on="1"/>
        <pt x="86" y="146" on="1"/>
        <pt x="237" y="302" on="1"/>
        <pt x="86" y="458" on="1"/>
        <pt x="150" y="521" on="1"/>
        <pt x="300" y="366" on="1"/>
        <pt x="450" y="521" on="1"/>
        <pt x="514" y="458" on="1"/>
        <pt x="363" y="302" on="1"/>
        <pt x="514" y="146" on="1"/>
        <pt x="450" y="83" on="1"/>
      </contour>
    </TTGlyph>
    <TTGlyph name="n" xMin="78" yMin="0" xMax="507" yMax="532">
      <contour>
        <pt x="78" y="0" on="1"/>
        <pt x="78" y="520" on="1"/>
        <pt x="187" y="520" on="1"/>
        <pt x="187" y="434" on="1"/>
        <pt x="192" y="434" on="1"/>
        <pt x="209" y="476" on="0"/>
        <pt x="278" y="532" on="0"/>
        <pt x="338" y="532" on="1"/>
        <pt x="418" y="532" on="0"/>
        <pt x="507" y="427" on="0"/>
        <pt x="507" y="330" on="1"/>
        <pt x="507" y="0" on="1"/>
        <pt x="398" y="0" on="1"/>
        <pt x="398" y="316" on="1"/>
        <pt x="398" y="438" on="0"/>
        <pt x="300" y="438" on="1"/>
        <pt x="279" y="438" on="0"/>
        <pt x="238" y="427" on="0"/>
        <pt x="206" y="405" on="0"/>
        <pt x="187" y="371" on="0"/>
        <pt x="187" y="348" on="1"/>
        <pt x="187" y="0" on="1"/>
      </contour>
    </TTGlyph>
    <TTGlyph name="nine" xMin="53" yMin="0" xMax="544" yMax="710">
      <contour>
        <pt x="544" y="438" on="1"/>
        <pt x="544" y="362" on="0"/>
        <pt x="498" y="228" on="0"/>
        <pt x="426" y="116" on="0"/>
        <pt x="337" y="28" on="0"/>
        <pt x="294" y="0" on="1"/>
        <pt x="144" y="0" on="1"/>
        <pt x="203" y="43" on="0"/>
        <pt x="297" y="123" on="0"/>
        <pt x="367" y="207" on="0"/>
        <pt x="414" y="301" on="0"/>
        <pt x="427" y="357" on="1"/>
        <pt x="420" y="359" on="1"/>
        <pt x="409" y="338" on="0"/>
        <pt x="380" y="301" on="0"/>
        <pt x="341" y="273" on="0"/>
        <pt x="291" y="257" on="0"/>
        <pt x="258" y="257" on="1"/>
        <pt x="214" y="257" on="0"/>
        <pt x="139" y="287" on="0"/>
        <pt x="84" y="344" on="0"/>
        <pt x="53" y="423" on="0"/>
        <pt x="53" y="473" on="1"/>
        <pt x="53" y="525" on="0"/>
        <pt x="88" y="613" on="0"/>
        <pt x="152" y="675" on="0"/>
        <pt x="242" y="710" on="0"/>
        <pt x="298" y="710" on="1"/>
        <pt x="356" y="710" on="0"/>
        <pt x="447" y="672" on="0"/>
        <pt x="510" y="601" on="0"/>
        <pt x="544" y="501" on="0"/>
      </contour>
      <contour>
        <pt x="298" y="348" on="1"/>
        <pt x="359" y="348" on="0"/>
        <pt x="427" y="413" on="0"/>
        <pt x="427" y="476" on="1"/>
        <pt x="427" y="490" on="1"/>
        <pt x="427" y="553" on="0"/>
        <pt x="359" y="618" on="0"/>
        <pt x="298" y="618" on="1"/>
        <pt x="237" y="618" on="0"/>
        <pt x="169" y="553" on="0"/>
        <pt x="169" y="490" on="1"/>
        <pt x="169" y="476" on="1"/>
        <pt x="169" y="413" on="0"/>
        <pt x="237" y="348" on="0"/>
      </contour>
    </TTGlyph>
    <TTGlyph name="notequal" xMin="67" yMin="56" xMax="533" yMax="555">
      <contour>
        <pt x="120" y="56" on="1"/>
        <pt x="171" y="151" on="1"/>
        <pt x="67" y="151" on="1"/>
        <pt x="67" y="240" on="1"/>
        <pt x="218" y="240" on="1"/>
        <pt x="287" y="371" on="1"/>
        <pt x="67" y="371" on="1"/>
        <pt x="67" y="460" on="1"/>
        <pt x="335" y="460" on="1"/>
        <pt x="385" y="555" on="1"/>
        <pt x="480" y="555" on="1"/>
        <pt x="429" y="460" on="1"/>
        <pt x="533" y="460" on="1"/>
        <pt x="533" y="371" on="1"/>
        <pt x="381" y="371" on="1"/>
        <pt x="312" y="240" on="1"/>
        <pt x="533" y="240" on="1"/>
        <pt x="533" y="151" on="1"/>
        <pt x="265" y="151" on="1"/>
        <pt x="215" y="56" on="1"/>
      </contour>
    </TTGlyph>
    <TTGlyph name="ntilde" xMin="78" yMin="0" xMax="507" yMax="738">
      <component glyphName="n" x="0" y="0" flags="0x204"/>
      <component glyphName="tilde" x="-6" y="0" flags="0x4"/>
    </TTGlyph>
    <TTGlyph name="numbersign" xMin="40" yMin="0" xMax="638" yMax="698">
      <contour>
        <pt x="391" y="191" on="1"/>
        <pt x="233" y="191" on="1"/>
        <pt x="200" y="0" on="1"/>
        <pt x="123" y="0" on="1"/>
        <pt x="156" y="191" on="1"/>
        <pt x="40" y="191" on="1"/>
        <pt x="40" y="264" on="1"/>
        <pt x="169" y="264" on="1"/>
        <pt x="198" y="434" on="1"/>
        <pt x="82" y="434" on="1"/>
        <pt x="82" y="507" on="1"/>
        <pt x="211" y="507" on="1"/>
        <pt x="244" y="698" on="1"/>
        <pt x="320" y="698" on="1"/>
        <pt x="287" y="507" on="1"/>
        <pt x="445" y="507" on="1"/>
        <pt x="478" y="698" on="1"/>
        <pt x="555" y="698" on="1"/>
        <pt x="522" y="507" on="1"/>
        <pt x="638" y="507" on="1"/>
        <pt x="638" y="434" on="1"/>
        <pt x="509" y="434" on="1"/>
        <pt x="480" y="264" on="1"/>
        <pt x="596" y="264" on="1"/>
        <pt x="596" y="191" on="1"/>
        <pt x="467" y="191" on="1"/>
        <pt x="434" y="0" on="1"/>
        <pt x="358" y="0" on="1"/>
      </contour>
      <contour>
        <pt x="403" y="264" on="1"/>
        <pt x="433" y="434" on="1"/>
        <pt x="275" y="434" on="1"/>
        <pt x="245" y="264" on="1"/>
      </contour>
    </TTGlyph>
    <TTGlyph name="o" xMin="43" yMin="-12" xMax="521" yMax="532">
      <contour>
        <pt x="282" y="-12" on="1"/>
        <pt x="228" y="-12" on="0"/>
        <pt x="139" y="26" on="0"/>
        <pt x="77" y="97" on="0"/>
        <pt x="43" y="198" on="0"/>
        <pt x="43" y="260" on="1"/>
        <pt x="43" y="322" on="0"/>
        <pt x="77" y="423" on="0"/>
        <pt x="139" y="494" on="0"/>
        <pt x="228" y="532" on="0"/>
        <pt x="282" y="532" on="1"/>
        <pt x="336" y="532" on="0"/>
        <pt x="425" y="494" on="0"/>
        <pt x="487" y="423" on="0"/>
        <pt x="521" y="322" on="0"/>
        <pt x="521" y="260" on="1"/>
        <pt x="521" y="198" on="0"/>
        <pt x="487" y="97" on="0"/>
        <pt x="425" y="26" on="0"/>
        <pt x="336" y="-12" on="0"/>
      </contour>
      <contour>
        <pt x="282" y="78" on="1"/>
        <pt x="338" y="78" on="0"/>
        <pt x="406" y="147" on="0"/>
        <pt x="406" y="216" on="1"/>
        <pt x="406" y="304" on="1"/>
        <pt x="406" y="373" on="0"/>
        <pt x="338" y="442" on="0"/>
        <pt x="282" y="442" on="1"/>
        <pt x="226" y="442" on="0"/>
        <pt x="158" y="373" on="0"/>
        <pt x="158" y="304" on="1"/>
        <pt x="158" y="216" on="1"/>
        <pt x="158" y="147" on="0"/>
        <pt x="226" y="78" on="0"/>
      </contour>
    </TTGlyph>
    <TTGlyph name="oacute" xMin="43" yMin="-12" xMax="521" yMax="795">
      <component glyphName="o" x="0" y="0" flags="0x204"/>
      <component glyphName="acute" x="-18" y="0" flags="0x4"/>
    </TTGlyph>
    <TTGlyph name="ocircumflex" xMin="43" yMin="-12" xMax="521" yMax="778">
      <component glyphName="o" x="0" y="0" flags="0x204"/>
      <component glyphName="circumflex" x="-18" y="0" flags="0x4"/>
    </TTGlyph>
    <TTGlyph name="odieresis" xMin="43" yMin="-12" xMax="521" yMax="734">
      <component glyphName="o" x="0" y="0" flags="0x204"/>
      <component glyphName="dieresis" x="-18" y="0" flags="0x4"/>
    </TTGlyph>
    <TTGlyph name="oe" xMin="43" yMin="-12" xMax="878" yMax="532">
      <contour>
        <pt x="282" y="78" on="1"/>
        <pt x="338" y="78" on="0"/>
        <pt x="406" y="147" on="0"/>
        <pt x="406" y="216" on="1"/>
        <pt x="406" y="304" on="1"/>
        <pt x="406" y="373" on="0"/>
        <pt x="338" y="442" on="0"/>
        <pt x="282" y="442" on="1"/>
        <pt x="226" y="442" on="0"/>
        <pt x="158" y="373" on="0"/>
        <pt x="158" y="304" on="1"/>
        <pt x="158" y="216" on="1"/>
        <pt x="158" y="147" on="0"/>
        <pt x="226" y="78" on="0"/>
      </contour>
      <contour>
        <pt x="763" y="304" on="1"/>
        <pt x="763" y="314" on="1"/>
        <pt x="763" y="374" on="0"/>
        <pt x="701" y="447" on="0"/>
        <pt x="647" y="447" on="1"/>
        <pt x="619" y="447" on="0"/>
        <pt x="572" y="427" on="0"/>
        <pt x="539" y="391" on="0"/>
        <pt x="521" y="341" on="0"/>
        <pt x="521" y="311" on="1"/>
        <pt x="521" y="304" on="1"/>
      </contour>
      <contour>
        <pt x="653" y="-12" on="1"/>
        <pt x="581" y="-12" on="0"/>
        <pt x="486" y="44" on="0"/>
        <pt x="466" y="85" on="1"/>
        <pt x="460" y="85" on="1"/>
        <pt x="439" y="42" on="0"/>
        <pt x="346" y="-12" on="0"/>
        <pt x="282" y="-12" on="1"/>
        <pt x="228" y="-12" on="0"/>
        <pt x="139" y="26" on="0"/>
        <pt x="77" y="97" on="0"/>
        <pt x="43" y="198" on="0"/>
        <pt x="43" y="260" on="1"/>
        <pt x="43" y="322" on="0"/>
        <pt x="77" y="423" on="0"/>
        <pt x="139" y="494" on="0"/>
        <pt x="228" y="532" on="0"/>
        <pt x="282" y="532" on="1"/>
        <pt x="344" y="532" on="0"/>
        <pt x="436" y="483" on="0"/>
        <pt x="460" y="434" on="1"/>
        <pt x="466" y="434" on="1"/>
        <pt x="488" y="479" on="0"/>
        <pt x="582" y="532" on="0"/>
        <pt x="648" y="532" on="1"/>
        <pt x="702" y="532" on="0"/>
        <pt x="787" y="494" on="0"/>
        <pt x="847" y="426" on="0"/>
        <pt x="878" y="331" on="0"/>
        <pt x="878" y="273" on="1"/>
        <pt x="878" y="232" on="1"/>
        <pt x="521" y="232" on="1"/>
        <pt x="521" y="215" on="1"/>
        <pt x="521" y="155" on="0"/>
        <pt x="592" y="78" on="0"/>
        <pt x="660" y="78" on="1"/>
        <pt x="708" y="78" on="0"/>
        <pt x="774" y="120" on="0"/>
        <pt x="797" y="156" on="1"/>
        <pt x="861" y="93" on="1"/>
        <pt x="832" y="45" on="0"/>
        <pt x="725" y="-12" on="0"/>
      </contour>
    </TTGlyph>
    <TTGlyph name="ogonek" xMin="132" yMin="-209" xMax="342" yMax="22">
      <contour>
        <pt x="239" y="-209" on="1"/>
        <pt x="217" y="-209" on="0"/>
        <pt x="178" y="-200" on="0"/>
        <pt x="149" y="-181" on="0"/>
        <pt x="132" y="-151" on="0"/>
        <pt x="132" y="-129" on="1"/>
        <pt x="132" y="-88" on="0"/>
        <pt x="192" y="-30" on="0"/>
        <pt x="243" y="1" on="1"/>
        <pt x="237" y="22" on="1"/>
        <pt x="307" y="22" on="1"/>
        <pt x="316" y="0" on="1"/>
        <pt x="282" y="-26" on="0"/>
        <pt x="241" y="-62" on="0"/>
        <pt x="218" y="-88" on="0"/>
        <pt x="211" y="-106" on="0"/>
        <pt x="211" y="-115" on="1"/>
        <pt x="211" y="-133" on="0"/>
        <pt x="231" y="-147" on="0"/>
        <pt x="245" y="-147" on="1"/>
        <pt x="261" y="-147" on="0"/>
        <pt x="286" y="-132" on="0"/>
        <pt x="296" y="-121" on="1"/>
        <pt x="342" y="-165" on="1"/>
        <pt x="331" y="-185" on="0"/>
        <pt x="279" y="-209" on="0"/>
      </contour>
    </TTGlyph>
    <TTGlyph name="ograve" xMin="43" yMin="-12" xMax="521" yMax="795">
      <component glyphName="o" x="0" y="0" flags="0x204"/>
      <component glyphName="grave" x="-18" y="0" flags="0x4"/>
    </TTGlyph>
    <TTGlyph name="one" xMin="45" yMin="0" xMax="565" yMax="698">
      <contour>
        <pt x="88" y="0" on="1"/>
        <pt x="88" y="94" on="1"/>
        <pt x="284" y="94" on="1"/>
        <pt x="284" y="616" on="1"/>
        <pt x="276" y="616" on="1"/>
        <pt x="114" y="443" on="1"/>
        <pt x="45" y="505" on="1"/>
        <pt x="223" y="698" on="1"/>
        <pt x="395" y="698" on="1"/>
        <pt x="395" y="94" on="1"/>
        <pt x="565" y="94" on="1"/>
        <pt x="565" y="0" on="1"/>
      </contour>
    </TTGlyph>
    <TTGlyph name="onehalf" xMin="22" yMin="0" xMax="819" yMax="698">
      <component glyphName="onesuperior" x="0" y="0" flags="0x4"/>
      <component glyphName="fraction" x="353" y="0" flags="0x4"/>
      <component glyphName="uni2082" x="504" y="0" flags="0x4"/>
    </TTGlyph>
    <TTGlyph name="onequarter" xMin="22" yMin="0" xMax="827" yMax="698">
      <component glyphName="onesuperior" x="0" y="0" flags="0x4"/>
      <component glyphName="fraction" x="368" y="0" flags="0x4"/>
      <component glyphName="uni2084" x="501" y="0" flags="0x4"/>
    </TTGlyph>
    <TTGlyph name="onesuperior" xMin="22" yMin="329" xMax="325" yMax="698">
      <contour>
        <pt x="53" y="329" on="1"/>
        <pt x="53" y="391" on="1"/>
        <pt x="155" y="391" on="1"/>
        <pt x="155" y="635" on="1"/>
        <pt x="149" y="635" on="1"/>
        <pt x="72" y="548" on="1"/>
        <pt x="22" y="590" on="1"/>
        <pt x="117" y="698" on="1"/>
        <pt x="234" y="698" on="1"/>
        <pt x="234" y="391" on="1"/>
        <pt x="325" y="391" on="1"/>
        <pt x="325" y="329" on="1"/>
      </contour>
    </TTGlyph>
    <TTGlyph name="ordfeminine" xMin="43" yMin="336" xMax="379" yMax="704">
      <contour>
        <pt x="379" y="342" on="1"/>
        <pt x="334" y="342" on="1"/>
        <pt x="307" y="342" on="0"/>
        <pt x="269" y="369" on="0"/>
        <pt x="267" y="400" on="1"/>
        <pt x="263" y="400" on="1"/>
        <pt x="252" y="372" on="0"/>
        <pt x="198" y="336" on="0"/>
        <pt x="154" y="336" on="1"/>
        <pt x="102" y="336" on="0"/>
        <pt x="43" y="391" on="0"/>
        <pt x="43" y="439" on="1"/>
        <pt x="43" y="494" on="0"/>
        <pt x="121" y="546" on="0"/>
        <pt x="196" y="546" on="1"/>
        <pt x="261" y="546" on="1"/>
        <pt x="261" y="569" on="1"/>
        <pt x="261" y="642" on="0"/>
        <pt x="191" y="642" on="1"/>
        <pt x="158" y="642" on="0"/>
        <pt x="114" y="614" on="0"/>
        <pt x="102" y="593" on="1"/>
        <pt x="54" y="634" on="1"/>
        <pt x="70" y="662" on="0"/>
        <pt x="141" y="704" on="0"/>
        <pt x="198" y="704" on="1"/>
        <pt x="264" y="704" on="0"/>
        <pt x="341" y="637" on="0"/>
        <pt x="341" y="573" on="1"/>
        <pt x="341" y="407" on="1"/>
        <pt x="379" y="407" on="1"/>
      </contour>
      <contour>
        <pt x="196" y="496" on="1"/>
        <pt x="122" y="496" on="0"/>
        <pt x="122" y="451" on="1"/>
        <pt x="122" y="439" on="1"/>
        <pt x="122" y="416" on="0"/>
        <pt x="152" y="395" on="0"/>
        <pt x="179" y="395" on="1"/>
        <pt x="212" y="395" on="0"/>
        <pt x="261" y="425" on="0"/>
        <pt x="261" y="454" on="1"/>
        <pt x="261" y="496" on="1"/>
      </contour>
    </TTGlyph>
    <TTGlyph name="ordmasculine" xMin="42" yMin="336" xMax="372" yMax="704">
      <contour>
        <pt x="207" y="336" on="1"/>
        <pt x="129" y="336" on="0"/>
        <pt x="42" y="434" on="0"/>
        <pt x="42" y="520" on="1"/>
        <pt x="42" y="606" on="0"/>
        <pt x="129" y="704" on="0"/>
        <pt x="207" y="704" on="1"/>
        <pt x="285" y="704" on="0"/>
        <pt x="372" y="606" on="0"/>
        <pt x="372" y="520" on="1"/>
        <pt x="372" y="434" on="0"/>
        <pt x="285" y="336" on="0"/>
      </contour>
      <contour>
        <pt x="207" y="399" on="1"/>
        <pt x="246" y="399" on="0"/>
        <pt x="288" y="445" on="0"/>
        <pt x="288" y="488" on="1"/>
        <pt x="288" y="552" on="1"/>
        <pt x="288" y="595" on="0"/>
        <pt x="246" y="641" on="0"/>
        <pt x="207" y="641" on="1"/>
        <pt x="168" y="641" on="0"/>
        <pt x="126" y="595" on="0"/>
        <pt x="126" y="552" on="1"/>
        <pt x="126" y="488" on="1"/>
        <pt x="126" y="445" on="0"/>
        <pt x="168" y="399" on="0"/>
      </contour>
    </TTGlyph>
    <TTGlyph name="oslash" xMin="26" yMin="-44" xMax="544" yMax="564">
      <contour>
        <pt x="26" y="1" on="1"/>
        <pt x="93" y="84" on="1"/>
        <pt x="70" y="119" on="0"/>
        <pt x="46" y="206" on="0"/>
        <pt x="46" y="260" on="1"/>
        <pt x="46" y="322" on="0"/>
        <pt x="80" y="423" on="0"/>
        <pt x="142" y="494" on="0"/>
        <pt x="231" y="532" on="0"/>
        <pt x="285" y="532" on="1"/>
        <pt x="364" y="532" on="0"/>
        <pt x="423" y="490" on="1"/>
        <pt x="484" y="564" on="1"/>
        <pt x="544" y="519" on="1"/>
        <pt x="476" y="435" on="1"/>
        <pt x="499" y="401" on="0"/>
        <pt x="524" y="313" on="0"/>
        <pt x="524" y="260" on="1"/>
        <pt x="524" y="198" on="0"/>
        <pt x="490" y="97" on="0"/>
        <pt x="428" y="26" on="0"/>
        <pt x="339" y="-12" on="0"/>
        <pt x="285" y="-12" on="1"/>
        <pt x="244" y="-12" on="0"/>
        <pt x="175" y="9" on="0"/>
        <pt x="147" y="29" on="1"/>
        <pt x="86" y="-44" on="1"/>
      </contour>
      <contour>
        <pt x="285" y="75" on="1"/>
        <pt x="342" y="75" on="0"/>
        <pt x="411" y="148" on="0"/>
        <pt x="411" y="218" on="1"/>
        <pt x="411" y="302" on="1"/>
        <pt x="411" y="329" on="0"/>
        <pt x="405" y="352" on="1"/>
        <pt x="202" y="103" on="1"/>
        <pt x="233" y="75" on="0"/>
      </contour>
      <contour>
        <pt x="159" y="218" on="1"/>
        <pt x="159" y="190" on="0"/>
        <pt x="165" y="168" on="1"/>
        <pt x="368" y="416" on="1"/>
        <pt x="334" y="445" on="0"/>
        <pt x="285" y="445" on="1"/>
        <pt x="228" y="445" on="0"/>
        <pt x="159" y="372" on="0"/>
        <pt x="159" y="302" on="1"/>
      </contour>
    </TTGlyph>
    <TTGlyph name="otilde" xMin="43" yMin="-12" xMax="521" yMax="738">
      <component glyphName="o" x="0" y="0" flags="0x204"/>
      <component glyphName="tilde" x="-18" y="0" flags="0x4"/>
    </TTGlyph>
    <TTGlyph name="p" xMin="78" yMin="-200" xMax="545" yMax="532">
      <contour>
        <pt x="78" y="520" on="1"/>
        <pt x="187" y="520" on="1"/>
        <pt x="187" y="434" on="1"/>
        <pt x="192" y="434" on="1"/>
        <pt x="209" y="481" on="0"/>
        <pt x="286" y="532" on="0"/>
        <pt x="338" y="532" on="1"/>
        <pt x="437" y="532" on="0"/>
        <pt x="545" y="389" on="0"/>
        <pt x="545" y="260" on="1"/>
        <pt x="545" y="131" on="0"/>
        <pt x="437" y="-12" on="0"/>
        <pt x="338" y="-12" on="1"/>
        <pt x="286" y="-12" on="0"/>
        <pt x="209" y="40" on="0"/>
        <pt x="192" y="86" on="1"/>
        <pt x="187" y="86" on="1"/>
        <pt x="187" y="-200" on="1"/>
        <pt x="78" y="-200" on="1"/>
      </contour>
      <contour>
        <pt x="305" y="82" on="1"/>
        <pt x="362" y="82" on="0"/>
        <pt x="430" y="155" on="0"/>
        <pt x="430" y="215" on="1"/>
        <pt x="430" y="305" on="1"/>
        <pt x="430" y="365" on="0"/>
        <pt x="362" y="438" on="0"/>
        <pt x="305" y="438" on="1"/>
        <pt x="255" y="438" on="0"/>
        <pt x="187" y="389" on="0"/>
        <pt x="187" y="349" on="1"/>
        <pt x="187" y="171" on="1"/>
        <pt x="187" y="131" on="0"/>
        <pt x="255" y="82" on="0"/>
      </contour>
    </TTGlyph>
    <TTGlyph name="paragraph" xMin="43" yMin="-149" xMax="593" yMax="698">
      <contour>
        <pt x="244" y="282" on="1"/>
        <pt x="202" y="282" on="0"/>
        <pt x="129" y="315" on="0"/>
        <pt x="74" y="372" on="0"/>
        <pt x="43" y="447" on="0"/>
        <pt x="43" y="490" on="1"/>
        <pt x="43" y="533" on="0"/>
        <pt x="74" y="608" on="0"/>
        <pt x="129" y="665" on="0"/>
        <pt x="202" y="698" on="0"/>
        <pt x="244" y="698" on="1"/>
        <pt x="593" y="698" on="1"/>
        <pt x="593" y="614" on="1"/>
        <pt x="527" y="614" on="1"/>
        <pt x="527" y="-149" on="1"/>
        <pt x="438" y="-149" on="1"/>
        <pt x="438" y="614" on="1"/>
        <pt x="333" y="614" on="1"/>
        <pt x="333" y="-149" on="1"/>
        <pt x="244" y="-149" on="1"/>
      </contour>
    </TTGlyph>
    <TTGlyph name="parenleft" xMin="63" yMin="-138" xMax="344" yMax="760">
      <contour>
        <pt x="63" y="311" on="1"/>
        <pt x="63" y="384" on="0"/>
        <pt x="90" y="518" on="0"/>
        <pt x="138" y="634" on="0"/>
        <pt x="203" y="728" on="0"/>
        <pt x="241" y="760" on="1"/>
        <pt x="344" y="760" on="1"/>
        <pt x="303" y="722" on="0"/>
        <pt x="237" y="628" on="0"/>
        <pt x="191" y="522" on="0"/>
        <pt x="166" y="408" on="0"/>
        <pt x="166" y="351" on="1"/>
        <pt x="166" y="271" on="1"/>
        <pt x="166" y="214" on="0"/>
        <pt x="191" y="100" on="0"/>
        <pt x="237" y="-6" on="0"/>
        <pt x="303" y="-101" on="0"/>
        <pt x="344" y="-138" on="1"/>
        <pt x="241" y="-138" on="1"/>
        <pt x="203" y="-106" on="0"/>
        <pt x="138" y="-12" on="0"/>
        <pt x="90" y="104" on="0"/>
        <pt x="63" y="238" on="0"/>
      </contour>
    </TTGlyph>
    <TTGlyph name="parenright" xMin="-8" yMin="-138" xMax="273" yMax="760">
      <contour>
        <pt x="273" y="311" on="1"/>
        <pt x="273" y="238" on="0"/>
        <pt x="246" y="104" on="0"/>
        <pt x="198" y="-12" on="0"/>
        <pt x="133" y="-106" on="0"/>
        <pt x="95" y="-138" on="1"/>
        <pt x="-8" y="-138" on="1"/>
        <pt x="33" y="-101" on="0"/>
        <pt x="99" y="-6" on="0"/>
        <pt x="145" y="100" on="0"/>
        <pt x="170" y="214" on="0"/>
        <pt x="170" y="271" on="1"/>
        <pt x="170" y="351" on="1"/>
        <pt x="170" y="408" on="0"/>
        <pt x="145" y="522" on="0"/>
        <pt x="99" y="628" on="0"/>
        <pt x="33" y="722" on="0"/>
        <pt x="-8" y="760" on="1"/>
        <pt x="95" y="760" on="1"/>
        <pt x="133" y="728" on="0"/>
        <pt x="198" y="634" on="0"/>
        <pt x="246" y="518" on="0"/>
        <pt x="273" y="384" on="0"/>
      </contour>
    </TTGlyph>
    <TTGlyph name="partialdiff" xMin="52" yMin="-12" xMax="534" yMax="698">
      <contour>
        <pt x="534" y="271" on="1"/>
        <pt x="534" y="199" on="0"/>
        <pt x="500" y="92" on="0"/>
        <pt x="437" y="22" on="0"/>
        <pt x="349" y="-12" on="0"/>
        <pt x="295" y="-12" on="1"/>
        <pt x="238" y="-12" on="0"/>
        <pt x="148" y="25" on="0"/>
        <pt x="85" y="93" on="0"/>
        <pt x="52" y="190" on="0"/>
        <pt x="52" y="250" on="1"/>
        <pt x="52" y="307" on="0"/>
        <pt x="82" y="401" on="0"/>
        <pt x="136" y="468" on="0"/>
        <pt x="214" y="504" on="0"/>
        <pt x="262" y="504" on="1"/>
        <pt x="310" y="504" on="0"/>
        <pt x="376" y="465" on="0"/>
        <pt x="399" y="431" on="1"/>
        <pt x="405" y="433" on="1"/>
        <pt x="392" y="471" on="0"/>
        <pt x="338" y="542" on="0"/>
        <pt x="264" y="608" on="0"/>
        <pt x="171" y="670" on="0"/>
        <pt x="119" y="698" on="1"/>
        <pt x="284" y="698" on="1"/>
        <pt x="323" y="674" on="0"/>
        <pt x="411" y="601" on="0"/>
        <pt x="485" y="498" on="0"/>
        <pt x="534" y="361" on="0"/>
      </contour>
      <contour>
        <pt x="293" y="75" on="1"/>
        <pt x="351" y="75" on="0"/>
        <pt x="419" y="145" on="0"/>
        <pt x="419" y="214" on="1"/>
        <pt x="419" y="278" on="1"/>
        <pt x="419" y="347" on="0"/>
        <pt x="351" y="417" on="0"/>
        <pt x="293" y="417" on="1"/>
        <pt x="235" y="417" on="0"/>
        <pt x="167" y="347" on="0"/>
        <pt x="167" y="278" on="1"/>
        <pt x="167" y="214" on="1"/>
        <pt x="167" y="145" on="0"/>
        <pt x="235" y="75" on="0"/>
      </contour>
    </TTGlyph>
    <TTGlyph name="percent" xMin="59" yMin="-12" xMax="888" yMax="710">
      <contour>
        <pt x="181" y="0" on="1"/>
        <pt x="665" y="698" on="1"/>
        <pt x="766" y="698" on="1"/>
        <pt x="282" y="0" on="1"/>
      </contour>
      <contour>
        <pt x="226" y="314" on="1"/>
        <pt x="145" y="314" on="0"/>
        <pt x="59" y="415" on="0"/>
        <pt x="59" y="512" on="1"/>
        <pt x="59" y="609" on="0"/>
        <pt x="145" y="710" on="0"/>
        <pt x="226" y="710" on="1"/>
        <pt x="307" y="710" on="0"/>
        <pt x="393" y="609" on="0"/>
        <pt x="393" y="512" on="1"/>
        <pt x="393" y="415" on="0"/>
        <pt x="307" y="314" on="0"/>
      </contour>
      <contour>
        <pt x="226" y="381" on="1"/>
        <pt x="297" y="381" on="0"/>
        <pt x="297" y="484" on="1"/>
        <pt x="297" y="540" on="1"/>
        <pt x="297" y="643" on="0"/>
        <pt x="226" y="643" on="1"/>
        <pt x="155" y="643" on="0"/>
        <pt x="155" y="540" on="1"/>
        <pt x="155" y="484" on="1"/>
        <pt x="155" y="381" on="0"/>
      </contour>
      <contour>
        <pt x="721" y="-12" on="1"/>
        <pt x="640" y="-12" on="0"/>
        <pt x="554" y="89" on="0"/>
        <pt x="554" y="186" on="1"/>
        <pt x="554" y="283" on="0"/>
        <pt x="640" y="384" on="0"/>
        <pt x="721" y="384" on="1"/>
        <pt x="802" y="384" on="0"/>
        <pt x="888" y="283" on="0"/>
        <pt x="888" y="186" on="1"/>
        <pt x="888" y="89" on="0"/>
        <pt x="802" y="-12" on="0"/>
      </contour>
      <contour>
        <pt x="721" y="55" on="1"/>
        <pt x="792" y="55" on="0"/>
        <pt x="792" y="158" on="1"/>
        <pt x="792" y="214" on="1"/>
        <pt x="792" y="317" on="0"/>
        <pt x="721" y="317" on="1"/>
        <pt x="650" y="317" on="0"/>
        <pt x="650" y="214" on="1"/>
        <pt x="650" y="158" on="1"/>
        <pt x="650" y="55" on="0"/>
      </contour>
    </TTGlyph>
    <TTGlyph name="period" xMin="72" yMin="-12" xMax="218" yMax="139">
      <contour>
        <pt x="145" y="-12" on="1"/>
        <pt x="108" y="-12" on="0"/>
        <pt x="72" y="27" on="0"/>
        <pt x="72" y="56" on="1"/>
        <pt x="72" y="71" on="1"/>
        <pt x="72" y="100" on="0"/>
        <pt x="108" y="139" on="0"/>
        <pt x="145" y="139" on="1"/>
        <pt x="182" y="139" on="0"/>
        <pt x="218" y="100" on="0"/>
        <pt x="218" y="71" on="1"/>
        <pt x="218" y="56" on="1"/>
        <pt x="218" y="27" on="0"/>
        <pt x="182" y="-12" on="0"/>
      </contour>
    </TTGlyph>
    <TTGlyph name="periodcentered" xMin="98" yMin="224" xMax="258" yMax="384">
      <contour>
        <pt x="178" y="224" on="1"/>
        <pt x="136" y="224" on="0"/>
        <pt x="98" y="263" on="0"/>
        <pt x="98" y="292" on="1"/>
        <pt x="98" y="316" on="1"/>
        <pt x="98" y="345" on="0"/>
        <pt x="136" y="384" on="0"/>
        <pt x="178" y="384" on="1"/>
        <pt x="220" y="384" on="0"/>
        <pt x="258" y="345" on="0"/>
        <pt x="258" y="316" on="1"/>
        <pt x="258" y="292" on="1"/>
        <pt x="258" y="263" on="0"/>
        <pt x="220" y="224" on="0"/>
      </contour>
    </TTGlyph>
    <TTGlyph name="perthousand" xMin="59" yMin="-12" xMax="1280" yMax="710">
      <contour>
        <pt x="181" y="0" on="1"/>
        <pt x="665" y="698" on="1"/>
        <pt x="766" y="698" on="1"/>
        <pt x="282" y="0" on="1"/>
      </contour>
      <contour>
        <pt x="226" y="314" on="1"/>
        <pt x="145" y="314" on="0"/>
        <pt x="59" y="415" on="0"/>
        <pt x="59" y="512" on="1"/>
        <pt x="59" y="609" on="0"/>
        <pt x="145" y="710" on="0"/>
        <pt x="226" y="710" on="1"/>
        <pt x="307" y="710" on="0"/>
        <pt x="393" y="609" on="0"/>
        <pt x="393" y="512" on="1"/>
        <pt x="393" y="415" on="0"/>
        <pt x="307" y="314" on="0"/>
      </contour>
      <contour>
        <pt x="226" y="381" on="1"/>
        <pt x="297" y="381" on="0"/>
        <pt x="297" y="484" on="1"/>
        <pt x="297" y="540" on="1"/>
        <pt x="297" y="643" on="0"/>
        <pt x="226" y="643" on="1"/>
        <pt x="155" y="643" on="0"/>
        <pt x="155" y="540" on="1"/>
        <pt x="155" y="484" on="1"/>
        <pt x="155" y="381" on="0"/>
      </contour>
      <contour>
        <pt x="721" y="-12" on="1"/>
        <pt x="640" y="-12" on="0"/>
        <pt x="554" y="89" on="0"/>
        <pt x="554" y="186" on="1"/>
        <pt x="554" y="283" on="0"/>
        <pt x="640" y="384" on="0"/>
        <pt x="721" y="384" on="1"/>
        <pt x="802" y="384" on="0"/>
        <pt x="888" y="283" on="0"/>
        <pt x="888" y="186" on="1"/>
        <pt x="888" y="89" on="0"/>
        <pt x="802" y="-12" on="0"/>
      </contour>
      <contour>
        <pt x="721" y="55" on="1"/>
        <pt x="792" y="55" on="0"/>
        <pt x="792" y="158" on="1"/>
        <pt x="792" y="214" on="1"/>
        <pt x="792" y="317" on="0"/>
        <pt x="721" y="317" on="1"/>
        <pt x="650" y="317" on="0"/>
        <pt x="650" y="214" on="1"/>
        <pt x="650" y="158" on="1"/>
        <pt x="650" y="55" on="0"/>
      </contour>
      <contour>
        <pt x="1113" y="-12" on="1"/>
        <pt x="1032" y="-12" on="0"/>
        <pt x="946" y="89" on="0"/>
        <pt x="946" y="186" on="1"/>
        <pt x="946" y="283" on="0"/>
        <pt x="1032" y="384" on="0"/>
        <pt x="1113" y="384" on="1"/>
        <pt x="1194" y="384" on="0"/>
        <pt x="1280" y="283" on="0"/>
        <pt x="1280" y="186" on="1"/>
        <pt x="1280" y="89" on="0"/>
        <pt x="1194" y="-12" on="0"/>
      </contour>
      <contour>
        <pt x="1113" y="55" on="1"/>
        <pt x="1184" y="55" on="0"/>
        <pt x="1184" y="158" on="1"/>
        <pt x="1184" y="214" on="1"/>
        <pt x="1184" y="317" on="0"/>
        <pt x="1113" y="317" on="1"/>
        <pt x="1042" y="317" on="0"/>
        <pt x="1042" y="214" on="1"/>
        <pt x="1042" y="158" on="1"/>
        <pt x="1042" y="55" on="0"/>
      </contour>
    </TTGlyph>
    <TTGlyph name="pi" xMin="24" yMin="0" xMax="603" yMax="520">
      <contour>
        <pt x="504" y="89" on="1"/>
        <pt x="569" y="89" on="1"/>
        <pt x="569" y="0" on="1"/>
        <pt x="510" y="0" on="1"/>
        <pt x="453" y="0" on="0"/>
        <pt x="395" y="60" on="0"/>
        <pt x="395" y="112" on="1"/>
        <pt x="395" y="431" on="1"/>
        <pt x="221" y="431" on="1"/>
        <pt x="221" y="0" on="1"/>
        <pt x="112" y="0" on="1"/>
        <pt x="112" y="431" on="1"/>
        <pt x="24" y="431" on="1"/>
        <pt x="24" y="520" on="1"/>
        <pt x="603" y="520" on="1"/>
        <pt x="603" y="431" on="1"/>
        <pt x="504" y="431" on="1"/>
      </contour>
    </TTGlyph>
    <TTGlyph name="plus" xMin="67" yMin="63" xMax="533" yMax="548">
      <contour>
        <pt x="251" y="63" on="1"/>
        <pt x="251" y="261" on="1"/>
        <pt x="67" y="261" on="1"/>
        <pt x="67" y="350" on="1"/>
        <pt x="251" y="350" on="1"/>
        <pt x="251" y="548" on="1"/>
        <pt x="349" y="548" on="1"/>
        <pt x="349" y="350" on="1"/>
        <pt x="533" y="350" on="1"/>
        <pt x="533" y="261" on="1"/>
        <pt x="349" y="261" on="1"/>
        <pt x="349" y="63" on="1"/>
      </contour>
    </TTGlyph>
    <TTGlyph name="plusminus" xMin="67" yMin="0" xMax="533" yMax="625">
      <contour>
        <pt x="251" y="167" on="1"/>
        <pt x="251" y="351" on="1"/>
        <pt x="67" y="351" on="1"/>
        <pt x="67" y="440" on="1"/>
        <pt x="251" y="440" on="1"/>
        <pt x="251" y="625" on="1"/>
        <pt x="349" y="625" on="1"/>
        <pt x="349" y="440" on="1"/>
        <pt x="533" y="440" on="1"/>
        <pt x="533" y="351" on="1"/>
        <pt x="349" y="351" on="1"/>
        <pt x="349" y="167" on="1"/>
      </contour>
      <contour>
        <pt x="67" y="0" on="1"/>
        <pt x="67" y="89" on="1"/>
        <pt x="533" y="89" on="1"/>
        <pt x="533" y="0" on="1"/>
      </contour>
    </TTGlyph>
    <TTGlyph name="product" xMin="38" yMin="-200" xMax="677" yMax="698">
      <contour>
        <pt x="126" y="-200" on="1"/>
        <pt x="126" y="598" on="1"/>
        <pt x="38" y="598" on="1"/>
        <pt x="38" y="698" on="1"/>
        <pt x="677" y="698" on="1"/>
        <pt x="677" y="598" on="1"/>
        <pt x="589" y="598" on="1"/>
        <pt x="589" y="-200" on="1"/>
        <pt x="476" y="-200" on="1"/>
        <pt x="476" y="598" on="1"/>
        <pt x="239" y="598" on="1"/>
        <pt x="239" y="-200" on="1"/>
      </contour>
    </TTGlyph>
    <TTGlyph name="q" xMin="47" yMin="-200" xMax="514" yMax="532">
      <contour>
        <pt x="405" y="86" on="1"/>
        <pt x="400" y="86" on="1"/>
        <pt x="383" y="40" on="0"/>
        <pt x="306" y="-12" on="0"/>
        <pt x="254" y="-12" on="1"/>
        <pt x="155" y="-12" on="0"/>
        <pt x="47" y="131" on="0"/>
        <pt x="47" y="260" on="1"/>
        <pt x="47" y="389" on="0"/>
        <pt x="155" y="532" on="0"/>
        <pt x="254" y="532" on="1"/>
        <pt x="306" y="532" on="0"/>
        <pt x="383" y="481" on="0"/>
        <pt x="400" y="434" on="1"/>
        <pt x="405" y="434" on="1"/>
        <pt x="405" y="520" on="1"/>
        <pt x="514" y="520" on="1"/>
        <pt x="514" y="-200" on="1"/>
        <pt x="405" y="-200" on="1"/>
      </contour>
      <contour>
        <pt x="287" y="82" on="1"/>
        <pt x="337" y="82" on="0"/>
        <pt x="405" y="131" on="0"/>
        <pt x="405" y="171" on="1"/>
        <pt x="405" y="349" on="1"/>
        <pt x="405" y="389" on="0"/>
        <pt x="337" y="438" on="0"/>
        <pt x="287" y="438" on="1"/>
        <pt x="230" y="438" on="0"/>
        <pt x="162" y="365" on="0"/>
        <pt x="162" y="305" on="1"/>
        <pt x="162" y="215" on="1"/>
        <pt x="162" y="155" on="0"/>
        <pt x="230" y="82" on="0"/>
      </contour>
    </TTGlyph>
    <TTGlyph name="question" xMin="19" yMin="-12" xMax="454" yMax="710">
      <contour>
        <pt x="170" y="219" on="1"/>
        <pt x="170" y="378" on="1"/>
        <pt x="251" y="382" on="0"/>
        <pt x="338" y="443" on="0"/>
        <pt x="338" y="503" on="1"/>
        <pt x="338" y="517" on="1"/>
        <pt x="338" y="563" on="0"/>
        <pt x="282" y="614" on="0"/>
        <pt x="235" y="614" on="1"/>
        <pt x="185" y="614" on="0"/>
        <pt x="125" y="556" on="0"/>
        <pt x="114" y="511" on="1"/>
        <pt x="19" y="549" on="1"/>
        <pt x="28" y="580" on="0"/>
        <pt x="63" y="638" on="0"/>
        <pt x="117" y="683" on="0"/>
        <pt x="191" y="710" on="0"/>
        <pt x="239" y="710" on="1"/>
        <pt x="288" y="710" on="0"/>
        <pt x="368" y="682" on="0"/>
        <pt x="424" y="631" on="0"/>
        <pt x="454" y="558" on="0"/>
        <pt x="454" y="514" on="1"/>
        <pt x="454" y="469" on="0"/>
        <pt x="423" y="398" on="0"/>
        <pt x="372" y="348" on="0"/>
        <pt x="308" y="317" on="0"/>
        <pt x="274" y="311" on="1"/>
        <pt x="274" y="219" on="1"/>
      </contour>
      <contour>
        <pt x="223" y="-12" on="1"/>
        <pt x="185" y="-12" on="0"/>
        <pt x="150" y="25" on="0"/>
        <pt x="150" y="54" on="1"/>
        <pt x="150" y="71" on="1"/>
        <pt x="150" y="100" on="0"/>
        <pt x="185" y="137" on="0"/>
        <pt x="223" y="137" on="1"/>
        <pt x="261" y="137" on="0"/>
        <pt x="296" y="100" on="0"/>
        <pt x="296" y="71" on="1"/>
        <pt x="296" y="54" on="1"/>
        <pt x="296" y="25" on="0"/>
        <pt x="261" y="-12" on="0"/>
      </contour>
    </TTGlyph>
    <TTGlyph name="questiondown" xMin="33" yMin="-190" xMax="468" yMax="532">
      <contour>
        <pt x="248" y="-190" on="1"/>
        <pt x="199" y="-190" on="0"/>
        <pt x="119" y="-162" on="0"/>
        <pt x="63" y="-111" on="0"/>
        <pt x="33" y="-38" on="0"/>
        <pt x="33" y="6" on="1"/>
        <pt x="33" y="51" on="0"/>
        <pt x="64" y="122" on="0"/>
        <pt x="115" y="172" on="0"/>
        <pt x="179" y="203" on="0"/>
        <pt x="213" y="209" on="1"/>
        <pt x="213" y="301" on="1"/>
        <pt x="317" y="301" on="1"/>
        <pt x="317" y="142" on="1"/>
        <pt x="236" y="138" on="0"/>
        <pt x="149" y="77" on="0"/>
        <pt x="149" y="17" on="1"/>
        <pt x="149" y="3" on="1"/>
        <pt x="149" y="-43" on="0"/>
        <pt x="205" y="-94" on="0"/>
        <pt x="252" y="-94" on="1"/>
        <pt x="302" y="-94" on="0"/>
        <pt x="362" y="-36" on="0"/>
        <pt x="373" y="9" on="1"/>
        <pt x="468" y="-29" on="1"/>
        <pt x="459" y="-60" on="0"/>
        <pt x="424" y="-118" on="0"/>
        <pt x="370" y="-163" on="0"/>
        <pt x="296" y="-190" on="0"/>
      </contour>
      <contour>
        <pt x="264" y="383" on="1"/>
        <pt x="226" y="383" on="0"/>
        <pt x="191" y="420" on="0"/>
        <pt x="191" y="449" on="1"/>
        <pt x="191" y="466" on="1"/>
        <pt x="191" y="495" on="0"/>
        <pt x="226" y="532" on="0"/>
        <pt x="264" y="532" on="1"/>
        <pt x="302" y="532" on="0"/>
        <pt x="337" y="495" on="0"/>
        <pt x="337" y="466" on="1"/>
        <pt x="337" y="449" on="1"/>
        <pt x="337" y="420" on="0"/>
        <pt x="302" y="383" on="0"/>
      </contour>
    </TTGlyph>
    <TTGlyph name="quotedbl" xMin="78" yMin="440" xMax="373" yMax="740">
      <component glyphName="quotesingle" x="0" y="0" flags="0x4"/>
      <component glyphName="quotesingle" x="198" y="0" flags="0x4"/>
    </TTGlyph>
    <TTGlyph name="quotedblbase" xMin="36" yMin="-116" xMax="428" yMax="155">
      <component glyphName="quotesinglbase" x="0" y="0" flags="0x4"/>
      <component glyphName="quotesinglbase" x="216" y="0" flags="0x4"/>
    </TTGlyph>
    <TTGlyph name="quotedblleft" xMin="67" yMin="469" xMax="460" yMax="740">
      <component glyphName="quoteleft" x="0" y="0" flags="0x4"/>
      <component glyphName="quoteleft" x="217" y="0" flags="0x4"/>
    </TTGlyph>
    <TTGlyph name="quotedblright" xMin="41" yMin="479" xMax="433" yMax="750">
      <component glyphName="quoteright" x="0" y="0" flags="0x4"/>
      <component glyphName="quoteright" x="216" y="0" flags="0x4"/>
    </TTGlyph>
    <TTGlyph name="quoteleft" xMin="67" yMin="469" xMax="243" yMax="740">
      <contour>
        <pt x="139" y="469" on="1"/>
        <pt x="102" y="469" on="0"/>
        <pt x="67" y="505" on="0"/>
        <pt x="67" y="533" on="1"/>
        <pt x="67" y="550" on="1"/>
        <pt x="67" y="574" on="0"/>
        <pt x="82" y="626" on="0"/>
        <pt x="108" y="676" on="0"/>
        <pt x="144" y="722" on="0"/>
        <pt x="166" y="740" on="1"/>
        <pt x="243" y="740" on="1"/>
        <pt x="212" y="709" on="0"/>
        <pt x="171" y="650" on="0"/>
        <pt x="161" y="614" on="1"/>
        <pt x="187" y="609" on="0"/>
        <pt x="211" y="574" on="0"/>
        <pt x="211" y="551" on="1"/>
        <pt x="211" y="533" on="1"/>
        <pt x="211" y="505" on="0"/>
        <pt x="176" y="469" on="0"/>
      </contour>
    </TTGlyph>
    <TTGlyph name="quoteright" xMin="41" yMin="479" xMax="217" yMax="750">
      <contour>
        <pt x="145" y="750" on="1"/>
        <pt x="183" y="750" on="0"/>
        <pt x="217" y="714" on="0"/>
        <pt x="217" y="685" on="1"/>
        <pt x="217" y="668" on="1"/>
        <pt x="217" y="644" on="0"/>
        <pt x="203" y="593" on="0"/>
        <pt x="177" y="543" on="0"/>
        <pt x="141" y="497" on="0"/>
        <pt x="119" y="479" on="1"/>
        <pt x="41" y="479" on="1"/>
        <pt x="73" y="510" on="0"/>
        <pt x="113" y="570" on="0"/>
        <pt x="124" y="605" on="1"/>
        <pt x="98" y="610" on="0"/>
        <pt x="73" y="644" on="0"/>
        <pt x="73" y="667" on="1"/>
        <pt x="73" y="685" on="1"/>
        <pt x="73" y="714" on="0"/>
        <pt x="107" y="750" on="0"/>
      </contour>
    </TTGlyph>
    <TTGlyph name="quotesinglbase" xMin="36" yMin="-116" xMax="212" yMax="155">
      <contour>
        <pt x="140" y="155" on="1"/>
        <pt x="178" y="155" on="0"/>
        <pt x="212" y="119" on="0"/>
        <pt x="212" y="90" on="1"/>
        <pt x="212" y="73" on="1"/>
        <pt x="212" y="49" on="0"/>
        <pt x="198" y="-2" on="0"/>
        <pt x="172" y="-52" on="0"/>
        <pt x="136" y="-98" on="0"/>
        <pt x="114" y="-116" on="1"/>
        <pt x="36" y="-116" on="1"/>
        <pt x="68" y="-85" on="0"/>
        <pt x="108" y="-25" on="0"/>
        <pt x="119" y="10" on="1"/>
        <pt x="93" y="15" on="0"/>
        <pt x="68" y="49" on="0"/>
        <pt x="68" y="72" on="1"/>
        <pt x="68" y="90" on="1"/>
        <pt x="68" y="119" on="0"/>
        <pt x="102" y="155" on="0"/>
      </contour>
    </TTGlyph>
    <TTGlyph name="quotesingle" xMin="78" yMin="440" xMax="175" yMax="740">
      <contour>
        <pt x="78" y="440" on="1"/>
        <pt x="78" y="740" on="1"/>
        <pt x="175" y="740" on="1"/>
        <pt x="175" y="440" on="1"/>
      </contour>
    </TTGlyph>
    <TTGlyph name="r" xMin="78" yMin="0" xMax="364" yMax="520">
      <contour>
        <pt x="78" y="0" on="1"/>
        <pt x="78" y="520" on="1"/>
        <pt x="187" y="520" on="1"/>
        <pt x="187" y="420" on="1"/>
        <pt x="192" y="420" on="1"/>
        <pt x="203" y="460" on="0"/>
        <pt x="273" y="520" on="0"/>
        <pt x="335" y="520" on="1"/>
        <pt x="364" y="520" on="1"/>
        <pt x="364" y="415" on="1"/>
        <pt x="321" y="415" on="1"/>
        <pt x="256" y="415" on="0"/>
        <pt x="187" y="373" on="0"/>
        <pt x="187" y="332" on="1"/>
        <pt x="187" y="0" on="1"/>
      </contour>
    </TTGlyph>
    <TTGlyph name="radical" xMin="23" yMin="0" xMax="576" yMax="698">
      <contour>
        <pt x="234" y="0" on="1"/>
        <pt x="113" y="431" on="1"/>
        <pt x="23" y="431" on="1"/>
        <pt x="23" y="520" on="1"/>
        <pt x="189" y="520" on="1"/>
        <pt x="241" y="328" on="1"/>
        <pt x="303" y="91" on="1"/>
        <pt x="309" y="91" on="1"/>
        <pt x="373" y="328" on="1"/>
        <pt x="478" y="698" on="1"/>
        <pt x="576" y="698" on="1"/>
        <pt x="374" y="0" on="1"/>
      </contour>
    </TTGlyph>
    <TTGlyph name="registered" xMin="36" yMin="298" xMax="436" yMax="710">
      <contour>
        <pt x="236" y="298" on="1"/>
        <pt x="194" y="298" on="0"/>
        <pt x="121" y="329" on="0"/>
        <pt x="67" y="385" on="0"/>
        <pt x="36" y="460" on="0"/>
        <pt x="36" y="504" on="1"/>
        <pt x="36" y="548" on="0"/>
        <pt x="67" y="623" on="0"/>
        <pt x="121" y="679" on="0"/>
        <pt x="194" y="710" on="0"/>
        <pt x="236" y="710" on="1"/>
        <pt x="278" y="710" on="0"/>
        <pt x="351" y="679" on="0"/>
        <pt x="405" y="623" on="0"/>
        <pt x="436" y="548" on="0"/>
        <pt x="436" y="504" on="1"/>
        <pt x="436" y="460" on="0"/>
        <pt x="405" y="385" on="0"/>
        <pt x="351" y="329" on="0"/>
        <pt x="278" y="298" on="0"/>
      </contour>
      <contour>
        <pt x="236" y="341" on="1"/>
        <pt x="269" y="341" on="0"/>
        <pt x="325" y="364" on="0"/>
        <pt x="366" y="405" on="0"/>
        <pt x="389" y="459" on="0"/>
        <pt x="389" y="491" on="1"/>
        <pt x="389" y="517" on="1"/>
        <pt x="389" y="548" on="0"/>
        <pt x="366" y="603" on="0"/>
        <pt x="325" y="644" on="0"/>
        <pt x="269" y="667" on="0"/>
        <pt x="236" y="667" on="1"/>
        <pt x="203" y="667" on="0"/>
        <pt x="147" y="644" on="0"/>
        <pt x="106" y="603" on="0"/>
        <pt x="83" y="548" on="0"/>
        <pt x="83" y="517" on="1"/>
        <pt x="83" y="491" on="1"/>
        <pt x="83" y="459" on="0"/>
        <pt x="106" y="405" on="0"/>
        <pt x="147" y="364" on="0"/>
        <pt x="203" y="341" on="0"/>
      </contour>
      <contour>
        <pt x="206" y="398" on="1"/>
        <pt x="155" y="398" on="1"/>
        <pt x="155" y="607" on="1"/>
        <pt x="250" y="607" on="1"/>
        <pt x="285" y="607" on="0"/>
        <pt x="321" y="570" on="0"/>
        <pt x="321" y="541" on="1"/>
        <pt x="321" y="516" on="0"/>
        <pt x="300" y="485" on="0"/>
        <pt x="283" y="478" on="1"/>
        <pt x="330" y="398" on="1"/>
        <pt x="274" y="398" on="1"/>
        <pt x="235" y="470" on="1"/>
        <pt x="206" y="470" on="1"/>
      </contour>
      <contour>
        <pt x="244" y="508" on="1"/>
        <pt x="269" y="508" on="0"/>
        <pt x="269" y="530" on="1"/>
        <pt x="269" y="545" on="1"/>
        <pt x="269" y="567" on="0"/>
        <pt x="244" y="567" on="1"/>
        <pt x="206" y="567" on="1"/>
        <pt x="206" y="508" on="1"/>
      </contour>
    </TTGlyph>
    <TTGlyph name="ring" xMin="170" yMin="568" xMax="430" yMax="822">
      <contour>
        <pt x="300" y="568" on="1"/>
        <pt x="273" y="568" on="0"/>
        <pt x="225" y="587" on="0"/>
        <pt x="190" y="621" on="0"/>
        <pt x="170" y="668" on="0"/>
        <pt x="170" y="695" on="1"/>
        <pt x="170" y="722" on="0"/>
        <pt x="190" y="769" on="0"/>
        <pt x="225" y="803" on="0"/>
        <pt x="273" y="822" on="0"/>
        <pt x="300" y="822" on="1"/>
        <pt x="327" y="822" on="0"/>
        <pt x="375" y="803" on="0"/>
        <pt x="410" y="769" on="0"/>
        <pt x="430" y="722" on="0"/>
        <pt x="430" y="695" on="1"/>
        <pt x="430" y="668" on="0"/>
        <pt x="410" y="621" on="0"/>
        <pt x="375" y="587" on="0"/>
        <pt x="327" y="568" on="0"/>
      </contour>
      <contour>
        <pt x="300" y="628" on="1"/>
        <pt x="355" y="628" on="0"/>
        <pt x="355" y="681" on="1"/>
        <pt x="355" y="709" on="1"/>
        <pt x="355" y="762" on="0"/>
        <pt x="300" y="762" on="1"/>
        <pt x="245" y="762" on="0"/>
        <pt x="245" y="709" on="1"/>
        <pt x="245" y="681" on="1"/>
        <pt x="245" y="628" on="0"/>
      </contour>
    </TTGlyph>
    <TTGlyph name="ring.case" xMin="170" yMin="734" xMax="430" yMax="988">
      <contour>
        <pt x="300" y="734" on="1"/>
        <pt x="273" y="734" on="0"/>
        <pt x="225" y="753" on="0"/>
        <pt x="190" y="787" on="0"/>
        <pt x="170" y="834" on="0"/>
        <pt x="170" y="861" on="1"/>
        <pt x="170" y="888" on="0"/>
        <pt x="190" y="935" on="0"/>
        <pt x="225" y="969" on="0"/>
        <pt x="273" y="988" on="0"/>
        <pt x="300" y="988" on="1"/>
        <pt x="327" y="988" on="0"/>
        <pt x="375" y="969" on="0"/>
        <pt x="410" y="935" on="0"/>
        <pt x="430" y="888" on="0"/>
        <pt x="430" y="861" on="1"/>
        <pt x="430" y="834" on="0"/>
        <pt x="410" y="787" on="0"/>
        <pt x="375" y="753" on="0"/>
        <pt x="327" y="734" on="0"/>
      </contour>
      <contour>
        <pt x="300" y="795" on="1"/>
        <pt x="326" y="795" on="0"/>
        <pt x="355" y="823" on="0"/>
        <pt x="355" y="848" on="1"/>
        <pt x="355" y="875" on="1"/>
        <pt x="355" y="900" on="0"/>
        <pt x="326" y="928" on="0"/>
        <pt x="300" y="928" on="1"/>
        <pt x="274" y="928" on="0"/>
        <pt x="245" y="900" on="0"/>
        <pt x="245" y="875" on="1"/>
        <pt x="245" y="848" on="1"/>
        <pt x="245" y="823" on="0"/>
        <pt x="274" y="795" on="0"/>
      </contour>
    </TTGlyph>
    <TTGlyph name="s" xMin="32" yMin="-12" xMax="449" yMax="532">
      <contour>
        <pt x="243" y="-12" on="1"/>
        <pt x="169" y="-12" on="0"/>
        <pt x="69" y="40" on="0"/>
        <pt x="32" y="86" on="1"/>
        <pt x="102" y="150" on="1"/>
        <pt x="131" y="115" on="0"/>
        <pt x="202" y="76" on="0"/>
        <pt x="249" y="76" on="1"/>
        <pt x="297" y="76" on="0"/>
        <pt x="344" y="113" on="0"/>
        <pt x="344" y="146" on="1"/>
        <pt x="344" y="171" on="0"/>
        <pt x="311" y="206" on="0"/>
        <pt x="270" y="211" on="1"/>
        <pt x="222" y="217" on="1"/>
        <pt x="142" y="227" on="0"/>
        <pt x="51" y="300" on="0"/>
        <pt x="51" y="372" on="1"/>
        <pt x="51" y="410" on="0"/>
        <pt x="79" y="469" on="0"/>
        <pt x="130" y="510" on="0"/>
        <pt x="201" y="532" on="0"/>
        <pt x="244" y="532" on="1"/>
        <pt x="314" y="532" on="0"/>
        <pt x="403" y="488" on="0"/>
        <pt x="438" y="449" on="1"/>
        <pt x="371" y="385" on="1"/>
        <pt x="351" y="409" on="0"/>
        <pt x="286" y="444" on="0"/>
        <pt x="244" y="444" on="1"/>
        <pt x="199" y="444" on="0"/>
        <pt x="156" y="408" on="0"/>
        <pt x="156" y="379" on="1"/>
        <pt x="156" y="349" on="0"/>
        <pt x="194" y="319" on="0"/>
        <pt x="236" y="312" on="1"/>
        <pt x="284" y="306" on="1"/>
        <pt x="370" y="293" on="0"/>
        <pt x="449" y="218" on="0"/>
        <pt x="449" y="155" on="1"/>
        <pt x="449" y="117" on="0"/>
        <pt x="420" y="56" on="0"/>
        <pt x="366" y="12" on="0"/>
        <pt x="290" y="-12" on="0"/>
      </contour>
    </TTGlyph>
    <TTGlyph name="scaron" xMin="32" yMin="-12" xMax="449" yMax="786">
      <component glyphName="s" x="0" y="0" flags="0x204"/>
      <component glyphName="caron" x="-56" y="0" flags="0x4"/>
    </TTGlyph>
    <TTGlyph name="section" xMin="64" yMin="-158" xMax="513" yMax="710">
      <contour>
        <pt x="480" y="8" on="1"/>
        <pt x="480" y="-31" on="0"/>
        <pt x="450" y="-92" on="0"/>
        <pt x="395" y="-135" on="0"/>
        <pt x="319" y="-158" on="0"/>
        <pt x="273" y="-158" on="1"/>
        <pt x="225" y="-158" on="0"/>
        <pt x="131" y="-129" on="0"/>
        <pt x="93" y="-95" on="1"/>
        <pt x="150" y="-25" on="1"/>
        <pt x="175" y="-48" on="0"/>
        <pt x="237" y="-73" on="0"/>
        <pt x="275" y="-73" on="1"/>
        <pt x="324" y="-73" on="0"/>
        <pt x="381" y="-32" on="0"/>
        <pt x="381" y="4" on="1"/>
        <pt x="381" y="38" on="0"/>
        <pt x="332" y="76" on="0"/>
        <pt x="285" y="90" on="1"/>
        <pt x="216" y="110" on="1"/>
        <pt x="133" y="133" on="0"/>
        <pt x="64" y="214" on="0"/>
        <pt x="64" y="261" on="1"/>
        <pt x="64" y="307" on="0"/>
        <pt x="118" y="379" on="0"/>
        <pt x="172" y="402" on="1"/>
        <pt x="172" y="413" on="1"/>
        <pt x="138" y="436" on="0"/>
        <pt x="97" y="502" on="0"/>
        <pt x="97" y="547" on="1"/>
        <pt x="97" y="585" on="0"/>
        <pt x="127" y="646" on="0"/>
        <pt x="181" y="688" on="0"/>
        <pt x="256" y="710" on="0"/>
        <pt x="302" y="710" on="1"/>
        <pt x="351" y="710" on="0"/>
        <pt x="445" y="682" on="0"/>
        <pt x="484" y="647" on="1"/>
        <pt x="426" y="578" on="1"/>
        <pt x="401" y="600" on="0"/>
        <pt x="340" y="626" on="0"/>
        <pt x="300" y="626" on="1"/>
        <pt x="252" y="626" on="0"/>
        <pt x="194" y="587" on="0"/>
        <pt x="194" y="550" on="1"/>
        <pt x="194" y="517" on="0"/>
        <pt x="243" y="479" on="0"/>
        <pt x="291" y="465" on="1"/>
        <pt x="360" y="446" on="1"/>
        <pt x="443" y="422" on="0"/>
        <pt x="513" y="342" on="0"/>
        <pt x="513" y="294" on="1"/>
        <pt x="513" y="248" on="0"/>
        <pt x="458" y="175" on="0"/>
        <pt x="404" y="153" on="1"/>
        <pt x="404" y="143" on="1"/>
        <pt x="439" y="120" on="0"/>
        <pt x="480" y="53" on="0"/>
      </contour>
      <contour>
        <pt x="415" y="263" on="1"/>
        <pt x="415" y="298" on="0"/>
        <pt x="369" y="347" on="0"/>
        <pt x="314" y="362" on="1"/>
        <pt x="246" y="381" on="1"/>
        <pt x="238" y="383" on="0"/>
        <pt x="222" y="388" on="0"/>
        <pt x="214" y="391" on="1"/>
        <pt x="189" y="371" on="0"/>
        <pt x="161" y="322" on="0"/>
        <pt x="161" y="292" on="1"/>
        <pt x="161" y="257" on="0"/>
        <pt x="207" y="209" on="0"/>
        <pt x="262" y="193" on="1"/>
        <pt x="330" y="175" on="1"/>
        <pt x="345" y="171" on="0"/>
        <pt x="362" y="164" on="1"/>
        <pt x="387" y="184" on="0"/>
        <pt x="415" y="233" on="0"/>
      </contour>
    </TTGlyph>
    <TTGlyph name="semicolon" xMin="49" yMin="-138" xMax="228" yMax="532">
      <component glyphName="comma" x="10" y="0" flags="0x4"/>
      <component glyphName="period" x="10" y="393" flags="0x4"/>
    </TTGlyph>
    <TTGlyph name="seven" xMin="63" yMin="0" xMax="536" yMax="698">
      <contour>
        <pt x="171" y="0" on="1"/>
        <pt x="424" y="605" on="1"/>
        <pt x="160" y="605" on="1"/>
        <pt x="160" y="476" on="1"/>
        <pt x="63" y="476" on="1"/>
        <pt x="63" y="698" on="1"/>
        <pt x="536" y="698" on="1"/>
        <pt x="536" y="600" on="1"/>
        <pt x="290" y="0" on="1"/>
      </contour>
    </TTGlyph>
    <TTGlyph name="six" xMin="56" yMin="-12" xMax="547" yMax="698">
      <contour>
        <pt x="302" y="-12" on="1"/>
        <pt x="244" y="-12" on="0"/>
        <pt x="153" y="26" on="0"/>
        <pt x="90" y="97" on="0"/>
        <pt x="56" y="197" on="0"/>
        <pt x="56" y="260" on="1"/>
        <pt x="56" y="336" on="0"/>
        <pt x="102" y="470" on="0"/>
        <pt x="174" y="582" on="0"/>
        <pt x="263" y="669" on="0"/>
        <pt x="306" y="698" on="1"/>
        <pt x="456" y="698" on="1"/>
        <pt x="397" y="655" on="0"/>
        <pt x="303" y="575" on="0"/>
        <pt x="233" y="491" on="0"/>
        <pt x="186" y="397" on="0"/>
        <pt x="173" y="341" on="1"/>
        <pt x="180" y="339" on="1"/>
        <pt x="191" y="360" on="0"/>
        <pt x="220" y="397" on="0"/>
        <pt x="259" y="425" on="0"/>
        <pt x="309" y="441" on="0"/>
        <pt x="342" y="441" on="1"/>
        <pt x="386" y="441" on="0"/>
        <pt x="461" y="411" on="0"/>
        <pt x="516" y="354" on="0"/>
        <pt x="547" y="274" on="0"/>
        <pt x="547" y="225" on="1"/>
        <pt x="547" y="172" on="0"/>
        <pt x="512" y="85" on="0"/>
        <pt x="448" y="23" on="0"/>
        <pt x="357" y="-12" on="0"/>
      </contour>
      <contour>
        <pt x="302" y="80" on="1"/>
        <pt x="363" y="80" on="0"/>
        <pt x="431" y="145" on="0"/>
        <pt x="431" y="208" on="1"/>
        <pt x="431" y="222" on="1"/>
        <pt x="431" y="285" on="0"/>
        <pt x="363" y="350" on="0"/>
        <pt x="302" y="350" on="1"/>
        <pt x="241" y="350" on="0"/>
        <pt x="173" y="285" on="0"/>
        <pt x="173" y="222" on="1"/>
        <pt x="173" y="208" on="1"/>
        <pt x="173" y="145" on="0"/>
        <pt x="241" y="80" on="0"/>
      </contour>
    </TTGlyph>
    <TTGlyph name="slash" xMin="7" yMin="-151" xMax="378" yMax="740">
      <contour>
        <pt x="7" y="-151" on="1"/>
        <pt x="284" y="740" on="1"/>
        <pt x="378" y="740" on="1"/>
        <pt x="101" y="-151" on="1"/>
      </contour>
    </TTGlyph>
    <TTGlyph name="sterling" xMin="49" yMin="0" xMax="554" yMax="710">
      <contour>
        <pt x="75" y="0" on="1"/>
        <pt x="75" y="115" on="1"/>
        <pt x="116" y="133" on="0"/>
        <pt x="152" y="204" on="0"/>
        <pt x="152" y="246" on="1"/>
        <pt x="152" y="257" on="0"/>
        <pt x="150" y="278" on="0"/>
        <pt x="148" y="288" on="1"/>
        <pt x="49" y="288" on="1"/>
        <pt x="49" y="379" on="1"/>
        <pt x="117" y="379" on="1"/>
        <pt x="108" y="408" on="0"/>
        <pt x="92" y="467" on="0"/>
        <pt x="92" y="502" on="1"/>
        <pt x="92" y="548" on="0"/>
        <pt x="125" y="625" on="0"/>
        <pt x="187" y="680" on="0"/>
        <pt x="275" y="710" on="0"/>
        <pt x="331" y="710" on="1"/>
        <pt x="409" y="710" on="0"/>
        <pt x="518" y="650" on="0"/>
        <pt x="554" y="593" on="1"/>
        <pt x="471" y="534" on="1"/>
        <pt x="445" y="572" on="0"/>
        <pt x="378" y="612" on="0"/>
        <pt x="331" y="612" on="1"/>
        <pt x="272" y="612" on="0"/>
        <pt x="207" y="549" on="0"/>
        <pt x="207" y="487" on="1"/>
        <pt x="207" y="456" on="0"/>
        <pt x="221" y="405" on="0"/>
        <pt x="229" y="379" on="1"/>
        <pt x="437" y="379" on="1"/>
        <pt x="437" y="288" on="1"/>
        <pt x="259" y="288" on="1"/>
        <pt x="262" y="271" on="0"/>
        <pt x="262" y="253" on="1"/>
        <pt x="262" y="198" on="0"/>
        <pt x="215" y="121" on="0"/>
        <pt x="186" y="104" on="1"/>
        <pt x="186" y="98" on="1"/>
        <pt x="537" y="98" on="1"/>
        <pt x="537" y="0" on="1"/>
      </contour>
    </TTGlyph>
    <TTGlyph name="summation" xMin="31" yMin="-200" xMax="491" yMax="698">
      <contour>
        <pt x="491" y="-200" on="1"/>
        <pt x="31" y="-200" on="1"/>
        <pt x="31" y="-97" on="1"/>
        <pt x="273" y="247" on="1"/>
        <pt x="273" y="251" on="1"/>
        <pt x="31" y="595" on="1"/>
        <pt x="31" y="698" on="1"/>
        <pt x="491" y="698" on="1"/>
        <pt x="491" y="598" on="1"/>
        <pt x="153" y="598" on="1"/>
        <pt x="376" y="286" on="1"/>
        <pt x="376" y="212" on="1"/>
        <pt x="153" y="-100" on="1"/>
        <pt x="491" y="-100" on="1"/>
      </contour>
    </TTGlyph>
    <TTGlyph name="t" xMin="26" yMin="0" xMax="325" yMax="662">
      <contour>
        <pt x="222" y="0" on="1"/>
        <pt x="165" y="0" on="0"/>
        <pt x="107" y="59" on="0"/>
        <pt x="107" y="113" on="1"/>
        <pt x="107" y="431" on="1"/>
        <pt x="26" y="431" on="1"/>
        <pt x="26" y="520" on="1"/>
        <pt x="70" y="520" on="1"/>
        <pt x="97" y="520" on="0"/>
        <pt x="118" y="544" on="0"/>
        <pt x="118" y="571" on="1"/>
        <pt x="118" y="662" on="1"/>
        <pt x="216" y="662" on="1"/>
        <pt x="216" y="520" on="1"/>
        <pt x="325" y="520" on="1"/>
        <pt x="325" y="431" on="1"/>
        <pt x="216" y="431" on="1"/>
        <pt x="216" y="89" on="1"/>
        <pt x="317" y="89" on="1"/>
        <pt x="317" y="0" on="1"/>
      </contour>
    </TTGlyph>
</ttFont>
